<svg xmlns="http://www.w3.org/2000/svg" width="304.667" height="78.833" viewBox="-1.064 -1.57 304.667 78.833" enable-background="new -1.064 -1.57 304.667 78.833"><path fill="white" d="M78.622 32.215c0-2.498 0-2.944-.032-3.458-.032-.544-.16-.8-.688-.913-.128-.03-.4-.048-.544-.048-.063 0-.128-.03-.128-.096 0-.097.08-.128.256-.128.72 0 1.697.048 1.84.048.143 0 1.105-.048 1.586-.048.175 0 .256.032.256.128 0 .063-.064.096-.128.096-.112 0-.208.017-.4.048-.432.063-.56.354-.593.913-.03.513-.03.96-.03 3.458v2.24c0 2.306.512 3.298 1.2 3.955.783.735 1.504.88 2.416.88.977 0 1.937-.465 2.513-1.15.736-.914.93-2.274.93-3.924v-2c0-2.5 0-2.945-.032-3.46-.032-.543-.16-.8-.69-.912-.128-.03-.398-.048-.544-.048-.063 0-.127-.03-.127-.096 0-.097.08-.128.256-.128.72 0 1.6.048 1.694.048.112 0 .865-.048 1.346-.048.177 0 .257.032.257.128 0 .063-.064.096-.128.096-.115 0-.21 0-.4.048-.435.08-.563.354-.594.913-.03.513-.03.96-.03 3.458v1.712c0 1.73-.195 3.65-1.475 4.786-1.15 1.023-2.353 1.186-3.3 1.186-.54 0-2.157-.066-3.294-1.14-.785-.75-1.393-1.87-1.393-4.208v-2.337zm16.646 5.282c.032 1.312.192 1.73.625 1.855.304.08.656.096.8.096.08 0 .128.033.128.096 0 .1-.094.13-.285.13-.912 0-1.553-.05-1.697-.05s-.816.05-1.536.05c-.16 0-.256-.017-.256-.13 0-.062.05-.096.128-.096.13 0 .417-.015.658-.096.398-.11.48-.575.48-2.032l.015-9.172c0-.624.047-.8.176-.8.13 0 .4.352.56.512.24.272 2.627 2.85 5.092 5.49 1.585 1.696 3.33 3.65 3.84 4.178l-.175-8.13c-.016-1.04-.128-1.394-.624-1.52-.287-.065-.656-.08-.784-.08-.113 0-.13-.05-.13-.113 0-.097.13-.112.32-.112.722 0 1.49.048 1.666.048.175 0 .703-.046 1.36-.046.176 0 .287.016.287.112 0 .063-.062.11-.176.11-.08 0-.19 0-.385.05-.53.11-.593.464-.593 1.425l-.032 9.38c0 1.057-.03 1.137-.144 1.137-.127 0-.32-.177-1.17-1.024-.175-.157-2.48-2.51-4.176-4.337-1.857-2-3.667-4.018-4.18-4.593l.21 7.667-.002-.003zm18.072-2.465c0 1.536 0 2.8.08 3.474.048.462.144.815.623.878.225.032.577.064.72.064.098 0 .13.05.13.096 0 .08-.08.13-.257.13-.88 0-1.89-.05-1.97-.05s-1.088.05-1.567.05c-.18 0-.26-.03-.26-.13 0-.047.033-.096.13-.096.144 0 .336-.032.48-.064.32-.062.4-.416.464-.878.08-.673.08-1.938.08-3.474v-2.817c0-2.498 0-2.944-.032-3.458-.032-.544-.192-.815-.544-.896-.177-.046-.385-.062-.498-.062-.063 0-.127-.03-.127-.096 0-.096.08-.127.255-.127.528 0 1.537.048 1.617.048s1.088-.047 1.568-.047c.177 0 .256.032.256.128 0 .064-.063.097-.127.097-.112 0-.208.018-.4.05-.433.08-.56.353-.593.913-.03.512-.03.96-.03 3.457v2.816-.004zm11.172 2.687c.928-2.146 3.073-7.73 3.425-8.884.08-.24.145-.464.145-.607 0-.13-.048-.29-.208-.37-.192-.065-.433-.065-.608-.065-.096 0-.176-.016-.176-.096 0-.098.096-.13.352-.13.64 0 1.377.05 1.57.05.094 0 .782-.05 1.247-.05.175 0 .27.033.27.113s-.064.11-.19.11c-.114 0-.466 0-.77.193-.208.145-.448.416-.88 1.505-.178.45-.98 2.37-1.794 4.337-.977 2.336-1.696 4.064-2.065 4.85-.446.96-.51 1.217-.67 1.217-.193 0-.27-.226-.576-.992l-3.922-9.812c-.353-.896-.593-1.072-1.153-1.232-.24-.065-.513-.065-.61-.065-.095 0-.127-.048-.127-.11 0-.098.16-.113.416-.113.77 0 1.68.05 1.872.05.16 0 .882-.05 1.488-.05.29 0 .434.033.434.113s-.048.11-.16.11c-.176 0-.464.018-.607.08-.177.08-.208.21-.208.32 0 .21.19.707.43 1.33l3.07 8.196h.002zm10.403-5.505c0-2.498 0-2.944-.03-3.458-.033-.544-.16-.8-.69-.913-.127-.03-.4-.048-.543-.048-.064 0-.128-.03-.128-.096 0-.097.08-.128.255-.128.72 0 1.727.048 1.81.048.11 0 3.296 0 3.663-.017.304-.017.56-.047.688-.08.08-.016.147-.08.227-.08.048 0 .063.064.063.145 0 .112-.08.305-.126.753-.017.16-.05.866-.08 1.06-.017.08-.05.175-.113.175-.094 0-.125-.08-.125-.208 0-.112-.018-.384-.096-.576-.113-.257-.274-.45-1.138-.543-.272-.033-2.016-.05-2.192-.05-.064 0-.096.05-.096.16v4.42c0 .11.016.158.096.158.208 0 2.177 0 2.544-.032.385-.032.608-.064.753-.223.11-.13.176-.21.24-.21.047 0 .08.032.08.128s-.08.37-.13.896c-.03.32-.06.913-.06 1.025 0 .126 0 .302-.113.302-.08 0-.113-.063-.113-.145 0-.16 0-.32-.063-.53-.064-.224-.208-.495-.832-.56-.432-.047-2.017-.08-2.29-.08-.08 0-.11.05-.11.112v1.41c0 .542-.017 2.4 0 2.735.047 1.104.287 1.312 1.856 1.312.417 0 1.12 0 1.537-.176.416-.177.608-.496.72-1.152.032-.175.064-.24.146-.24.095 0 .095.13.095.24 0 .13-.128 1.217-.208 1.554-.112.416-.24.416-.865.416-2.417 0-3.488-.097-3.953-.097-.032 0-.304.02-.64.02-.32.017-.69.03-.93.03-.176 0-.256-.028-.256-.13 0-.045.032-.094.128-.094.146 0 .337-.032.48-.064.32-.062.4-.416.465-.878.077-.673.077-1.938.077-3.474v-2.815h-.002zm11.765 0c0-2.498 0-2.944-.032-3.458-.03-.544-.16-.8-.688-.913-.128-.03-.4-.048-.544-.048-.063 0-.127-.03-.127-.096 0-.097.077-.128.253-.128.72 0 1.73.048 1.81.048.176 0 1.392-.048 1.89-.048 1.008 0 2.08.095 2.927.704.402.29 1.105 1.073 1.105 2.178 0 1.185-.494 2.368-1.938 3.696 1.312 1.682 2.4 3.105 3.33 4.098.864.913 1.553 1.088 1.953 1.153.305.05.53.05.624.05.082 0 .146.05.146.095 0 .1-.098.13-.385.13h-1.137c-.898 0-1.297-.082-1.713-.305-.688-.37-1.248-1.154-2.16-2.354-.672-.88-1.425-1.953-1.744-2.37-.062-.062-.11-.096-.206-.096l-1.97-.03c-.08 0-.11.048-.11.128v.385c0 1.536 0 2.8.078 3.474.05.462.146.815.625.878.226.032.577.064.72.064.098 0 .13.05.13.095 0 .08-.08.13-.257.13-.88 0-1.89-.05-1.97-.05-.016 0-1.023.05-1.504.05-.176 0-.255-.03-.255-.13 0-.047.03-.096.127-.096.145 0 .337-.033.48-.065.32-.062.4-.416.465-.878.08-.673.08-1.938.08-3.474v-2.817h-.002zm1.28 1.392c0 .08.033.144.112.19.24.144.976.257 1.68.257.386 0 .834-.05 1.2-.305.56-.383.978-1.248.978-2.465 0-2-1.056-3.202-2.77-3.202-.478 0-.912.05-1.072.097-.08.03-.127.096-.127.19v5.237zm11.606 5.86c-.224-.113-.24-.178-.24-.608 0-.8.064-1.44.08-1.698.02-.175.05-.255.13-.255.097 0 .11.048.11.176 0 .146 0 .37.05.593.24 1.186 1.296 1.633 2.368 1.633 1.537 0 2.29-1.105 2.29-2.13 0-1.103-.464-1.744-1.843-2.88l-.72-.594c-1.695-1.392-2.08-2.384-2.08-3.473 0-1.713 1.28-2.88 3.313-2.88.627 0 1.09.062 1.49.16.305.06.434.08.56.08.13 0 .16.03.16.11s-.063.61-.063 1.697c0 .255-.03.368-.11.368-.097 0-.11-.08-.13-.208-.015-.192-.11-.624-.207-.8-.097-.178-.527-.85-2-.85-1.105 0-1.97.69-1.97 1.857 0 .912.45 1.456 1.953 2.69l.448.35c1.888 1.49 2.337 2.48 2.337 3.763 0 .656-.256 1.872-1.36 2.656-.688.48-1.552.673-2.416.673-.752-.003-1.487-.116-2.146-.436h-.002zm13.496-4.435c0 1.536 0 2.8.08 3.474.047.462.143.815.623.878.223.032.576.064.72.064.097 0 .13.05.13.096 0 .08-.08.13-.258.13-.88 0-1.89-.05-1.97-.05-.08 0-1.09.05-1.57.05-.175 0-.253-.03-.253-.13 0-.047.033-.096.13-.096.143 0 .33-.032.478-.064.32-.062.4-.416.463-.878.08-.673.08-1.938.08-3.474v-2.817c0-2.498 0-2.944-.034-3.458-.028-.544-.188-.815-.54-.896-.177-.046-.385-.062-.498-.062-.062 0-.125-.03-.125-.096 0-.096.08-.127.256-.127.525 0 1.535.048 1.615.048s1.088-.047 1.568-.047c.177 0 .254.032.254.128 0 .064-.062.097-.128.097-.112 0-.207.018-.397.05-.435.08-.562.353-.594.913-.028.512-.028.96-.028 3.457v2.816-.004zm11.108 0c0 1.536 0 2.8.08 3.474.048.462.145.815.623.878.225.032.577.064.723.064.094 0 .127.05.127.096 0 .08-.078.13-.258.13-.878 0-1.887-.05-1.968-.05-.08 0-1.087.05-1.57.05-.173 0-.254-.03-.254-.13 0-.047.03-.096.128-.096.146 0 .337-.032.48-.064.32-.062.4-.416.464-.878.083-.673.083-1.938.083-3.474V28.26l-2.37.032c-.992.018-1.377.128-1.633.514-.176.272-.225.385-.27.496-.05.128-.098.16-.16.16-.05 0-.08-.048-.08-.144 0-.16.32-1.537.35-1.665.034-.096.098-.304.16-.304.113 0 .273.158.705.188.464.05 1.07.08 1.264.08h6.002c.513 0 .88-.047 1.138-.08.237-.047.383-.08.445-.08.08 0 .08.098.08.193 0 .48-.05 1.585-.05 1.76 0 .147-.047.21-.11.21-.08 0-.112-.048-.13-.27l-.014-.18c-.064-.478-.434-.85-1.97-.88l-2.017-.032v6.774zm11.78.496c0-.864-.16-1.216-.37-1.68-.11-.257-2.255-3.778-2.816-4.61-.4-.592-.8-.99-1.087-1.186-.24-.16-.546-.256-.688-.256-.082 0-.16-.03-.16-.11 0-.065.06-.113.206-.113.304 0 1.506.048 1.585.048.113 0 .724-.046 1.347-.046.177 0 .208.048.208.112 0 .063-.097.08-.24.145-.127.064-.207.16-.207.288 0 .193.08.384.21.625.255.465 2.654 4.595 2.944 5.06.305-.673 2.337-4.18 2.657-4.706.206-.337.27-.608.27-.817 0-.224-.062-.4-.257-.447-.14-.048-.237-.08-.237-.16 0-.063.098-.096.256-.096.416 0 .93.048 1.055.048.098 0 1.25-.048 1.555-.048.11 0 .207.032.207.095 0 .08-.08.128-.208.128-.18 0-.48.064-.738.225-.32.19-.496.384-.85.815-.525.64-2.772 4.4-3.056 5.09-.24.577-.24 1.073-.24 1.6v1.38c0 .255 0 .927.047 1.6.03.462.177.815.655.88.225.03.578.062.72.062.1 0 .13.048.13.095 0 .08-.08.13-.258.13-.88 0-1.886-.05-1.97-.05-.08 0-1.087.05-1.565.05-.178 0-.257-.03-.257-.13 0-.047.03-.096.127-.096.146 0 .34-.032.48-.064.32-.062.466-.416.495-.878.05-.673.05-1.345.05-1.6v-1.38h-.002zm22.375-8.178c3.603 0 6.292 2.27 6.292 6 0 3.586-2.53 6.547-6.387 6.547-4.385 0-6.21-3.41-6.21-6.29 0-2.593 1.888-6.258 6.305-6.257zm.338 11.94c1.44 0 4.417-.834 4.417-5.49 0-3.843-2.336-5.907-4.864-5.907-2.675 0-4.674 1.76-4.674 5.267 0 3.727 2.24 6.13 5.12 6.13zm11.35-7.075c0-2.498 0-2.944-.03-3.458-.03-.544-.16-.8-.688-.913-.128-.03-.398-.048-.544-.048-.06 0-.13-.03-.13-.096 0-.097.084-.128.26-.128.722 0 1.728.048 1.812.048.32 0 3.567 0 3.935-.017.306-.017.562-.017.706-.063.095-.032.16-.096.225-.096s.096.063.096.144c0 .112-.077.305-.127.753-.015.16-.047.866-.08 1.06-.018.08-.047.175-.127.175s-.11-.08-.11-.192c0-.127-.05-.4-.147-.606-.094-.208-.463-.497-1.09-.513l-2.463-.05c-.096 0-.145.05-.145.178v4.417c0 .095.018.144.113.144l2.05-.017c.27 0 .497 0 .72-.016.384-.03.592-.08.736-.29.062-.08.113-.156.178-.156.062 0 .08.047.08.127 0 .097-.08.37-.13.897-.03.32-.064.96-.064 1.073 0 .144 0 .304-.11.304-.08 0-.11-.064-.11-.145-.02-.16-.03-.386-.095-.578-.082-.225-.34-.512-.832-.575-.4-.05-2.146-.05-2.417-.05-.08 0-.112.033-.112.146v1.36c0 1.535 0 2.8.078 3.473.05.462.146.815.627.878.224.033.576.065.72.065.1 0 .13.05.13.095 0 .08-.082.13-.26.13-.878 0-1.887-.05-1.967-.05-.08 0-1.09.05-1.57.05-.175 0-.253-.03-.253-.13 0-.046.032-.095.126-.095.147 0 .338-.032.48-.064.32-.062.4-.415.466-.877.078-.674.078-1.94.078-3.475V32.22l-.01-.005zm17.755 0c0-2.498 0-2.944-.033-3.458-.03-.544-.16-.8-.688-.913-.13-.03-.4-.048-.546-.048-.06 0-.126-.03-.126-.096 0-.097.08-.128.257-.128.72 0 1.697.048 1.842.048.143 0 1.104-.048 1.584-.048.178 0 .254.032.254.128 0 .063-.062.096-.127.096-.113 0-.207.017-.4.048-.432.063-.56.354-.59.913-.032.513-.032.96-.032 3.458v2.24c0 2.306.51 3.298 1.2 3.955.782.735 1.505.88 2.415.88.978 0 1.938-.465 2.515-1.15.733-.914.928-2.274.928-3.924v-2c0-2.5 0-2.945-.032-3.46-.03-.543-.16-.8-.688-.912-.13-.03-.4-.048-.545-.048-.064 0-.127-.03-.127-.096 0-.097.08-.128.256-.128.722 0 1.602.048 1.695.048.113 0 .865-.048 1.346-.048.177 0 .257.032.257.128 0 .063-.063.096-.13.096-.11 0-.207 0-.398.048-.433.08-.56.354-.592.913-.03.513-.03.96-.03 3.458v1.712c0 1.73-.193 3.65-1.477 4.786-1.15 1.023-2.353 1.186-3.294 1.186-.548 0-2.165-.066-3.302-1.14-.784-.75-1.39-1.87-1.39-4.208v-2.337zm19.623 2.817c0 1.536 0 2.8.08 3.474.048.462.145.815.624.878.225.032.575.064.72.064.097 0 .13.05.13.096 0 .08-.082.13-.256.13-.883 0-1.89-.05-1.97-.05s-1.09.05-1.57.05c-.175 0-.255-.03-.255-.13 0-.047.03-.096.127-.096.146 0 .338-.032.48-.064.32-.062.4-.416.464-.878.08-.673.08-1.938.08-3.474V28.26l-2.37.032c-.99.018-1.375.128-1.63.514-.176.272-.226.385-.274.496-.045.128-.096.16-.16.16-.047 0-.08-.048-.08-.144 0-.16.32-1.537.354-1.665.03-.096.095-.304.16-.304.11 0 .272.158.703.188.465.05 1.073.08 1.267.08h6.002c.514 0 .88-.047 1.137-.08.24-.047.386-.08.447-.08.082 0 .082.098.082.193 0 .48-.05 1.585-.05 1.76 0 .147-.05.21-.112.21-.08 0-.113-.048-.13-.27l-.016-.18c-.062-.478-.43-.85-1.968-.88l-2.018-.032v6.772h.003zm11.237-7.06c.19-.527.256-.624.354-.624.098 0 .16.08.352.576.24.607 2.755 7.22 3.73 9.65.577 1.424 1.04 1.68 1.378 1.777.24.08.48.097.64.097.096 0 .16.018.16.096 0 .1-.144.13-.32.13-.24 0-1.41 0-2.512-.03-.308-.02-.48-.02-.48-.114 0-.064.048-.097.11-.114.098-.032.193-.175.098-.43l-1.488-3.94c-.033-.062-.064-.094-.145-.094h-3.44c-.08 0-.128.048-.16.128l-.96 2.834c-.146.4-.224.783-.224 1.072 0 .32.334.463.605.463h.16c.11 0 .16.03.16.094 0 .1-.096.13-.24.13-.385 0-1.07-.05-1.248-.05-.176 0-1.057.05-1.81.05-.208 0-.306-.03-.306-.13 0-.062.065-.096.146-.096.112 0 .336-.016.463-.033.735-.096 1.057-.703 1.346-1.503l3.633-9.942-.003.002zm1.665 6.404c.078 0 .078-.048.063-.11l-1.52-4.323c-.08-.24-.163-.24-.24 0l-1.41 4.322c-.03.08 0 .11.047.11h3.06zm18.9.656c0 1.536 0 2.8.083 3.474.048.462.144.815.625.878.223.032.574.064.72.064.095 0 .126.05.126.096 0 .08-.078.13-.254.13-.883 0-1.89-.05-1.97-.05s-1.09.05-1.568.05c-.177 0-.256-.03-.256-.13 0-.047.03-.096.126-.096.146 0 .338-.032.48-.064.32-.062.4-.416.465-.878.08-.673.08-1.938.08-3.474V33.35c0-.064-.052-.096-.1-.096h-6.786c-.047 0-.096.017-.096.096v1.682c0 1.536 0 2.8.08 3.474.05.462.145.815.625.878.224.032.574.064.72.064.095 0 .13.05.13.096 0 .08-.082.13-.258.13-.88 0-1.89-.05-1.97-.05-.08 0-1.087.05-1.566.05-.177 0-.26-.03-.26-.13 0-.047.033-.096.13-.096.144 0 .337-.032.48-.064.32-.062.397-.416.464-.878.08-.673.08-1.938.08-3.474v-2.817c0-2.498 0-2.944-.03-3.458-.032-.544-.162-.8-.69-.913-.127-.03-.4-.048-.543-.048-.063 0-.13-.03-.13-.096 0-.097.083-.128.26-.128.72 0 1.728.048 1.808.048.08 0 1.088-.048 1.567-.048.176 0 .258.032.258.128 0 .063-.064.096-.13.096-.11 0-.206.017-.4.048-.43.08-.56.354-.59.913-.033.513-.033.96-.033 3.458v.336c0 .08.05.1.096.1h6.787c.048 0 .097-.018.097-.098v-.335c0-2.498 0-2.944-.03-3.458-.033-.545-.16-.8-.69-.913-.127-.032-.398-.05-.544-.05-.063 0-.127-.03-.127-.095 0-.097.08-.128.255-.128.72 0 1.73.048 1.808.048.08 0 1.088-.048 1.57-.048.176 0 .258.032.258.128 0 .063-.064.096-.132.096-.11 0-.208.017-.4.05-.43.078-.56.352-.592.91-.03.514-.03.96-.03 3.46v2.816-.002z"/><path fill="#A0A1A0" d="M29.524 4.235c0-2.167 1.75-3.923 3.914-3.925 2.165 0 3.926 1.75 3.926 3.917.003 2.165-1.75 3.923-3.913 3.924-2.166.003-3.92-1.747-3.926-3.915zM33.517 61.7c-3.41-.02-1.322-2.72-2.916-3.44-5.644-2.532-8.112-6.487-7.493-11.744.424-3.582 3.232-5.703 5.43-8.207.062-.07.06-.16-.01-.23-3.092-3.056-6.883-5.158-9.818-8.52-1.64-1.876-1.15-5.373 1.356-6.035 3.287-.873 8.827-.995 9.938-.024 1.092.95-1.087 4.575-2.574 5.3-.063.028-.105.068-.126.128-.302.933 2.275 2.15 3.492 3.037.064.047.158.005.178-.074.114-.436.08-1.183.08-1.183L30.97 20.3s-.04-.11-.12-.063c-1.06.562-2.53 1.385-3.63 1.473-5.375.438-10.877.736-16.006-1.132C6.51 18.86 1.674 15.224.976 9.785c-.004-.036.017-.11.08-.11 1.744 0 27.264-.03 28.448-.034.148 0 .143.13.143.13-.02 1.994-1.145 4.19-2.93 4.772-.79.253-2.47.572-4.192.575-6.95.007-8.394-.03-8.54.09-.15.08-.045.252.02.32.56.642 8.562.753 11.822.415 3.548-.365 5.07-3.898 5.39-6.155.014-.106.136-.113.136-.113h2.103l2.098-.003s.12.006.136.113c.323 2.257 1.857 5.786 5.402 6.144 3.26.33 11.263.194 11.826-.445.06-.067.166-.24.014-.32-.144-.123-1.59-.08-8.54-.07-1.722.002-3.4-.312-4.192-.563-1.785-.577-2.915-2.772-2.94-4.764 0 0-.008-.133.142-.133 1.183 0 26.704-.03 28.45-.033.057 0 .083.072.08.106-.686 5.44-5.51 9.09-10.212 10.82-5.125 1.885-10.624 1.597-16.005 1.173-1.097-.087-2.566-.907-3.63-1.467-.083-.04-.123.063-.123.065l-.06 10.41s-.03.743.084 1.178c.022.082.114.123.18.075 1.216-.89 3.79-2.112 3.48-3.045-.017-.06-.06-.102-.12-.127-1.49-.722-3.68-4.342-2.588-5.295 1.104-.972 6.646-.864 9.938 0 2.506.66 3.006 4.15 1.373 6.033-2.928 3.367-6.716 5.48-9.8 8.546-.067.068-.07.16-.01.228 2.202 2.497 5.02 4.613 5.447 8.192.638 5.26-1.822 9.222-7.462 11.765-1.595.72.5 3.458-2.91 3.444h.002zm2.67-16.88c-.39.78-.402 4.947.032 6.084.09.237.47.306.687-.017 1.707-2.55 1.227-4.23-.078-5.896-.29-.363-.53-.395-.645-.17h.002zm-5.384.008c-.11-.23-.355-.192-.642.174-1.297 1.667-1.772 3.345-.062 5.894.218.323.6.258.688.018.432-1.137.41-5.31.017-6.086z"/><path fill="#AC162C" d="M33.5 75.884c20.947-.027 30.637-18.43 30.623-29.19L64.1 25.178H51.486l.03 21.57c.006 6.985-6.08 18.015-18.03 18.03-12.285.02-18.066-11.295-18.074-17.985l-.03-21.617-12.525.002.045 21.59C2.912 57.71 12.13 75.91 33.5 75.885z"/><path fill="white" d="M92.283 56.408c0 2.084.025 3.786.127 4.676.076.635.128 1.042.813 1.145.305.052.813.1.992.1.15 0 .202.104.202.18 0 .102-.126.18-.38.18-1.222 0-2.645-.078-2.772-.078-.102 0-1.55.077-2.21.077-.256 0-.356-.05-.356-.182 0-.073.05-.178.176-.178.203 0 .457-.05.66-.102.457-.103.534-.533.61-1.168.102-.89.102-2.52.102-4.603v-2.16c0-.102-.052-.128-.128-.128h-9.328c-.075 0-.127.025-.127.13v2.157c0 2.084 0 3.736.102 4.626.075.635.152 1.042.812 1.145.33.053.812.1 1.016.1.126 0 .177.105.177.18 0 .103-.102.18-.355.18-1.246 0-2.67-.077-2.77-.077-.128 0-1.55.078-2.237.078-.23 0-.354-.05-.354-.18 0-.074.05-.18.178-.18.203 0 .482-.05.687-.1.433-.104.483-.512.585-1.146.126-.89.126-2.592.126-4.676v-3.812c0-3.356 0-3.967-.05-4.65-.05-.737-.178-1.096-.915-1.194-.18-.023-.56-.05-.763-.05-.075 0-.178-.103-.178-.18 0-.126.102-.178.354-.178 1.018 0 2.44.05 2.567.05.103 0 1.525-.05 2.212-.05.255 0 .356.05.356.18 0 .076-.102.18-.18.18-.15 0-.304 0-.558.05-.61.125-.736.432-.79 1.193-.023.686-.023 1.347-.023 4.7v.458c0 .13.052.13.127.13h9.327c.076 0 .127 0 .127-.13v-.457c0-3.354-.026-4.017-.052-4.7-.05-.737-.152-1.096-.89-1.194-.18-.023-.56-.05-.763-.05-.103 0-.18-.103-.18-.18 0-.126.103-.178.356-.178.99 0 2.44.05 2.542.05.127 0 1.55-.05 2.21-.05.255 0 .382.05.382.18 0 .076-.102.18-.203.18-.15 0-.28 0-.558.05-.587.125-.714.432-.765 1.193-.05.686-.05 1.295-.05 4.652v3.81l.008-.002zm7.374-3.81c0-3.358 0-3.97-.052-4.653-.05-.736-.177-1.095-.914-1.193-.176-.024-.56-.052-.76-.052-.077 0-.18-.102-.18-.178 0-.127.103-.18.356-.18 1.018 0 2.465.052 2.593.052.15 0 4.83.024 5.336 0 .433-.024.84-.103 1.017-.127.102-.026.203-.103.305-.103.077 0 .102.103.102.204 0 .15-.128.404-.178 1.015-.026.203-.076 1.17-.128 1.425-.024.102-.102.227-.204.227-.126 0-.177-.102-.177-.28 0-.15-.025-.507-.127-.762-.153-.354-.38-.508-1.602-.66-.38-.052-2.974-.076-3.23-.076-.1 0-.125.076-.125.23v5.87c0 .15 0 .228.124.228.28 0 3.23 0 3.736-.05.535-.05.866-.076 1.095-.304.152-.15.255-.28.33-.28.076 0 .127.05.127.178s-.126.484-.18 1.195c-.05.433-.1 1.247-.1 1.396 0 .178-.05.405-.204.405-.102 0-.15-.076-.15-.2 0-.206 0-.434-.103-.715-.077-.304-.28-.558-1.144-.66-.61-.075-3-.102-3.38-.102-.127 0-.15.078-.15.153v1.807c0 .735-.026 3.253 0 3.684.05 1.45.456 1.73 2.667 1.73.585 0 1.652 0 2.237-.23.585-.255.89-.637 1.017-1.5.05-.255.104-.33.23-.33s.152.18.152.33-.177 1.626-.304 2.086c-.152.557-.38.557-1.245.557-1.677 0-2.974-.05-3.89-.074-.938-.054-1.522-.054-1.853-.054-.05 0-.484 0-.966.024-.432.026-.94.05-1.296.05-.228 0-.355-.05-.355-.178 0-.075.05-.18.177-.18.203 0 .483-.074.688-.1.43-.076.482-.51.584-1.145.126-.89.126-2.592.126-4.676v-3.81.007zm17.413-5.823c.278-.712.38-.84.532-.84.23 0 .306.306.533.79.406.915 3.99 9.836 5.363 13.112.813 1.933 1.424 2.213 1.906 2.365.33.1.66.125.89.125.127 0 .28.053.28.18s-.255.18-.51.18c-.33 0-1.98 0-3.533-.052-.43-.026-.785-.026-.785-.152 0-.103.05-.103.152-.154.128-.05.357-.23.204-.585l-2.01-4.957c-.05-.103-.073-.128-.2-.128h-5.16c-.1 0-.178.05-.23.18l-1.27 3.456c-.204.53-.33 1.067-.33 1.448 0 .434.38.583.762.583h.204c.178 0 .23.077.23.178 0 .128-.127.18-.33.18-.534 0-1.755-.077-2.01-.077-.228 0-1.346.077-2.26.077-.28 0-.434-.05-.434-.18 0-.1.102-.18.203-.18.153 0 .483-.026.662-.05 1.016-.127 1.447-.89 1.88-1.98l5.264-13.523v.003zm2.49 8.998c.102 0 .102-.052.077-.152l-2.212-5.92c-.127-.33-.254-.33-.382 0l-2.084 5.922c-.026.103 0 .153.075.153h4.524v-.002zm11.998.685c0 3.178.052 4.474.457 4.854.357.354 1.222.51 2.975.51 1.17 0 2.16-.025 2.693-.662.28-.332.458-.787.534-1.22.026-.153.102-.278.23-.278.1 0 .15.103.15.33s-.15 1.523-.33 2.16c-.153.51-.23.583-1.423.583-1.6 0-2.848-.024-3.89-.074-1.016-.024-1.78-.05-2.438-.05-.103 0-.483 0-.916.024-.457.026-.94.05-1.295.05-.23 0-.357-.05-.357-.178 0-.074.052-.18.18-.18.2 0 .482-.047.686-.1.432-.103.482-.51.584-1.145.127-.89.127-2.59.127-4.675v-3.812c0-3.356 0-3.967-.05-4.65-.05-.737-.18-1.096-.916-1.194-.18-.026-.56-.054-.764-.054-.077 0-.178-.103-.178-.178 0-.128.1-.18.354-.18 1.017 0 2.414.052 2.542.052.102 0 1.78-.05 2.464-.05.23 0 .356.05.356.177 0 .074-.1.15-.178.15-.152 0-.482.025-.737.053-.66.123-.788.455-.84 1.22-.024.685-.024 1.294-.024 4.65v3.864l.002.004zm15.048-.05c0 2.084 0 3.786.102 4.676.076.635.178 1.042.864 1.145.305.052.813.1 1.017.1.15 0 .176.104.176.18 0 .102-.103.18-.355.18-1.22 0-2.643-.078-2.77-.078-.103 0-1.65.077-2.313.077-.253 0-.355-.05-.355-.182 0-.073.05-.15.18-.15.202 0 .455-.054.66-.103.456-.102.584-.534.66-1.17.1-.89.1-2.59.1-4.675v-9.074l-3.227.05c-1.397.026-1.932.178-2.26.687-.257.38-.28.534-.357.687-.053.178-.128.203-.23.203-.05 0-.15-.05-.15-.178 0-.23.456-2.162.48-2.34.052-.126.154-.406.23-.406.15 0 .38.175.99.253.636.077 1.5.104 1.754.104h8.438c.738 0 1.246-.05 1.602-.104.33-.052.533-.1.637-.1.1 0 .1.125.1.25 0 .663-.076 2.214-.076 2.47 0 .176-.1.277-.203.277-.1 0-.148-.074-.177-.38l-.024-.23c-.08-.66-.562-1.143-2.696-1.193l-2.796-.05v9.07h-.002zm24.274 0c0 2.084.024 3.786.127 4.676.077.635.128 1.042.813 1.145.306.052.812.1.99.1.153 0 .205.104.205.18 0 .102-.13.18-.383.18-1.22 0-2.645-.078-2.77-.078-.1 0-1.55.077-2.213.077-.255 0-.356-.05-.356-.182 0-.073.053-.178.18-.178.202 0 .457-.05.66-.102.457-.103.532-.533.608-1.168.103-.89.103-2.52.103-4.603v-2.16c0-.102-.05-.128-.125-.128h-9.33c-.074 0-.125.025-.125.13v2.157c0 2.084 0 3.736.102 4.626.074.635.152 1.042.812 1.145.33.053.81.1 1.017.1.128 0 .177.105.177.18 0 .103-.103.18-.356.18-1.244 0-2.666-.077-2.77-.077-.127 0-1.55.078-2.236.078-.23 0-.354-.05-.354-.18 0-.074.05-.18.176-.18.204 0 .484-.05.688-.1.434-.104.484-.512.584-1.146.13-.89.13-2.592.13-4.676v-3.812c0-3.356 0-3.967-.052-4.65-.052-.737-.178-1.096-.914-1.194-.18-.023-.56-.05-.764-.05-.076 0-.178-.103-.178-.18 0-.126.102-.178.354-.178 1.02 0 2.44.05 2.57.05.102 0 1.523-.05 2.21-.05.254 0 .354.05.354.18 0 .076-.1.18-.178.18-.154 0-.306 0-.56.05-.61.125-.738.432-.787 1.193-.023.686-.023 1.347-.023 4.7v.458c0 .13.05.13.125.13h9.33c.076 0 .127 0 .127-.13v-.457c0-3.354-.027-4.017-.052-4.7-.053-.737-.152-1.096-.89-1.194-.18-.023-.56-.05-.763-.05-.104 0-.18-.103-.18-.18 0-.126.103-.178.356-.178.99 0 2.44.05 2.543.05.125 0 1.55-.05 2.21-.05.256 0 .382.05.382.18 0 .076-.102.18-.203.18-.15 0-.277 0-.558.05-.585.125-.714.432-.765 1.193-.05.686-.05 1.295-.05 4.652v3.81-.002zm14.263 5.972c-.306-.15-.33-.228-.33-.813 0-1.066.1-1.93.127-2.285 0-.23.053-.355.177-.355.127 0 .202.076.202.255 0 .178 0 .482.075.787.356 1.573 2.03 2.134 3.533 2.134 2.21 0 3.354-1.246 3.354-2.872 0-1.55-.84-2.287-2.822-3.76l-1.017-.765c-2.414-1.807-3.202-3.125-3.202-4.627 0-2.54 2.01-4.068 4.957-4.068.89 0 1.777.13 2.312.257.433.102.61.102.787.102.18 0 .23.026.23.153 0 .1-.104.812-.104 2.287 0 .33-.026.48-.18.48s-.177-.1-.2-.276c-.027-.257-.204-.84-.333-1.068-.153-.256-.89-1.068-2.896-1.068-1.627 0-2.976.812-2.976 2.338 0 1.373.688 2.162 2.897 3.662l.637.43c2.72 1.857 3.66 3.355 3.66 5.213 0 1.27-.483 2.643-2.084 3.686-.94.61-2.338.76-3.56.76-1.04-.003-2.333-.153-3.25-.586l.005-.004zm15.377-1.728c-2.185-1.88-2.718-4.346-2.718-6.405 0-1.448.533-3.965 2.517-5.896 1.346-1.295 3.38-2.31 6.81-2.31.89 0 2.16.076 3.253.254.84.15 1.552.307 2.286.33.23 0 .28.104.28.23 0 .18-.05.433-.103 1.22-.022.714-.022 1.908-.05 2.21-.024.333-.13.46-.254.46-.15 0-.18-.152-.18-.46 0-.836-.354-1.7-.938-2.157-.79-.66-2.415-1.193-4.398-1.193-2.87 0-4.243.76-5.03 1.5-1.65 1.523-2.01 3.455-2.01 5.64 0 4.146 3.28 7.83 8.06 7.83 1.676 0 2.794-.128 3.684-1.02.483-.478.788-1.395.866-1.802.05-.23.073-.306.23-.306.098 0 .2.15.2.305 0 .15-.304 2.03-.533 2.772-.126.404-.18.48-.558.635-.916.356-2.595.48-4.043.48-3.355-.002-5.62-.788-7.372-2.315zm19.853-4.244c0 2.084 0 3.786.104 4.676.075.635.15 1.042.812 1.145.33.052.81.1 1.015.1.127 0 .178.104.178.18 0 .102-.103.18-.356.18-1.246 0-2.692-.078-2.796-.078-.123 0-1.52.077-2.21.077-.227 0-.353-.05-.353-.182 0-.073.05-.178.178-.178.203 0 .48-.05.688-.102.432-.103.508-.51.586-1.145.1-.89.124-2.592.124-4.676v-3.812c0-3.356 0-3.967-.05-4.65-.05-.737-.228-1.07-.71-1.17-.256-.05-.534-.076-.688-.076-.1 0-.18-.105-.18-.18 0-.127.104-.18.355-.18.74 0 2.138.052 2.262.052.104 0 1.55-.05 2.237-.05.256 0 .356.05.356.178 0 .077-.102.18-.18.18-.15 0-.305 0-.56.05-.61.126-.735.433-.786 1.194-.027.686-.027 1.295-.027 4.65v3.814zm7.348-3.81c0-3.358 0-3.97-.052-4.653-.05-.736-.177-1.095-.914-1.193-.177-.024-.56-.052-.762-.052-.077 0-.178-.102-.178-.178 0-.127.1-.18.354-.18 1.018 0 2.467.052 2.594.052.153 0 4.83.024 5.34 0 .43-.024.838-.103 1.017-.127.1-.026.2-.103.302-.103.08 0 .104.103.104.204 0 .15-.127.404-.178 1.015-.027.203-.078 1.17-.13 1.425-.022.102-.1.227-.202.227-.127 0-.18-.102-.18-.28 0-.15-.023-.507-.124-.762-.15-.354-.38-.508-1.603-.66-.382-.052-2.974-.076-3.227-.076-.104 0-.13.076-.13.23v5.87c0 .15 0 .228.13.228.278 0 3.226 0 3.733-.05.53-.05.865-.076 1.095-.304.15-.15.254-.28.33-.28.077 0 .127.05.127.178s-.128.484-.178 1.195c-.052.433-.103 1.247-.103 1.396 0 .178-.053.405-.203.405-.104 0-.153-.076-.153-.2 0-.206 0-.434-.1-.715-.078-.304-.283-.558-1.146-.66-.61-.075-3-.102-3.38-.102-.13 0-.152.078-.152.153v1.807c0 .735-.025 3.253 0 3.684.05 1.45.457 1.73 2.668 1.73.584 0 1.65 0 2.237-.23.583-.255.89-.637 1.017-1.5.05-.255.102-.33.23-.33s.15.18.15.33-.178 1.626-.305 2.086c-.15.557-.38.557-1.246.557-1.68 0-2.976-.05-3.89-.074-.938-.054-1.524-.054-1.855-.054-.05 0-.483 0-.967.024-.43.026-.94.05-1.296.05-.23 0-.355-.05-.355-.178 0-.075.053-.18.18-.18.203 0 .482-.074.687-.1.43-.076.48-.51.58-1.145.132-.89.132-2.592.132-4.676v-3.81.007zm14.947 7.14c.052 1.78.254 2.312.865 2.466.405.1.913.125 1.116.125.102 0 .18.076.18.177 0 .128-.152.18-.41.18-1.27 0-2.158-.077-2.36-.077-.204 0-1.144.077-2.16.077-.23 0-.355-.024-.355-.18 0-.1.075-.18.18-.18.175 0 .583-.026.913-.125.56-.152.635-.738.635-2.694V47.132c0-.864.13-1.095.307-1.095.255 0 .636.433.864.662.355.352 3.61 3.81 7.065 7.367 2.21 2.29 4.6 4.854 5.287 5.566l-.23-10.826c-.025-1.397-.15-1.88-.84-2.01-.402-.073-.912-.1-1.09-.1-.154 0-.18-.127-.18-.205 0-.126.18-.15.433-.15 1.017 0 2.084.05 2.34.05.253 0 .99-.05 1.904-.05.227 0 .404.024.404.15 0 .078-.1.204-.254.204-.103 0-.28 0-.534.052-.736.15-.788.584-.788 1.88l-.053 12.656c0 1.424-.023 1.553-.176 1.553-.23 0-.458-.18-1.704-1.324-.23-.203-3.457-3.38-5.82-5.846-2.592-2.72-5.107-5.362-5.793-6.126l.253 10.194v.003zm20.056.914c-2.187-1.88-2.72-4.346-2.72-6.405 0-1.448.533-3.965 2.517-5.896 1.348-1.295 3.38-2.31 6.81-2.31.892 0 2.163.076 3.256.254.838.15 1.55.307 2.287.33.23 0 .28.104.28.23 0 .18-.05.433-.103 1.22-.026.714-.026 1.908-.053 2.21-.024.333-.126.46-.252.46-.153 0-.18-.152-.18-.46 0-.836-.355-1.7-.94-2.157-.788-.66-2.413-1.193-4.395-1.193-2.873 0-4.246.76-5.033 1.5-1.65 1.523-2.008 3.455-2.008 5.64 0 4.146 3.278 7.83 8.055 7.83 1.68 0 2.796-.128 3.687-1.02.483-.478.787-1.395.863-1.802.05-.23.076-.306.23-.306.103 0 .203.15.203.305 0 .15-.305 2.03-.535 2.772-.127.404-.18.48-.56.635-.915.356-2.59.48-4.04.48-3.355-.002-5.616-.788-7.37-2.315zm17.82-8.055c0-3.357 0-3.968-.05-4.652-.054-.736-.18-1.095-.917-1.193-.178-.024-.56-.052-.762-.052-.078 0-.178-.102-.178-.178 0-.127.1-.18.354-.18 1.017 0 2.466.052 2.594.052.154 0 4.83.024 5.336 0 .435-.024.838-.103 1.02-.127.102-.026.2-.103.305-.103.075 0 .1.103.1.204 0 .15-.126.404-.177 1.015-.025.203-.077 1.17-.126 1.425-.024.102-.103.227-.203.227-.13 0-.18-.102-.18-.28 0-.15-.023-.507-.127-.762-.15-.354-.38-.508-1.6-.66-.383-.052-2.976-.076-3.23-.076-.098 0-.123.076-.123.23v5.87c0 .15 0 .228.124.228.282 0 3.23 0 3.737-.05.536-.05.866-.076 1.095-.304.152-.15.255-.28.33-.28.078 0 .13.05.13.178s-.13.484-.18 1.195c-.052.433-.103 1.247-.103 1.396 0 .178-.05.405-.203.405-.103 0-.15-.076-.15-.2 0-.206 0-.434-.105-.715-.074-.304-.277-.558-1.145-.66-.607-.075-3-.102-3.38-.102-.124 0-.15.078-.15.153v1.807c0 .735-.026 3.253 0 3.684.05 1.45.457 1.73 2.667 1.73.586 0 1.652 0 2.236-.23.584-.255.89-.637 1.016-1.5.05-.255.103-.33.23-.33.128 0 .15.18.15.33s-.177 1.626-.306 2.086c-.15.557-.378.557-1.242.557-1.678 0-2.977-.05-3.89-.074-.94-.054-1.524-.054-1.855-.054-.052 0-.482 0-.966.024-.432.026-.94.05-1.297.05-.23 0-.355-.05-.355-.178 0-.075.053-.18.18-.18.203 0 .48-.074.686-.1.436-.076.482-.51.585-1.145.126-.89.126-2.592.126-4.676v-3.81l-.004.007zm12.125 9.783c-.307-.15-.33-.228-.33-.813 0-1.066.102-1.93.127-2.285 0-.23.05-.355.178-.355.125 0 .203.076.203.255 0 .178 0 .482.075.787.357 1.573 2.037 2.134 3.535 2.134 2.21 0 3.354-1.246 3.354-2.872 0-1.55-.84-2.287-2.82-3.76l-1.017-.765c-2.414-1.807-3.203-3.125-3.203-4.627 0-2.54 2.01-4.068 4.957-4.068.89 0 1.78.13 2.312.257.43.102.606.102.787.102.178 0 .23.026.23.153 0 .1-.105.812-.105 2.287 0 .33-.022.48-.177.48-.152 0-.178-.1-.203-.276-.024-.257-.203-.84-.33-1.068-.152-.256-.89-1.068-2.896-1.068-1.627 0-2.976.812-2.976 2.338 0 1.373.688 2.162 2.897 3.662l.636.43c2.722 1.857 3.66 3.355 3.66 5.213 0 1.27-.48 2.643-2.083 3.686-.94.61-2.338.76-3.56.76-1.038-.003-2.337-.153-3.25-.586l-.002-.004z"/></svg>