<!-- Generator: Adobe Illustrator 17.1.0, SVG Export Plug-In  --><svg version="1.1"	 xmlns="http://www.w3.org/2000/svg" xmlns:xlink="http://www.w3.org/1999/xlink" xmlns:a="http://ns.adobe.com/AdobeSVGViewerExtensions/3.0/"	 x="0px" y="0px" width="156.4px" height="235.5px" viewBox="0 0 156.4 235.5" enable-background="new 0 0 156.4 235.5"	 xml:space="preserve"><defs></defs><g>	<g>		<path fill="#B6008D" d="M78.3,0c5.3,17,14.4,31.5,23.4,46c14.5,23.6,29.2,47,42.7,71.1c9.7,17.3,13.6,36.6,11.5,56.4			c-2.3,21.1-13.4,37.3-31.3,48.6c-14.7,9.3-31.1,13.9-48.4,13.2c-23.6-0.9-44.7-8.7-60.6-27c-9.6-11.1-14.8-24.2-15.5-39.2			c-0.8-17.9,2.9-34.9,11.1-50.6c8.3-16,17.8-31.5,27-47.1c11.3-19.1,23-38,34.2-57.2C74.8,10,76.2,5,78.3,0z M77.8,224.3			c0.1-0.6,0.2-1.2,0.3-1.8c-0.6-0.3-1.2-0.7-1.9-0.9c-10.1-2.7-19.6-6.5-28-13c-12.4-9.7-19.6-22.3-21-37.8			c-1.5-17.1,2.5-33.3,10.7-48.1C49.4,102.1,61.2,81.7,74,62c6.8-10.6,2.8-21.1,3.9-31.6c-6.7,10-12.9,20.2-19.3,30.1			c-15,23-30.4,45.9-40.7,71.6c-6.4,16-9.9,32.7-4.3,49.6c7.3,22.4,24,34.8,46.3,40C65.7,223.1,71.8,223.5,77.8,224.3z"/>	</g></g></svg>