<!-- Generator: Adobe Illustrator 17.1.0, SVG Export Plug-In  --><svg version="1.1"	 xmlns="http://www.w3.org/2000/svg" xmlns:xlink="http://www.w3.org/1999/xlink" xmlns:a="http://ns.adobe.com/AdobeSVGViewerExtensions/3.0/"	 x="0px" y="0px" width="153.9px" height="347.4px" viewBox="0 0 153.9 347.4" enable-background="new 0 0 153.9 347.4"	 xml:space="preserve"><defs></defs><g>	<g>		<path fill="#2C368B" d="M77,164.3c6.4-9.7,12.2-17.1,16.6-25.3c11.9-22.2,17-46.5,19.8-71.2c1.7-15,2.7-30.2,4.5-45.2			c0.5-4.1,2-8.3,3.9-12.1c4.9-10,15.7-11.6,22-2.4c3.6,5.4,5.9,12.5,6.4,19c2.3,32.1-6.4,62.2-17.7,91.8			C124.4,139.8,113,158.4,95,173c2.6,3.7,4.6,7.2,7.2,10.2c23.2,27.1,35.4,59.4,43.6,93.4c3.4,14,6,28.2,7.9,42.4			c0.7,5.6-0.5,12-2.6,17.2c-5.4,13.4-21,15.3-28.4,2.9c-4.9-8.2-7.9-18.3-9.1-27.9c-2.4-19.2-3-38.7-4.4-58			c-1.7-22.3-12.1-40.4-27.5-56c-2.5-2.5-4.8-5.2-8.1-8.7c-3.4,5.1-6.7,9.8-9.7,14.7c-15.1,24.5-21.3,51.8-24.6,79.9			C37.8,296,38.2,309.2,36,322c-1.1,6.8-4.8,13.9-9.2,19.3c-6.7,8.1-16.6,6.5-22.6-2.4c-5.9-8.9-4.3-18.6-3-28.2			c4.4-33.5,17.6-63.9,33.3-93.4c7.5-14.2,15.1-28.3,23.1-43.2c-28.9-20.7-37.5-52.6-45-84.8c-5.2-22.3-8.1-45-11.8-67.6			c-0.5-3.1,0.2-6.7,1.4-9.6C5.2,5,10.7,0.3,18.4,0C26-0.3,31.4,4.9,33,11.5c2.9,12.8,5.2,25.9,6.1,39c2.1,29.9,6.7,59.2,20.3,86.3			C63.8,145.8,70.2,153.8,77,164.3z"/>	</g></g></svg>