<!-- Generator: Adobe Illustrator 17.1.0, SVG Export Plug-In  --><svg version="1.1"	 xmlns="http://www.w3.org/2000/svg" xmlns:xlink="http://www.w3.org/1999/xlink" xmlns:a="http://ns.adobe.com/AdobeSVGViewerExtensions/3.0/"	 x="0px" y="0px" width="81.1px" height="27.1px" viewBox="0 0 81.1 27.1" enable-background="new 0 0 81.1 27.1"	 xml:space="preserve"><defs></defs><g>	<path fill="#007ABF" d="M8.9,21.4H0V0h8.6c4.2,0,6.6,2.3,6.6,6c0,2.4-1.6,3.9-2.6,4.4c1.3,0.6,2.9,2,2.9,4.8		C15.5,19.2,12.7,21.4,8.9,21.4z M8.2,3.7H4.2v4.9h4.1c1.8,0,2.8-1,2.8-2.5C11,4.7,10,3.7,8.2,3.7z M8.5,12.4H4.2v5.2h4.4		c1.9,0,2.8-1.2,2.8-2.6S10.4,12.4,8.5,12.4z"/>	<path fill="#007ABF" d="M30,19.6c-1,1-2.5,1.9-4.9,1.9c-2.3,0-3.9-0.9-4.8-1.9c-1.4-1.5-1.8-3.2-1.8-6.1c0-2.8,0.4-4.6,1.8-6.1		c1-1,2.5-1.9,4.8-1.9c2.3,0,3.9,0.9,4.9,1.9c1.4,1.5,1.8,3.2,1.8,6.1C31.8,16.4,31.4,18.1,30,19.6z M27,9.8c-0.4-0.5-1-0.7-1.8-0.7		c-0.8,0-1.4,0.2-1.8,0.7c-0.8,0.8-0.9,2.2-0.9,3.8c0,1.6,0.1,3,0.9,3.8c0.5,0.5,1,0.7,1.8,0.7c0.8,0,1.4-0.2,1.8-0.7		c0.8-0.8,0.9-2.2,0.9-3.8C27.9,11.9,27.8,10.6,27,9.8z"/>	<path fill="#007ABF" d="M46.8,20.1c-0.9,0.9-2.3,1.4-3.8,1.4c-1.6,0-2.8-0.5-3.9-1.6v1.5h-3.8V0h3.9v7.1c1-1.1,2.2-1.6,3.8-1.6		c1.5,0,2.9,0.5,3.8,1.4c1.6,1.6,1.6,4.2,1.6,6.6S48.3,18.6,46.8,20.1z M41.8,9.1c-2.3,0-2.6,1.9-2.6,4.5s0.3,4.5,2.6,4.5		s2.6-1.9,2.6-4.5S44.2,9.1,41.8,9.1z"/>	<path fill="#007ABF" d="M63.5,20.1c-0.9,0.9-2.3,1.4-3.8,1.4c-1.6,0-2.8-0.5-3.9-1.6v1.5H52V0h3.9v7.1c1-1.1,2.2-1.6,3.8-1.6		c1.5,0,2.9,0.5,3.8,1.4C65,8.5,65,11.2,65,13.5S65,18.6,63.5,20.1z M58.5,9.1c-2.3,0-2.6,1.9-2.6,4.5s0.3,4.5,2.6,4.5		s2.6-1.9,2.6-4.5S60.8,9.1,58.5,9.1z"/>	<path fill="#007ABF" d="M74.4,23.9c-0.3,0.9-0.7,1.5-1.2,2c-0.9,0.9-2.1,1.2-3.4,1.2h-1.5v-3.5h0.9c1.1,0,1.6-0.3,1.9-1.4l0.7-1.9		L66.5,5.7h4.1l3.2,9.7L77,5.7h4.1L74.4,23.9z"/></g></svg>