<!-- Generator: Adobe Illustrator 17.1.0, SVG Export Plug-In  --><svg version="1.1"	 xmlns="http://www.w3.org/2000/svg" xmlns:xlink="http://www.w3.org/1999/xlink" xmlns:a="http://ns.adobe.com/AdobeSVGViewerExtensions/3.0/"	 x="0px" y="0px" width="174px" height="390.4px" viewBox="0 0 174 390.4" enable-background="new 0 0 174 390.4"	 xml:space="preserve"><defs></defs><path fill="#00A7E0" d="M173.9,227.7l-13-117c-0.1-0.8-0.5-1.5-0.7-2.2c-0.3-0.9-0.4-2-0.9-2.9c-0.5-1-1.2-1.9-2-2.8	c-0.4-0.6-0.8-1.2-1.4-1.6c-1.1-1.1-2.5-1.8-3.9-2.4c-0.3-0.1-0.4-0.4-0.7-0.5c-0.1,0-0.3-0.1-0.4-0.1c-0.2-0.1-0.4-0.1-0.7-0.2	c-3.5-1.2-15.4-5.2-30-8.4v0c-0.3-0.1-0.6-0.1-0.9-0.2c-1-0.2-1.9-0.4-2.9-0.6c-0.2,0-0.3-0.1-0.5-0.1c-6.6-1.3-13.6-2.3-20.5-2.9	c-0.1,0-0.3,0-0.4,0c-1.3-0.1-2.5-0.2-3.8-0.2c-0.2,0-0.4,0-0.6,0c-1.3,0-2.6-0.1-3.8-0.1c0,0,0,0,0,0v0c0,0,0,0,0,0c0,0,0,0,0,0	c0,0,0,0,0,0c-1.3,0-2.6,0-3.8,0.1c-0.2,0-0.4,0-0.6,0c-1.3,0.1-2.5,0.1-3.8,0.2c-0.1,0-0.3,0-0.4,0C71,86.4,64,87.4,57.4,88.7	c-0.2,0-0.3,0.1-0.5,0.1c-1,0.2-2,0.4-2.9,0.6c-0.3,0.1-0.6,0.1-0.9,0.2v0c-14.5,3.1-26.4,7.1-30,8.4c-0.2,0.1-0.4,0.1-0.7,0.2	c-0.1,0.1-0.4,0.1-0.4,0.1c-0.3,0.1-0.4,0.4-0.7,0.5c-1.5,0.6-2.8,1.3-3.9,2.4c-0.6,0.4-0.9,1-1.4,1.6c-0.8,0.9-1.5,1.8-2,2.8	c-0.5,0.9-0.7,2-0.9,2.9c-0.1,0.7-0.6,1.4-0.7,2.2L0.1,227.8c-0.9,8.1,5,15.5,13.2,16.4c0.6,0.1,1.1,0.1,1.7,0.1	c7.5,0,13.9-5.6,14.8-13.2l11.2-107.5c1.2-0.4,2.6-0.8,4.1-1.2v101.5L42.3,258c0,0-0.1,0-0.1,0l-9.1,113.1	c-0.8,9.8,6.6,18.5,16.4,19.3h0.1h1.4H51c9.2,0,17-7.1,17.7-16.4L79.5,241c2.2,0.9,4.6,1.5,7.1,1.5c0,0,0,0,0,0c0,0,0,0,0,0	c0,0,0,0,0,0v0c0,0,0,0,0,0c2.6,0,4.9-0.6,7.1-1.5L104.6,374c0.7,9.3,8.5,16.4,17.7,16.4h0.1h1.4h0.1c9.8-0.8,17.2-9.4,16.4-19.3	L131.1,258c0,0-0.1,0-0.1,0l-2.7-34.1V122.3c1.5,0.4,2.9,0.8,4.1,1.2L144.3,231c0.9,7.6,7.3,13.2,14.8,13.2c0.6,0,1.1,0,1.7-0.1	C168.9,243.2,174.8,235.8,173.9,227.7z"/><path fill="#00A7E0" d="M86.7,0C86.7,0,86.7,0,86.7,0L86.7,0C86.6,0,86.6,0,86.7,0C86.6,0,86.6,0,86.7,0C86.6,0,86.6,0,86.7,0	C65.8,0,49,16.8,49,37.6c0,20.8,16.8,44.9,37.6,44.9c0,0,0,0,0,0c0,0,0,0,0,0c0,0,0,0,0,0v0c0,0,0,0,0,0c20.8,0,37.6-24.1,37.6-44.9	C124.3,16.8,107.5,0,86.7,0z"/></svg>