<!-- Generator: Adobe Illustrator 17.1.0, SVG Export Plug-In  --><svg version="1.1"	 xmlns="http://www.w3.org/2000/svg" xmlns:xlink="http://www.w3.org/1999/xlink" xmlns:a="http://ns.adobe.com/AdobeSVGViewerExtensions/3.0/"	 x="0px" y="0px" width="136.3px" height="305.8px" viewBox="0 0 136.3 305.8" enable-background="new 0 0 136.3 305.8"	 xml:space="preserve"><defs></defs><path fill="#060E9F" d="M136.2,178.4l-10.1-91.7c0-0.6-0.4-1.1-0.5-1.7c-0.2-0.7-0.3-1.5-0.7-2.3c-0.4-0.8-1-1.5-1.6-2.2	c-0.3-0.5-0.6-0.9-1.1-1.3c-0.9-0.9-1.9-1.4-3.1-1.9c-0.2-0.1-0.3-0.3-0.6-0.4c-0.1,0-0.2-0.1-0.4-0.1c-0.2-0.1-0.3-0.1-0.5-0.2	c-2.8-1-12.1-4.1-23.5-6.5v0c-0.2,0-0.4-0.1-0.7-0.1c-0.8-0.2-1.5-0.3-2.3-0.5c-0.1,0-0.3-0.1-0.4-0.1c-5.2-1-10.7-1.8-16.1-2.2	c-0.1,0-0.2,0-0.3,0c-1-0.1-2-0.1-3-0.2c-0.2,0-0.3,0-0.5,0c-1,0-2-0.1-3-0.1c0,0,0,0,0,0v0c0,0,0,0,0,0c0,0,0,0,0,0c0,0,0,0,0,0	c-1,0-2,0-3,0.1c-0.2,0-0.3,0-0.5,0c-1,0-2,0.1-3,0.2c-0.1,0-0.2,0-0.3,0c-5.4,0.4-10.9,1.2-16.1,2.2c-0.1,0-0.3,0.1-0.4,0.1	c-0.8,0.2-1.5,0.3-2.3,0.5c-0.2,0-0.4,0.1-0.7,0.1v0c-11.4,2.5-20.7,5.6-23.5,6.5c-0.2,0.1-0.4,0.1-0.5,0.2C17.5,77,17.3,77,17.3,77	c-0.2,0.1-0.3,0.3-0.6,0.4c-1.1,0.5-2.2,1-3.1,1.9c-0.5,0.3-0.7,0.8-1.1,1.3c-0.6,0.7-1.2,1.4-1.6,2.2c-0.4,0.7-0.5,1.5-0.7,2.3	c-0.1,0.6-0.5,1.1-0.5,1.7l-9.6,91.7c-0.7,6.4,3.9,12.1,10.3,12.9c0.5,0,0.9,0,1.3,0c5.9,0,10.9-4.4,11.6-10.4L32,96.8	c1-0.3,2-0.6,3.2-0.9v79.6l-2.1,26.7c0,0,0,0-0.1,0l-7.1,88.6c-0.6,7.7,5.1,14.5,12.8,15.1h0.1h1.1h0.1c7.2,0,13.3-5.5,13.9-12.8	l8.4-104.2c1.7,0.7,3.6,1.2,5.6,1.2c0,0,0,0,0,0c0,0,0,0,0,0c0,0,0,0,0,0v0c0,0,0,0,0,0c2,0,3.9-0.4,5.6-1.2L81.9,293	c0.6,7.3,6.7,12.8,13.9,12.8h0.1H97H97c7.7-0.6,13.5-7.4,12.8-15.1l-7.1-88.6c0,0,0,0-0.1,0l-2.1-26.7V95.9c1.2,0.3,2.3,0.6,3.2,0.9	L113,181c0.7,6,5.7,10.4,11.6,10.4c0.5,0,0.9,0,1.3,0C132.3,190.5,136.9,184.8,136.2,178.4z"/><path fill="#060E9F" d="M67.9,0C67.9,0,67.9,0,67.9,0L67.9,0C67.9,0,67.9,0,67.9,0C67.9,0,67.9,0,67.9,0C67.9,0,67.9,0,67.9,0	C51.6,0,38.4,13.2,38.4,29.5c0,16.3,13.2,35.2,29.5,35.2c0,0,0,0,0,0c0,0,0,0,0,0c0,0,0,0,0,0v0c0,0,0,0,0,0	c16.3,0,29.5-18.9,29.5-35.2C97.3,13.2,84.2,0,67.9,0z"/></svg>