<!-- Generator: Adobe Illustrator 17.1.0, SVG Export Plug-In  --><svg version="1.1"	 xmlns="http://www.w3.org/2000/svg" xmlns:xlink="http://www.w3.org/1999/xlink" xmlns:a="http://ns.adobe.com/AdobeSVGViewerExtensions/3.0/"	 x="0px" y="0px" width="238.5px" height="139.3px" viewBox="0 0 238.5 139.3" enable-background="new 0 0 238.5 139.3"	 xml:space="preserve"><defs></defs><g>	<g>		<g>			<path fill="#FFFFFF" d="M138.2,92.8c0.1-1.8,0.2-3.6,0.3-5.4c0.2-3.9,0.4-7.9,0.6-11.8c0.1-2.3,0.2-4.6,0.3-6.9				c0.2-4.3,0.4-8.5,0.6-12.8c0.1-3,0.3-6,0.4-9.1c0.2-3.4,0.4-6.9,0.6-10.3c0.2-2.7,0.3-5.5,0.6-8.2c0.1-1.4,0.5-2.7,0.9-4				c0-0.1,0.2-0.3,0.4-0.3c0.5,0,1.1,0,1.7,0c0.3,2,0.6,3.8,0.8,5.7c0.3,3.1,0.5,6.1,0.7,9.2c0.3,5.2,0.6,10.3,0.9,15.5				c0.2,3.1,0.3,6.2,0.4,9.3c0.2,4.1,0.4,8.2,0.6,12.4c0.1,2,0.2,4.1,0.3,6.1c0.1,1.9,0.2,3.8,0.3,5.7c0,0.2,0.1,0.4,0.2,0.6				c0.1-1.6,0.2-3.2,0.3-4.8c0.3-6.9,0.6-13.8,0.9-20.7c0.3-6.2,0.6-12.4,0.9-18.7c0.2-4.5,0.5-9,0.9-13.5c0.1-1.7,0.6-3.5,0.9-5.2				c0-0.1,0-0.2,0-0.2c0.6-0.1,1.2-0.1,1.9-0.1c0.1,0,0.3,0.3,0.4,0.5c1,3.2,1.1,6.5,1.3,9.8c0.4,6.4,0.8,12.9,1.1,19.3				c0.3,4.7,0.4,9.3,0.7,14c0.3,6.2,0.6,12.3,1,18.5c0.2,3.1,0.3,6.3,0.6,9.4c0.1,2.1,0.4,4.3,0.5,6.4c0,0.1,0,0.2,0.2,0.3				c0.1-0.9,0.2-1.8,0.3-2.7c0.6-7.1,1.2-14.3,1.8-21.4c0.4-5,0.9-9.9,1.4-14.9c0.1-1.1,0.5-2.2,0.8-3.3c0-0.1,0-0.1,0.1-0.2				c0.3-0.4,2-0.2,2.3,0.2c0.9,1.5,1,3.2,1.1,4.8c0.8,8.2,1.5,16.5,2.2,24.7c0.5,5.9,1.1,11.7,1.6,17.6c0,0.2,0.1,0.5,0.2,0.7				c0.1-1.1,0.2-2.1,0.3-3.2c0.4-6.6,0.9-13.2,1.3-19.8c0.3-4.8,0.5-9.7,0.8-14.5c0.3-5.8,0.6-11.5,1-17.3c0.3-4.7,0.7-9.4,1-14.1				c0.1-0.8,0.6-1.3,1-1.9c0.1-0.1,0.5-0.1,0.8-0.1c1.2,0.2,1.2,0.2,1.4,1.4c0.6,3.6,0.9,7.1,1.1,10.7c0.2,3.9,0.5,7.8,0.7,11.7				c0.2,2.8,0.3,5.7,0.4,8.5c0.1,1.2,0.1,2.3,0.3,3.5c0.1-1.8,0.2-3.5,0.2-5.3c0.2-6.3,0.5-12.5,0.7-18.8c0.3-8.7,0.6-17.3,1-26				c0.2-5.1,0.4-10.1,0.7-15.2c0.2-2.9,0.6-5.7,0.9-8.6c0-0.1,0.2-0.3,0.4-0.4c0,0,0.1,0,0.2,0c1.6-0.1,1.5-0.1,2,1.4				c0.5,1.6,0.6,3.2,0.7,4.9c0.5,10.1,1,20.2,1.4,30.3c0.3,8.1,0.6,16.2,0.9,24.2c0.3,8.8,0.7,17.6,1.1,26.4				c0.3,5.8,0.6,11.5,0.9,17.2c0,0.9,0.2,1.7,0.4,2.5c0.1-0.7,0.2-1.4,0.3-2.1c0.6-5.2,1.1-10.4,1.7-15.6c0.2-2.1,0.6-4.2,1-6.2				c0.1-0.7,0.5-1.4,0.9-2.1c0.1-0.1,0.3-0.2,0.4-0.2c0.5,0,1,0,1.5,0.1c0.2,0,0.3,0.3,0.4,0.5c0.8,1.9,1,3.9,1.3,5.9				c0.7,6.2,1.5,12.4,2.2,18.6c0.2,1.3,0.4,2.6,0.7,3.9c0.2-1.6,0.5-3.2,0.7-4.8c0.7-6.5,1.4-13,2.1-19.5c0.2-2.2,0.5-4.3,0.9-6.5				c0.2-0.9,0.5-1.7,0.9-2.6c0-0.1,0.2-0.2,0.4-0.2c0.5,0,1-0.1,1.5,0c0.2,0,0.4,0.2,0.5,0.4c0.9,1.4,1,3.1,1.2,4.7				c0.7,5.8,1.3,11.6,1.9,17.4c0.1,1.1,0.2,2.2,0.5,3.3c0.1-0.7,0.1-1.3,0.2-2c0.2-3.6,0.5-7.3,0.7-10.9c0.3-5,0.6-10,0.8-15				c0.2-3.2,0.3-6.4,0.4-9.6c0.2-3.5,0.4-7,0.6-10.5c0.1-2.5,0.2-5.1,0.4-7.6c0.2-2.6,0.4-5.1,0.7-7.7c0.1-1.4,0.3-2.9,0.5-4.3				c0-0.3,0.1-0.5,0.1-0.9c0.9,0.7,1.7,1.3,2.6,1.9c0.1,0.1,0.2,0.2,0.2,0.4c0.2,2.4,0.5,4.7,0.6,7.1c0.3,4.4,0.6,8.8,0.9,13.2				c0.2,2.7,0.3,5.4,0.4,8c0.2,4.6,0.5,9.2,0.7,13.8c0.2,2.9,0.4,5.7,0.5,8.5c0,0.7,0.1,1.3,0.3,2c0-0.4,0.1-0.7,0.1-1.1				c0.2-3.7,0.4-7.3,0.5-11c0.2-5.1,0.5-10.1,0.7-15.2c0.2-3.6,0.3-7.3,0.4-10.9c0.2-4.3,0.4-8.6,0.6-12.9c0.1-2.3,0.2-4.7,0.3-7				c0.2-3.3,0.4-6.5,0.6-9.8c0.1-1.7,0.1-3.4,0.3-5.1c0.2-1.4,0.6-2.7,0.9-4.1c0-0.1,0.2-0.2,0.4-0.3c0,0,0.1,0,0.2,0				c1.8,0.1,1.4-0.2,1.6,1.5c0.6,4.9,1,9.9,1.1,14.9c0.2,5.4,0.5,10.9,0.8,16.3c0.2,4.1,0.3,8.2,0.5,12.2c0.2,5.2,0.4,10.4,0.6,15.5				c0.2,3.8,0.3,7.7,0.5,11.5c0.2,4.4,0.5,8.7,0.7,13.1c0.2,3.4,0.4,6.8,0.7,10.2c0.2,3.6,0.6,7.2,1.3,10.7c0.1,0.7,0.5,1.3,0.8,2				c-0.4,0.2-1.1,0.1-0.9,0.9c-0.3,0-0.6,0-0.9,0c-6.7,0-13.4,0-20.1,0c-4.8,0-9.7,0-14.5,0c-3.8,0-7.5,0-11.3,0				c-8.6,0-17.1,0-25.7,0c-8.4,0-16.8,0-25.2,0c-12.1,0-24.3,0-36.4,0c-1.2,0-1.2,0-1.6,1.1c0,0.1-0.1,0.2-0.2,0.3				c-0.1-0.2-0.3-0.3-0.4-0.5c-0.4-0.9-1-1-1.9-1c-6.3,0.1-12.5,0-18.8,0.1c-0.5,0-1.1-0.1-1.6,0c-0.4,0-0.8,0.2-1.2,0.3				c-0.5-0.1-1.1-0.2-1.6-0.2c-13.6,0-27.2,0-40.8,0c-11.3,0-22.5,0-33.8,0c-0.2,0-0.5,0-0.7,0c-0.2-0.6,0.1-1.6-0.9-1.4				c0.1-1,0.1-2,0.2-3c0.5,0,0.5-0.5,0.6-1c0.4-3.7,0.9-7.3,1.2-11c0.4-3.7,0.7-7.5,1-11.2c0.2-3,0.4-6,0.7-9.1				c0.4-4.3,0.7-8.5,1.1-12.8c0.1-1.6,0.3-3.1,0.5-4.7c0.2-1.2,0.5-2.3,0.9-3.4c0.3-0.6,1.1-0.2,1.7-0.2c0.2,0,0.4,0.2,0.5,0.4				c0.6,1.8,1,3.7,1.1,5.7c0.2,2.9,0.6,5.7,0.8,8.6c0.3,3.1,0.5,6.2,0.7,9.2c0.2,3.1,0.5,6.2,0.7,9.2c0.1,1.3,0.2,2.7,0.4,4				c0.1-1.1,0.2-2.2,0.2-3.4c0.2-3.6,0.4-7.1,0.5-10.7c0.2-3.9,0.4-7.7,0.6-11.6c0.2-3.5,0.3-7,0.4-10.5c0.2-5.4,0.5-10.8,0.7-16.2				c0.2-4,0.3-8,0.6-12.1c0.2-3,0.4-5.9,0.7-8.9c0.1-1.1,0.1-2.3,0.3-3.4c0.1-0.6,0.6-1.1,0.9-1.6c0-0.1,0.3-0.1,0.4-0.1				c0.3,0,0.6,0.1,0.9,0.1c0.6,0,0.8,0.3,0.8,0.9c0.2,3,0.5,6,0.8,9c0.2,1.9,0.2,3.8,0.3,5.7c0.2,4.7,0.5,9.4,0.7,14.1				c0.2,3.2,0.3,6.5,0.4,9.7c0.2,5.4,0.5,10.8,0.7,16.2c0.2,3.9,0.4,7.8,0.5,11.7c0,1,0.1,1.9,0.3,2.9c0.1-1.3,0.2-2.6,0.3-3.8				C24,77.2,24.5,67,25,56.7c0.3-5.3,0.5-10.6,0.8-15.9c0.2-3,0.3-6,0.6-9c0.2-2,0.6-4,0.9-6c0.7,0,1.4,0,2.2,0				c0.3,1.6,0.8,3.1,0.9,4.7C31,39,31.5,47.5,32,55.9c0.4,7.2,0.7,14.5,1,21.7c0.4,7.5,0.8,15,1.4,22.6c0.3,4.7,0.9,9.5,1.3,14.2				c0,0.2,0.1,0.3,0.2,0.5c0.2-1.4,0.4-2.7,0.6-4.1c0.4-3.7,0.7-7.5,1-11.3c0.2-3,0.4-6,0.6-9c0.2-4.2,0.5-8.3,0.7-12.5				c0.2-3.5,0.4-6.9,0.6-10.4c0.2-4.2,0.4-8.4,0.7-12.5c0.3-3.9,0.6-7.8,1.1-11.6c0.1-0.6,0.6-1.1,0.9-1.7c0.1-0.1,0.4-0.1,0.6-0.1				c1.4,0.2,1.4,0.2,1.6,1.7c0.2,1.9,0.5,3.9,0.6,5.8c0.2,2.2,0.3,4.4,0.5,6.6c0.3,3.7,0.5,7.5,0.7,11.2c0.2,2.9,0.3,5.9,0.5,8.8				c0.2,3.1,0.5,6.3,0.7,9.4c0,0.6,0.1,1.2,0.3,1.8c0.1-1.7,0.3-3.4,0.4-5c0.3-3.8,0.6-7.7,0.8-11.5c0.2-2.7,0.3-5.4,0.6-8				c0.4-4.4,0.5-8.9,1.5-13.3c0.1-0.5,0.3-0.7,0.8-0.7c1.4,0,1.3,0,1.8,1.3c0.8,2.3,0.7,4.6,0.9,7c0.3,4.1,0.6,8.1,0.9,12.2				c0.2,3.2,0.4,6.5,0.6,9.7c0.2,3.8,0.5,7.6,0.7,11.4c0.2,3.3,0.4,6.6,0.7,9.9c0.1,1.6,0.2,3.3,0.5,4.9c0.1-1.1,0.2-2.2,0.3-3.3				c0.4-5.4,0.8-10.8,1.1-16.2c0.3-4,0.4-8,0.7-12c0.3-4.2,0.6-8.4,0.8-12.7c0.1-2,0.2-3.9,0.4-5.9c0.2-2,0.6-4,0.9-6				c0-0.1,0-0.1,0-0.2c0.3-0.4,2-0.2,2.2,0.2c0.8,1.2,0.8,2.5,1,3.9c0.3,3.8,0.7,7.7,1,11.5c0.2,2.8,0.4,5.7,0.6,8.5				c0.2,3.9,0.5,7.9,0.7,11.8c0,0.6,0.1,1.2,0.2,1.8c0.1-1.2,0.2-2.4,0.2-3.7c0.3-6.4,0.6-12.9,0.9-19.3c0.3-6.8,0.8-13.6,1.1-20.4				c0.2-4.5,0.8-8.9,1.3-13.4c0-0.2,0.1-0.3,0.1-0.6c0.9,0.7,1.8,1.3,2.6,1.9c0.1,0.1,0.2,0.3,0.2,0.4c0.4,5.2,0.9,10.5,1.3,15.7				c0.4,5.7,0.7,11.4,1,17.1c0.2,4.4,0.4,8.8,0.7,13.1c0.4,6.4,0.7,12.8,1.1,19.2c0.2,2.9,0.4,5.7,0.6,8.6c0,0.1,0,0.2,0.2,0.4				c0.1-0.8,0.2-1.6,0.2-2.4c0.2-3,0.4-5.9,0.5-8.9c0.2-3.3,0.4-6.5,0.6-9.8c0.1-2.1,0.2-4.1,0.3-6.2c0.2-4,0.4-7.9,0.6-11.9				c0.1-2,0.2-4.1,0.3-6.2c0.2-4.9,0.5-9.9,0.7-14.8c0.2-3.6,0.4-7.2,0.7-10.8c0.2-2.2,0.6-4.4,0.9-6.7c0.7,0,1.2,0,1.7,0				c0.1,0,0.4,0.2,0.4,0.4c0.5,2,0.9,4.1,1,6.2c0.1,2.7,0.4,5.4,0.6,8c0.1,1.5,0.2,2.9,0.3,4.4c0.3,4.7,0.5,9.5,0.8,14.2				c0.2,3,0.3,6,0.4,9c0.2,4.8,0.5,9.5,0.7,14.3c0.1,1,0.1,1.9,0.3,2.9c0.1-1.3,0.2-2.6,0.2-3.9c0.3-5.3,0.5-10.7,0.8-16				c0.4-7.1,0.9-14.2,1.4-21.3c0.1-1.9,0.3-3.8,0.5-5.8c0.2-1.2,0.5-2.3,0.9-3.5c0-0.1,0.2-0.3,0.4-0.3c0.6,0,1.1,0,1.8,0				c0.3,1.6,0.6,3.1,0.8,4.6c0.3,2.4,0.5,4.8,0.6,7.3c0.4,5.6,0.8,11.3,1.1,16.9c0.3,4.7,0.5,9.4,0.8,14.1c0.3,5.1,0.6,10.2,1,15.3				c0.3,4.7,0.8,9.4,1.2,14c0,0.5,0.1,1,0.3,1.5c0.1-1,0.2-2.1,0.3-3.1c0.3-4.1,0.5-8.1,0.7-12.2c0.2-2.9,0.3-5.8,0.4-8.8				c0.2-4.5,0.4-9.1,0.6-13.6c0.2-3.8,0.3-7.7,0.4-11.5c0.2-5.6,0.4-11.1,0.6-16.7c0.2-5,0.3-10.1,0.6-15.1				c0.2-5.2,0.5-10.4,0.7-15.5c0.1-3,0.3-6,0.5-8.9c0.1-1.6,0.6-3.2,0.9-4.8c0.7,0,1.4,0,2.1,0c0.2,1.6,0.3,3.2,0.5,4.8				c0.8,7.1,0.8,14.2,1.1,21.2c0.4,8.1,0.6,16.3,0.9,24.4c0.3,8.6,0.6,17.1,1,25.7c0.3,7.2,0.6,14.4,0.9,21.6c0,0.8,0.1,1.5,0.2,2.3				c0.1-1.7,0.3-3.4,0.4-5c0.3-4.9,0.6-9.8,0.9-14.6c0.2-3.6,0.4-7.3,0.5-10.9c0.2-4.5,0.5-9,0.7-13.6c0.2-3.5,0.4-7,0.7-10.5				c0.2-2.3,0.6-4.6,0.9-7c0.7,0,1.3,0,1.9,0c0.1,0,0.3,0.2,0.4,0.4c0.6,1.4,0.9,2.8,1,4.4c0.2,3.1,0.5,6.2,0.7,9.3				c0.2,2.6,0.3,5.1,0.4,7.7c0.2,3.5,0.4,7.1,0.6,10.6c0.2,3.6,0.4,7.1,0.6,10.7c0.2,4,0.5,8,0.7,12c0.1,2.2,0.3,4.5,0.4,6.7				c0.2,2.8,0.5,5.6,0.7,8.5c0,0.4,0.1,0.8,0.1,1.3c0,0,0.1,0,0.1,0c0.1-0.8,0.2-1.6,0.2-2.4c0.4-5.5,0.8-11,1-16.5				c0.4-8.4,0.8-16.7,1.2-25.1c0.3-5.4,0.4-10.8,0.7-16.2c0.3-5.3,0.6-10.6,0.8-15.9c0.2-3.9,0.6-7.7,1.1-11.6				c0-0.3,0.1-0.5,0.1-0.8c0.1,0,0.1-0.1,0.1-0.1c1.9-0.2,1.9-0.2,2.4,1.6c0.5,1.6,0.6,3.2,0.7,4.9c0.6,9.6,1.1,19.1,1.6,28.7				c0.3,6.4,0.5,12.8,0.8,19.2c0.3,5.6,0.6,11.2,0.9,16.8C138.1,92.5,138.1,92.6,138.2,92.8C138.1,92.8,138.1,92.8,138.2,92.8z				 M56.5,111.4c-0.3-1.9-0.6-3.9-0.9-5.9c-0.2-1.8-0.3-3.6-0.4-5.4c-0.2-3.4-0.5-6.8-0.7-10.2c-0.2-3-0.4-6-0.6-9				c-0.3-4.7-0.6-9.5-0.8-14.2c-0.2-3.2-0.4-6.5-0.7-9.7c-0.1-0.7-0.1-1.5-0.2-2.2c-0.4,2.8-0.6,5.6-0.8,8.4				c-0.2,2.7-0.4,5.4-0.6,8.1c-0.3,3.8-0.5,7.6-0.9,11.5c-0.3,3.2-0.4,6.4-1.2,9.5c-0.3,1.4-0.3,1.4-1.7,1.4c-0.5,0-0.6-0.2-0.8-0.6				c-0.9-3.1-1-6.3-1.3-9.4c-0.3-3.2-0.5-6.4-0.7-9.6c-0.3-4.3-0.6-8.7-0.8-13c-0.2-3.5-0.4-7.1-0.7-10.6c0-0.6-0.1-1.2-0.2-1.8				c-0.1,0.1-0.2,0.1-0.2,0.2c-0.3,4.5-0.6,9-0.9,13.5c-0.2,3.2-0.4,6.5-0.5,9.7c-0.2,4.5-0.5,9-0.7,13.5c-0.2,3-0.3,6-0.6,8.9				c-0.3,3.8-0.5,7.6-0.9,11.3c-0.2,2.7-0.5,5.3-0.8,8c-0.1,1.2-0.3,2.5-0.5,3.6c0.3,0.2,0.7,0.3,0.9,0.5c0.8,0.8,1.8,0.9,2.9,0.9				c7.6,0,15.2,0,22.7,0c0.2,0,0.5,0,0.8,0c0.3-1.6,0.6-3.2,0.8-4.8c0.3-2.4,0.5-4.8,0.7-7.1c0.1-1.6,0.3-3.3,0.2-4.9				c-0.2-4.3-0.6-8.6-0.9-12.9c-0.4-5.6-0.7-11.2-1-16.9c-0.3-5-0.7-10-1-15c-0.1-0.9-0.2-1.8-0.3-2.8c-0.1,0.2-0.2,0.4-0.2,0.6				c-0.1,1.9-0.3,3.8-0.4,5.7c-0.2,3.5-0.5,7-0.7,10.5c-0.3,4.1-0.5,8.3-0.7,12.4c-0.2,3-0.3,6-0.6,8.9c-0.3,3.7-0.5,7.4-0.9,11.1				c-0.2,2.1-0.2,4.2-0.8,6.3c-0.6,1.8-0.5,1.8-2.4,1.5C56.6,111.5,56.6,111.4,56.5,111.4z M225.8,96.8c-0.6,0-1.1,0.1-1.6,0.1				c-0.2,0-0.4-0.2-0.5-0.3c-0.5-1.9-0.9-3.8-1-5.8c-0.2-3.3-0.5-6.5-0.7-9.7c-0.2-3.8-0.4-7.5-0.6-11.3c-0.1-2.8-0.3-5.6-0.4-8.4				c-0.2-3.6-0.4-7.2-0.6-10.8c-0.1-2.1-0.3-4.2-0.4-6.3c-0.1-0.7-0.2-1.5-0.2-2.2c-0.1,0.1-0.2,0.2-0.2,0.2				c-0.2,2.3-0.4,4.6-0.5,6.9c-0.2,3.3-0.4,6.5-0.5,9.8c-0.2,4.3-0.4,8.6-0.6,12.9c-0.1,2-0.2,3.9-0.3,5.9				c-0.2,3.5-0.4,7.1-0.6,10.6c-0.1,2.4-0.3,4.8-0.4,7.2c-0.2,2.8-0.4,5.6-0.6,8.4c-0.1,1.4-0.2,2.8-0.3,4.2				c-0.1,1.2-0.4,2.5-0.3,3.7c0.2,2.1,0.7,4.2,1.1,6.3c0.7,0,1.2,0,1.8,0c0.8,0,1.6-0.1,2.3,0.5c0.1,0.1,0.4,0.1,0.7,0.1				c4.3-0.1,8.5-0.1,12.8-0.2c0.6,0,1.3,0,2,0c-0.2-0.5-0.4-0.7-0.4-1.1c-0.3-2-0.7-4.1-0.9-6.1c-0.2-1.8-0.3-3.7-0.4-5.5				c-0.2-2.7-0.4-5.4-0.6-8.2c-0.2-2.7-0.3-5.5-0.4-8.2c-0.2-4-0.4-8-0.6-12c-0.1-2.5-0.2-4.9-0.3-7.4c-0.2-4.5-0.4-9-0.6-13.4				c-0.1-2.7-0.2-5.4-0.3-8.1c-0.2-5.2-0.5-10.4-0.7-15.5c-0.1-3-0.3-6-0.4-8.9c-0.1-1.3-0.2-2.7-0.2-4c-0.1,0.1-0.2,0.2-0.2,0.3				c-0.2,2.6-0.4,5.1-0.5,7.7c-0.2,3.7-0.3,7.3-0.5,11c-0.2,5-0.4,9.9-0.6,14.9c-0.2,4-0.3,8.1-0.5,12.1c-0.2,4.5-0.4,8.9-0.6,13.4				c-0.2,4.1-0.5,8.2-0.8,12.3C226.3,93.4,226,95.1,225.8,96.8z M108.7,10.4C108.7,10.4,108.6,10.4,108.7,10.4				c-0.2,1.9-0.3,3.8-0.4,5.7c-0.2,4.5-0.4,9-0.6,13.5c-0.2,3.9-0.3,7.7-0.4,11.6c-0.2,5.3-0.4,10.6-0.6,15.9				c-0.2,4.3-0.3,8.6-0.5,12.9c-0.2,4.5-0.4,9-0.6,13.5c-0.2,3.8-0.3,7.6-0.5,11.4c-0.3,5-0.6,9.9-1,14.9c-0.2,2.5-0.6,5-0.9,7.5				c0,0.1,0,0.3,0,0.4c0.5,0.3,1.1,0.9,1.6,0.9c6.5,0.1,13,0,19.6,0c0.6,0,0.8-0.3,0.7-0.9c-0.1-0.4-0.2-0.8-0.2-1.2				c-0.8-4.3-1.1-8.7-1.5-13.1c-0.2-2.6-0.4-5.3-0.6-7.9c-0.2-3.9-0.5-7.8-0.7-11.7c-0.2-3.5-0.4-7.1-0.6-10.6				c-0.2-4.3-0.5-8.5-0.7-12.8c-0.3-4.2-0.5-8.4-0.8-12.7c0-0.6-0.1-1.2-0.2-1.8c-0.2,0.3-0.2,0.6-0.2,0.9c-0.1,2.4-0.3,4.7-0.4,7.1				c-0.2,4.4-0.5,8.7-0.7,13.1c-0.2,3-0.3,6.1-0.5,9.1c-0.2,3.4-0.4,6.8-0.6,10.2c-0.1,2.5-0.3,5.1-0.4,7.6				c-0.2,3.3-0.5,6.5-0.7,9.8c-0.1,1.6,0,3.2-1,4.6c-0.1,0.2-0.3,0.4-0.4,0.4c-0.6,0-1.2-0.1-1.9-0.1c-0.3-3-0.7-6-0.9-9.1				c-0.3-5.2-0.5-10.4-0.8-15.7c-0.3-6.5-0.5-12.9-0.8-19.4c-0.3-8.2-0.6-16.5-0.9-24.8c-0.3-8.9-0.7-17.8-1.1-26.7				C108.8,12.4,108.7,11.4,108.7,10.4z M186.7,9.7C186.6,9.7,186.6,9.7,186.7,9.7c-0.1,0.1-0.1,0.2-0.2,0.3				c-0.1,1.8-0.2,3.6-0.2,5.3c-0.3,6.6-0.6,13.2-0.8,19.9c-0.2,5.2-0.4,10.5-0.6,15.7c-0.3,7.6-0.5,15.2-0.9,22.8				c-0.2,5.3-0.4,10.6-0.7,15.9c-0.3,4.6-0.1,9.2,0.3,13.8c0.3,2.9,0.5,5.8,0.8,8.7c0.2,2,0.7,4,1,6c0.1,0.5,0.4,0.6,0.8,0.6				c0.5,0,1.1,0,1.7,0c0.5,0,1-0.1,1.4-0.5c0.8-1,2.2-0.7,3.1-1.5c0.1-0.1,0.3,0,0.4,0c0.9-0.1,1.7,0.1,2.4,0.7				c0.4,0.3,0.8,0.6,1.2,0.8c0.4,0.2,0.8,0.4,1.1,0.4c1.2,0,2.5,0,3.7,0c0.9,0,1.6-0.1,2.2-0.7c0.3-0.3,0.6-0.6,0.9-1				c0.7-1.1,1.5-2.2,2.7-2.9c0.2-0.1,0.5-0.2,0.6-0.1c1,0.8,2.3,1.4,3,2.5c0.4,0.7,0.9,1.3,1.4,2c0.6-1.2,1.3-4.9,1.1-6.6				c-0.5-3.9-1-7.8-1.5-11.7c-0.5-4.4-0.9-8.8-1.4-13.2c-0.2-2.3-0.6-4.6-0.9-6.9c-0.1,0-0.1,0-0.2,0c0,0.2-0.1,0.4-0.1,0.7				c-0.4,3-0.7,5.9-1.1,8.9c-0.5,4.3-0.9,8.7-1.4,13c-0.4,3.7-0.8,7.5-2,11c-0.2,0.6-0.4,1.3-0.6,2c-0.8-1.2-1.5-2.2-2.3-3.3				c-0.1-0.1-0.1-0.3-0.1-0.5c-0.3-2.1-0.7-4.2-1-6.3c-0.8-6.5-1.6-13-2.3-19.5c-0.1-0.4-0.1-0.9-0.2-1.3c-0.1,0-0.1,0-0.2,0				c-0.4,3.4-0.8,6.9-1.2,10.3c-0.7,5.6-1.4,11.3-2.1,16.9c0,0.2-0.1,0.4-0.2,0.5c-0.9,0.6-1.7,1.3-2.7,1.9				c-0.1-0.7-0.2-1.3-0.2-1.9c-0.4-4.4-0.9-8.8-1.2-13.2c-0.4-5.3-0.6-10.7-0.8-16c-0.3-6.7-0.6-13.5-0.8-20.2				c-0.3-6.6-0.4-13.2-0.7-19.7c-0.3-8.8-0.7-17.6-1.1-26.5C187,14.5,186.8,12.1,186.7,9.7z M153.6,32.7				C153.6,32.7,153.6,32.7,153.6,32.7c-0.1,0.5-0.2,1-0.2,1.6c-0.1,1.6-0.2,3.2-0.3,4.8c-0.3,6.1-0.7,12.3-1,18.4				c-0.2,4.9-0.4,9.9-0.7,14.8c-0.3,6.4-0.6,12.7-1,19.1c-0.2,3.8-0.5,7.6-0.7,11.4c-0.1,1.4-0.2,2.8-0.1,4.1				c0.2,2.6,0.5,5.2,0.8,7.8c0.2,1.2,0.5,2.4,0.8,3.6c0.2,0.6,0.7,0.8,1.2,0.3c0.5-0.4,0.9-0.4,1.5-0.4c0.8,0,1.5,0,2.3,0				c0.2,0,0.4,0.1,0.6,0.1c0.2,0,0.5,0,0.7-0.1c0.5-0.2,0.9-0.5,1.3-0.7c0.3-0.2,0.7-0.2,1.1-0.4c0.3-0.2,0.6-0.4,0.9-0.6				c0.7,0.5,1.4,1.1,2.4,1.1c0.3,0,0.6,0.1,0.8-0.1c0.5-0.5,1.2-0.7,1.9-0.6c0.4,0,0.7,0,1.1,0c0.4,0.1,0.9,0.2,1.2,0.4				c0.6,0.4,1.2,0.9,1.9,1.3c0.5-0.7,0.7-1.4,0.6-2.2c-0.4-2.2-0.8-4.4-1-6.6c-0.5-5-1-10-1.5-15c-0.3-3.5-0.5-7-0.8-10.4				c-0.4-4.4-0.7-8.7-1.1-13.1c-0.2-1.9-0.4-3.8-0.7-5.6c-0.1,0.1-0.2,0.2-0.2,0.3c-0.3,2.5-0.6,5.1-0.8,7.6				c-0.3,4.1-0.6,8.2-0.9,12.3c-0.4,5.3-0.9,10.6-1.4,15.9c-0.2,2.5-0.6,5-1.2,7.4c0,0.2-0.2,0.4-0.3,0.4c-0.6,0-1.1,0-1.7,0				c-0.1,0-0.3-0.2-0.3-0.3c-0.3-1.5-0.8-2.9-0.9-4.4c-0.5-6.3-1-12.7-1.4-19c-0.4-6.2-0.6-12.4-0.9-18.6				c-0.5-8.9-0.9-17.9-1.4-26.8C154.1,37.9,153.8,35.3,153.6,32.7z M18,29.4c0,0-0.1,0-0.1,0c0,0.1,0,0.2-0.1,0.3				c-0.1,1.8-0.3,3.5-0.4,5.3c-0.3,5.1-0.5,10.2-0.7,15.3c-0.1,3.2-0.3,6.4-0.4,9.6c-0.2,5.6-0.5,11.2-0.7,16.9				c-0.1,2.9-0.3,5.8-0.4,8.7c-0.2,4.3-0.5,8.6-0.7,12.9c-0.2,2.9-0.4,5.9-0.6,8.8c-0.1,1.4-0.5,2.8-0.3,4.2				c0.2,2.2,0.7,4.4,1.1,6.6c0.1,0.5,0.4,0.7,0.9,0.7c1.3,0,2.7,0,4,0c1,0,1.3-0.3,1.4-1.2c0.1-1,0.3-2,0.4-3				c0.3-2.6,0.6-5.1,0.7-7.7c0-2.6-0.3-5.1-0.5-7.7c-0.2-4-0.5-7.9-0.7-11.9c-0.2-4-0.4-8-0.6-12c-0.2-5.3-0.5-10.7-0.7-16				c-0.1-3.3-0.3-6.6-0.4-10c-0.2-4.6-0.5-9.2-0.7-13.8C18.3,33.4,18.2,31.4,18,29.4z M34.2,118.2c0-0.3,0.1-0.3,0.1-0.3				c-0.9-3.4-1.1-6.9-1.4-10.4c-0.6-7.1-1-14.1-1.4-21.2c-0.4-7.7-0.8-15.4-1.2-23.1c-0.5-8.7-0.9-17.5-1.4-26.2				c-0.1-1.2-0.2-2.4-0.3-3.6c-0.2,2-0.4,4-0.5,6.1c-0.4,7.1-0.8,14.3-1.1,21.4c-0.2,4.7-0.4,9.4-0.7,14.1c-0.3,6.1-0.6,12.2-1,18.3				c-0.2,3.6-0.5,7.2-0.7,10.8c-0.1,1.3-0.3,2.6-0.2,3.9c0.2,3.3,0.5,6.6,1.2,9.8c0.2,0.9,0.4,1.1,1.3,1c0.2,0,0.4-0.1,0.6-0.3				c0.6-0.4,1.1-0.8,1.6-1.2c0.8-0.7,1.7-0.4,2.5-0.4C32.2,117.7,33.6,117.1,34.2,118.2z M132.7,29.4c0,0-0.1,0-0.1,0				c0,0.5-0.1,1.1-0.1,1.6c-0.3,5.2-0.6,10.3-0.8,15.5c-0.2,4.3-0.4,8.6-0.6,12.9c-0.3,6.3-0.6,12.6-0.9,18.8				c-0.2,4.5-0.4,9-0.7,13.4c-0.3,5.6-0.7,11.1-1.1,16.7c-0.2,2.2-0.4,4.3-0.6,6.5c-0.1,0.9-0.3,1.7-0.5,2.8				c0.9-0.7,1.7-1.2,2.5-1.8c0.6-0.4,2-0.4,2.5,0c1,0.7,2.1,1.3,2.7,2.5c0,0.1,0.1,0.1,0.3,0.3c0.2-0.5,0.6-0.8,0.7-1.3				c0.2-0.7,0.2-1.5,0.3-2.2c0.2-2.2,0.6-4.5,0.6-6.7c0-2.9-0.4-5.8-0.6-8.7c-0.4-7.4-0.9-14.7-1.2-22.1c-0.3-6.3-0.5-12.6-0.8-18.8				c-0.4-8-0.8-16.1-1.2-24.1C133,32.8,132.9,31.1,132.7,29.4z M143.5,31.9c-0.1,0-0.1,0-0.2,0c-0.1,0.7-0.1,1.5-0.2,2.2				c-0.2,3-0.4,6-0.5,8.9c-0.2,4.1-0.4,8.2-0.6,12.4c-0.1,3.1-0.3,6.2-0.4,9.3c-0.2,4.6-0.4,9.2-0.6,13.8c-0.1,1.8-0.2,3.6-0.3,5.5				c-0.2,3.7-0.4,7.4-0.6,11.1c-0.1,2.2-0.3,4.4-0.5,6.6c-0.1,2-0.4,4.1-0.4,6.1c0.1,2.8,0.5,5.5,0.8,8.3c0.1,0.5,0.2,1.3,0.6,1.5				c0.8,0.5,1.8,0.8,2.7,1.2c0.1,0,0.1,0,0.2,0c0.4,0,0.8,0,1.2,0c1,0,1.3-0.3,1.5-1.3c0.3-2.7,0.7-5.3,1-8c0.2-2.1,0.4-4.3,0.2-6.5				c-0.3-3.5-0.5-7.1-0.7-10.6c-0.2-2.6-0.3-5.2-0.4-7.9c-0.2-3.9-0.4-7.8-0.6-11.7c-0.2-3.2-0.3-6.4-0.4-9.6				c-0.2-4.3-0.4-8.6-0.6-12.9c-0.1-2-0.2-4.1-0.3-6.1c-0.2-3.1-0.4-6.2-0.6-9.2C143.6,33.9,143.5,32.9,143.5,31.9z M80.4,116.3				c0.4-0.1,0.8-0.2,1.1-0.2c0.8,0,1.7,0,2.5,0c0.3,0,0.7,0.1,1,0.3c0.8,0.5,1.5,1.1,2.3,1.7c0.1-0.4,0.3-0.7,0.3-1.1				c0.3-2.7,0.7-5.3,1-8c0.2-1.9,0.4-3.9,0.4-5.8c0-2.5-0.3-4.9-0.5-7.4c-0.2-3.3-0.4-6.5-0.6-9.8c-0.2-2.8-0.3-5.7-0.4-8.5				c-0.2-4.1-0.4-8.2-0.6-12.2c-0.1-2.9-0.3-5.7-0.4-8.6c-0.2-3.5-0.4-7.1-0.6-10.6c-0.2-2.8-0.4-5.6-0.5-8.4				c-0.1-0.9-0.2-1.7-0.2-2.6c-0.1,0.1-0.2,0.3-0.2,0.4c-0.2,3.5-0.5,6.9-0.6,10.4c-0.2,4.2-0.4,8.4-0.6,12.6				c-0.1,1.9-0.2,3.8-0.3,5.8c-0.2,4.1-0.4,8.3-0.6,12.4c-0.1,1.9-0.2,3.8-0.3,5.8c-0.2,3.7-0.4,7.3-0.6,11c-0.1,1.7-0.2,3.3-0.3,5				c-0.2,2.5-0.4,5-0.6,7.5c-0.2,2.5-0.5,4.9-0.7,7.4C80.1,114.3,80,115.3,80.4,116.3z M77.5,118c0.1,0,0.1,0,0.2,0				c0.1-1.1,0.4-2.2,0.3-3.2c-0.4-3.6-1-7.2-1.3-10.8c-0.5-5.3-0.8-10.6-1.1-15.9c-0.5-8.5-0.9-17-1.4-25.5				c-0.4-7.5-0.9-14.9-1.3-22.4c-0.1-1-0.2-2.1-0.3-3.1c-0.2,0.2-0.2,0.5-0.2,0.7c-0.1,1.6-0.2,3.2-0.3,4.8				c-0.3,5-0.6,10.1-0.8,15.1c-0.2,4.1-0.4,8.1-0.6,12.2c-0.3,5.5-0.5,10.9-0.8,16.4c-0.2,3.9-0.5,7.9-0.7,11.8				c-0.1,1.7-0.4,3.5-0.3,5.2c0.2,3.4,0.6,6.7,1,10c0.1,0.7,0.2,1.3,0.3,2c0.5-0.3,0.8-0.8,1.3-0.9c0.7-0.1,1.6-0.3,2.3,0				c0.6,0.2,1.1,0.9,1.6,1.4C76.1,116.6,76.8,117.3,77.5,118z M96.9,111.1c1.8,1.2,1.8,1.2,2.4,2.6c0.3,0.5,0.6,1.1,0.8,1.6				c0,0,0.1,0,0.1-0.1c0-0.2,0-0.4-0.1-0.6c-0.4-2.9-0.8-5.7-1-8.6c-0.5-6.1-1-12.2-1.4-18.4c-0.5-8-0.9-15.9-1.4-23.9				c-0.4-6-0.8-12-1.2-17.9c-0.1-0.9-0.2-1.8-0.2-2.7c-0.3,2.6-0.6,5.3-0.8,7.9c-0.3,4.1-0.5,8.1-0.7,12.2c-0.3,6.2-0.6,12.4-1,18.6				c-0.3,4.5-0.5,9-0.8,13.6c-0.2,2.7-0.5,5.3-0.5,8c-0.1,3.8,0.6,7.6,1,11.4c0.1,0.6,0.2,1.3,0.3,1.9c0.7-0.9,1.3-1.8,1.7-2.7				C94.8,112.7,95.7,111.8,96.9,111.1z M178.1,45c-0.1,0-0.1,0-0.2,0c0,0.2-0.1,0.4-0.1,0.7c-0.2,3.3-0.5,6.6-0.7,9.9				c-0.3,5-0.6,10.1-0.9,15.1c-0.2,4.5-0.4,9.1-0.7,13.6c-0.4,6.8-0.8,13.6-1.4,20.5c-0.3,3.8-0.8,7.6-1.2,11.4				c-0.1,0.9,0.3,1.7,0.8,2.4c0.1,0.2,0.4,0.2,0.6,0.2c1.3,0,2.7,0,4,0c0.4,0,0.7-0.2,0.7-0.6c0.3-2.1,0.6-4.3,0.8-6.4				c0.3-3.2,0.4-6.4,0.7-9.6c0.4-4.2,0.3-8.4,0.1-12.6c-0.3-4-0.5-8.1-0.7-12.1c-0.2-3.8-0.4-7.5-0.6-11.3c-0.3-5.7-0.7-11.4-1-17				C178.3,47.7,178.2,46.3,178.1,45z M2.5,118.4c0.1,0,0.1,0,0.2,0.1c0.6-0.4,1.2-0.9,1.8-1.3c0.2-0.1,0.4-0.3,0.7-0.3				c0.8,0,1.7-0.2,2.5,0.5c0.1,0.1,0.3,0.1,0.4,0.1c0.6-0.1,1,0.2,1.4,0.5c0.2,0.2,0.5,0.3,0.9,0.6c0.3-1.3,0.6-2.4,0.7-3.5				c0.2-1.3,0.4-2.7,0.3-4c-0.1-2.4-0.5-4.7-0.8-7.1c-0.3-3.6-0.7-7.2-1-10.8C9.2,89.6,9,86,8.7,82.4C8.4,78.2,8,73.9,7.6,69.7				c-0.1-0.6-0.2-1.2-0.2-1.9c-0.1,0-0.1,0-0.2,0c-0.3,2.7-0.6,5.4-0.8,8.1c-0.3,3.6-0.6,7.2-0.9,10.8c-0.3,3.6-0.5,7.2-0.8,10.8				c-0.3,3.8-0.7,7.7-1.1,11.5c-0.3,2.6-0.8,5.1-1.1,7.6C2.4,117.2,2.5,117.8,2.5,118.4z M96.9,113.4c-1,1.8-1.9,3.5-2.9,5.4				c0.6,0,1,0,1.4,0c0.4,0,0.9,0,1.3-0.2c0.5-0.2,0.9-0.5,1.4-0.5c0.8,0,1.1-0.6,0.7-1.3C98.2,115.7,97.5,114.6,96.9,113.4z				 M183.4,118.7c-0.4-2.7-0.9-5.3-1.3-8c-0.3,2.7-0.7,5.3-1,8C181.9,118.7,182.7,118.7,183.4,118.7z M75.7,118.7				c-1-1.1-1.8-2.1-2.7-3.1c-0.4-0.4-0.7-0.1-0.9,0.2c-0.4,0.6-0.8,1.2-1.2,1.8c-0.2,0.4,0.1,1.1,0.4,1.1				C72.7,118.7,74.1,118.7,75.7,118.7z M210,118.7c-0.9-1.1-1.3-2.3-2.6-2.9c-0.7,1-1.3,1.9-2,2.9				C206.9,118.7,208.4,118.7,210,118.7z M128.7,118.5c0,0,0.1,0.1,0.1,0.1c1.4,0,2.9,0,4.3,0c-0.3-0.9-1.1-1.3-1.8-1.8				c-0.1,0-0.2,0-0.3,0C130.2,117.4,129.4,118,128.7,118.5z M85.3,118.7c-0.5-0.4-0.9-0.7-1.2-0.9c-0.8-0.6-2.2-0.5-2.9,0.1				c-0.1,0.1-0.2,0.3-0.2,0.5c0,0.1,0.2,0.3,0.4,0.3C82.7,118.7,83.9,118.7,85.3,118.7z M67.9,114.1c0,0-0.1,0-0.1,0				c-0.3,1.5-0.5,3.1-0.8,4.6c0.1,0,0.1,0.1,0.2,0.1c0.3-0.2,0.7-0.4,1-0.7c0.1-0.1,0.3-0.4,0.2-0.6				C68.3,116.3,68.1,115.2,67.9,114.1z M91,118.7c-0.3-1.3-0.6-2.7-0.9-4c-0.2,1.3-0.5,2.6-0.7,4C89.8,118.7,90.4,118.7,91,118.7z				 M148.5,115.8c-0.2,1-0.3,2-0.5,2.9c0.4,0,0.8,0,1.2,0C149,117.8,148.8,116.9,148.5,115.8z M167.5,118.7c-0.9-0.9-1.5-0.9-2.3,0				C165.9,118.7,166.7,118.7,167.5,118.7z M23.6,118.7c-0.1-0.6-0.2-1.1-0.3-1.6c0,0-0.1,0-0.1,0c-0.1,0.5-0.2,1.1-0.4,1.6				c0.1,0,0.2,0,0.4,0C23.3,118.7,23.5,118.7,23.6,118.7z M31.4,118.7c-0.8-0.7-0.8-0.7-1.4,0C30.4,118.7,30.8,118.7,31.4,118.7z				 M192.6,118.7c0.5,0,0.9,0,1.3,0C193.3,118.1,193.3,118.1,192.6,118.7z"/>		</g>	</g>	<g>		<path fill="#FFFFFF" d="M11,138c-0.8,0.9-1.8,1.2-3,1.2c-1.1,0-2.1-0.4-2.8-1.1c-1.1-1.1-1-2.2-1-4.3c0-2.1,0-3.3,1-4.3			c0.7-0.7,1.7-1.1,2.8-1.1c2.3,0,3.6,1.5,3.9,3.3h-1.6c-0.3-1.2-1.1-1.9-2.3-1.9c-0.6,0-1.2,0.3-1.6,0.7c-0.5,0.6-0.6,1.2-0.6,3.3			c0,2.2,0.1,2.8,0.6,3.3c0.4,0.4,0.9,0.6,1.6,0.6c0.7,0,1.3-0.3,1.7-0.8c0.4-0.5,0.5-1,0.5-1.7v-0.6H8v-1.4h3.9v1.6			C11.9,136.4,11.7,137.3,11,138z"/>		<path fill="#FFFFFF" d="M21.5,139.2l-0.7-2.2h-4.2l-0.7,2.2h-1.7l3.9-10.7h1.3l3.9,10.7H21.5z M18.7,130.9l-1.7,4.8h3.3			L18.7,130.9z"/>		<path fill="#FFFFFF" d="M28.6,129.9v9.3H27v-9.3h-3v-1.5h7.5v1.5H28.6z"/>		<path fill="#FFFFFF" d="M45.5,139.2l-0.7-2.2h-4.2l-0.7,2.2h-1.7l3.9-10.7h1.3l3.9,10.7H45.5z M42.7,130.9l-1.7,4.8h3.3			L42.7,130.9z"/>		<path fill="#FFFFFF" d="M56.1,139.2l-0.7-2.2h-4.2l-0.7,2.2h-1.7l3.9-10.7h1.3l3.9,10.7H56.1z M53.3,130.9l-1.7,4.8h3.3			L53.3,130.9z"/>		<path fill="#FFFFFF" d="M66.7,139.2l-0.7-2.2h-4.2l-0.7,2.2h-1.7l3.9-10.7h1.3l3.9,10.7H66.7z M63.9,130.9l-1.7,4.8h3.3			L63.9,130.9z"/>		<path fill="#FFFFFF" d="M73.8,129.9v9.3h-1.6v-9.3h-3v-1.5h7.5v1.5H73.8z"/>		<path fill="#FFFFFF" d="M88,139.3c-1.1,0-2.1-0.4-2.8-1.1c-1.1-1.1-1-2.2-1-4.3c0-2.1,0-3.3,1-4.3c0.7-0.7,1.7-1.1,2.8-1.1			c2,0,3.4,1.2,3.8,3.3h-1.7c-0.3-1.1-1-1.8-2.2-1.8c-0.6,0-1.2,0.2-1.6,0.6c-0.5,0.6-0.6,1.2-0.6,3.3c0,2.2,0.1,2.8,0.6,3.3			c0.4,0.4,0.9,0.6,1.6,0.6c1.2,0,1.9-0.8,2.2-1.8h1.6C91.5,138.1,90,139.3,88,139.3z"/>		<path fill="#FFFFFF" d="M98.5,129.9v9.3h-1.6v-9.3h-3v-1.5h7.5v1.5H98.5z"/>		<path fill="#FFFFFF" d="M115.7,138c-0.8,0.9-1.8,1.2-3,1.2c-1.1,0-2.1-0.4-2.8-1.1c-1.1-1.1-1-2.2-1-4.3c0-2.1,0-3.3,1-4.3			c0.7-0.7,1.7-1.1,2.8-1.1c2.3,0,3.6,1.5,3.9,3.3H115c-0.3-1.2-1.1-1.9-2.3-1.9c-0.6,0-1.2,0.3-1.6,0.7c-0.5,0.6-0.6,1.2-0.6,3.3			c0,2.2,0.1,2.8,0.6,3.3c0.4,0.4,0.9,0.6,1.6,0.6c0.7,0,1.3-0.3,1.7-0.8c0.4-0.5,0.5-1,0.5-1.7v-0.6h-2.3v-1.4h3.9v1.6			C116.6,136.4,116.4,137.3,115.7,138z"/>		<path fill="#FFFFFF" d="M126.6,138c-0.8,0.9-1.8,1.2-3,1.2c-1.1,0-2.1-0.4-2.8-1.1c-1.1-1.1-1-2.2-1-4.3c0-2.1,0-3.3,1-4.3			c0.7-0.7,1.7-1.1,2.8-1.1c2.3,0,3.6,1.5,3.9,3.3h-1.6c-0.3-1.2-1.1-1.9-2.3-1.9c-0.6,0-1.2,0.3-1.6,0.7c-0.5,0.6-0.6,1.2-0.6,3.3			c0,2.2,0.1,2.8,0.6,3.3c0.4,0.4,0.9,0.6,1.6,0.6c0.7,0,1.3-0.3,1.7-0.8c0.4-0.5,0.5-1,0.5-1.7v-0.6h-2.3v-1.4h3.9v1.6			C127.6,136.4,127.3,137.3,126.6,138z"/>		<path fill="#FFFFFF" d="M134.4,129.9v9.3h-1.6v-9.3h-3v-1.5h7.5v1.5H134.4z"/>		<path fill="#FFFFFF" d="M143.6,139.3c-1.1,0-2.1-0.4-2.8-1.1c-1.1-1.1-1-2.2-1-4.3c0-2.1,0-3.3,1-4.3c0.7-0.7,1.7-1.1,2.8-1.1			c2,0,3.4,1.2,3.8,3.3h-1.7c-0.3-1.1-1-1.8-2.2-1.8c-0.6,0-1.2,0.2-1.6,0.6c-0.5,0.6-0.6,1.2-0.6,3.3c0,2.2,0.1,2.8,0.6,3.3			c0.4,0.4,0.9,0.6,1.6,0.6c1.2,0,1.9-0.8,2.2-1.8h1.6C147,138.1,145.5,139.3,143.6,139.3z"/>		<path fill="#FFFFFF" d="M154,129.9v9.3h-1.6v-9.3h-3v-1.5h7.5v1.5H154z"/>		<path fill="#FFFFFF" d="M163.6,129.9v9.3H162v-9.3h-3v-1.5h7.5v1.5H163.6z"/>		<path fill="#FFFFFF" d="M180.5,139.2l-0.7-2.2h-4.2l-0.7,2.2h-1.7l3.9-10.7h1.3l3.9,10.7H180.5z M177.7,130.9l-1.7,4.8h3.3			L177.7,130.9z"/>		<path fill="#FFFFFF" d="M187.7,129.9v9.3H186v-9.3h-3v-1.5h7.5v1.5H187.7z"/>		<path fill="#FFFFFF" d="M197.3,129.9v9.3h-1.6v-9.3h-3v-1.5h7.5v1.5H197.3z"/>		<path fill="#FFFFFF" d="M211.6,129.9v9.3H210v-9.3h-3v-1.5h7.5v1.5H211.6z"/>		<path fill="#FFFFFF" d="M220.7,139.3c-1.1,0-2.1-0.4-2.8-1.1c-1.1-1.1-1-2.2-1-4.3c0-2.1,0-3.3,1-4.3c0.7-0.7,1.7-1.1,2.8-1.1			c2,0,3.4,1.2,3.8,3.3h-1.7c-0.3-1.1-1-1.8-2.2-1.8c-0.6,0-1.2,0.2-1.6,0.6c-0.5,0.6-0.6,1.2-0.6,3.3c0,2.2,0.1,2.8,0.6,3.3			c0.4,0.4,0.9,0.6,1.6,0.6c1.2,0,1.9-0.8,2.2-1.8h1.6C224.2,138.1,222.7,139.3,220.7,139.3z"/>		<path fill="#FFFFFF" d="M231.4,139.3c-1.1,0-2.1-0.4-2.8-1.1c-1.1-1.1-1-2.2-1-4.3c0-2.1,0-3.3,1-4.3c0.7-0.7,1.7-1.1,2.8-1.1			c2,0,3.4,1.2,3.8,3.3h-1.7c-0.3-1.1-1-1.8-2.2-1.8c-0.6,0-1.2,0.2-1.6,0.6c-0.5,0.6-0.6,1.2-0.6,3.3c0,2.2,0.1,2.8,0.6,3.3			c0.4,0.4,0.9,0.6,1.6,0.6c1.2,0,1.9-0.8,2.2-1.8h1.6C234.8,138.1,233.3,139.3,231.4,139.3z"/>	</g></g></svg>