<!-- Generator: Adobe Illustrator 17.1.0, SVG Export Plug-In  --><svg version="1.1"	 xmlns="http://www.w3.org/2000/svg" xmlns:xlink="http://www.w3.org/1999/xlink" xmlns:a="http://ns.adobe.com/AdobeSVGViewerExtensions/3.0/"	 x="0px" y="0px" width="711.6px" height="711.6px" viewBox="0 0 711.6 711.6" enable-background="new 0 0 711.6 711.6"	 xml:space="preserve"><defs></defs><g>	<g>		<defs>			<path id="SVGID_1_" d="M514.2,565.8c-13.4-13.4-13.4-35,0-48.4c13.4-13.4,35-13.4,48.4,0c13.4,13.4,13.4,35,0,48.4				c-6.7,6.7-15.4,10-24.2,10C529.6,575.8,520.9,572.5,514.2,565.8 M478.7,639.5h121.5V443.9H478.7V639.5z"/>		</defs>		<clipPath id="SVGID_2_">			<use xlink:href="#SVGID_1_"  overflow="visible"/>		</clipPath>		<g clip-path="url(#SVGID_2_)">			<defs>				<rect id="SVGID_3_" x="0" y="0" width="711.6" height="711.6"/>			</defs>			<clipPath id="SVGID_4_">				<use xlink:href="#SVGID_3_"  overflow="visible"/>			</clipPath>			<g clip-path="url(#SVGID_4_)">				<g>					<path fill="#B6008D" d="M553.3,622.9c-1.1,0-2-0.9-2-2c0-13.5-7-19.1-14.4-25.1c-7.6-6.1-15.5-12.4-15.5-27.1c0-1.1,0.9-2,2-2						c1.1,0,2,0.9,2,2c0,12.7,6.8,18.2,14,24c7.8,6.3,15.9,12.8,15.9,28.2C555.3,622,554.4,622.9,553.3,622.9z"/>				</g>			</g>			<g clip-path="url(#SVGID_4_)">				<g>					<path fill="#B6008D" d="M523.5,622.9c-1.1,0-2-0.9-2-2c0-15.4,8.1-21.9,15.9-28.2c7.2-5.8,14-11.2,14-24c0-1.1,0.9-2,2-2						c1.1,0,2,0.9,2,2c0,14.6-7.9,21-15.5,27.1c-7.4,6-14.4,11.6-14.4,25.1C525.4,622,524.6,622.9,523.5,622.9z"/>				</g>			</g>			<g clip-path="url(#SVGID_4_)">				<g>					<path fill="#B6008D" d="M541.9,605.9h-13.6c-0.9,0-1.6-0.7-1.6-1.6s0.7-1.6,1.6-1.6h13.6c0.9,0,1.6,0.7,1.6,1.6						S542.8,605.9,541.9,605.9z"/>				</g>			</g>			<g clip-path="url(#SVGID_4_)">				<g>					<path fill="#B6008D" d="M546,614.1h-21.5c-0.9,0-1.6-0.7-1.6-1.6s0.7-1.6,1.6-1.6H546c0.9,0,1.6,0.7,1.6,1.6						S546.9,614.1,546,614.1z"/>				</g>			</g>			<g clip-path="url(#SVGID_4_)">				<g>					<path fill="#B6008D" d="M548.6,622.5h-25.1c-0.9,0-1.6-0.7-1.6-1.6c0-0.9,0.7-1.6,1.6-1.6h25.1c0.9,0,1.6,0.7,1.6,1.6						C550.2,621.8,549.4,622.5,548.6,622.5z"/>				</g>			</g>			<g clip-path="url(#SVGID_4_)">				<g>					<path fill="#B6008D" d="M548.6,570.1h-25.1c-0.9,0-1.6-0.7-1.6-1.6c0-0.9,0.7-1.6,1.6-1.6h25.1c0.9,0,1.6,0.7,1.6,1.6						C550.2,569.4,549.4,570.1,548.6,570.1z"/>				</g>			</g>			<g clip-path="url(#SVGID_4_)">				<g>					<path fill="#B6008D" d="M546,578.2h-21.5c-0.9,0-1.6-0.7-1.6-1.6c0-0.9,0.7-1.6,1.6-1.6H546c0.9,0,1.6,0.7,1.6,1.6						C547.6,577.5,546.9,578.2,546,578.2z"/>				</g>			</g>			<g clip-path="url(#SVGID_4_)">				<g>					<path fill="#B6008D" d="M541.9,586.4h-13.6c-0.9,0-1.6-0.7-1.6-1.6c0-0.9,0.7-1.6,1.6-1.6h13.6c0.9,0,1.6,0.7,1.6,1.6						C543.5,585.7,542.8,586.4,541.9,586.4z"/>				</g>			</g>			<g clip-path="url(#SVGID_4_)">				<g>					<path fill="#B6008D" d="M523.5,570.5c-1.1,0-2-0.9-2-2c0-15.4,8.1-21.9,15.9-28.2c7.2-5.8,14-11.2,14-24c0-1.1,0.9-2,2-2						c1.1,0,2,0.9,2,2c0,14.6-7.9,21-15.5,27.1c-7.4,6-14.4,11.6-14.4,25.1C525.4,569.6,524.6,570.5,523.5,570.5z"/>				</g>			</g>			<g clip-path="url(#SVGID_4_)">				<g>					<path fill="#B6008D" d="M553.3,570.5c-1.1,0-2-0.9-2-2c0-13.5-7-19.1-14.4-25.1c-7.6-6.1-15.5-12.4-15.5-27.1c0-1.1,0.9-2,2-2						c1.1,0,2,0.9,2,2c0,12.7,6.8,18.2,14,24c7.8,6.3,15.9,12.8,15.9,28.2C555.3,569.6,554.4,570.5,553.3,570.5z"/>				</g>			</g>			<g clip-path="url(#SVGID_4_)">				<g>					<path fill="#B6008D" d="M523.5,518.3c-1.1,0-2-0.9-2-2c0-15.4,8.1-21.9,15.9-28.2c7.2-5.8,14-11.2,14-24c0-1.1,0.9-2,2-2						c1.1,0,2,0.9,2,2c0,14.6-7.9,21-15.5,27.1c-7.4,6-14.4,11.6-14.4,25.1C525.4,517.4,524.6,518.3,523.5,518.3z"/>				</g>			</g>			<g clip-path="url(#SVGID_4_)">				<g>					<path fill="#B6008D" d="M553.3,518.3c-1.1,0-2-0.9-2-2c0-13.5-7-19.1-14.4-25.1c-7.6-6.1-15.5-12.4-15.5-27.1c0-1.1,0.9-2,2-2						c1.1,0,2,0.9,2,2c0,12.7,6.8,18.2,14,24c7.8,6.3,15.9,12.8,15.9,28.2C555.3,517.4,554.4,518.3,553.3,518.3z"/>				</g>			</g>			<g clip-path="url(#SVGID_4_)">				<g>					<path fill="#B6008D" d="M548.5,501.3h-13.6c-0.9,0-1.6-0.7-1.6-1.6s0.7-1.6,1.6-1.6h13.6c0.9,0,1.6,0.7,1.6,1.6						S549.4,501.3,548.5,501.3z"/>				</g>			</g>			<g clip-path="url(#SVGID_4_)">				<g>					<path fill="#B6008D" d="M552.3,509.5h-21.5c-0.9,0-1.6-0.7-1.6-1.6c0-0.9,0.7-1.6,1.6-1.6h21.5c0.9,0,1.6,0.7,1.6,1.6						C553.9,508.8,553.2,509.5,552.3,509.5z"/>				</g>			</g>			<g clip-path="url(#SVGID_4_)">				<g>					<path fill="#B6008D" d="M553.3,517.7h-25.1c-0.9,0-1.6-0.7-1.6-1.6c0-0.9,0.7-1.6,1.6-1.6h25.1c0.9,0,1.6,0.7,1.6,1.6						C554.9,516.9,554.2,517.7,553.3,517.7z"/>				</g>			</g>			<g clip-path="url(#SVGID_4_)">				<g>					<path fill="#B6008D" d="M552.3,525.8h-21.5c-0.9,0-1.6-0.7-1.6-1.6c0-0.9,0.7-1.6,1.6-1.6h21.5c0.9,0,1.6,0.7,1.6,1.6						C553.9,525.1,553.2,525.8,552.3,525.8z"/>				</g>			</g>			<g clip-path="url(#SVGID_4_)">				<g>					<path fill="#B6008D" d="M548.5,534h-13.6c-0.9,0-1.6-0.7-1.6-1.6c0-0.9,0.7-1.6,1.6-1.6h13.6c0.9,0,1.6,0.7,1.6,1.6						C550.1,533.3,549.4,534,548.5,534z"/>				</g>			</g>			<g clip-path="url(#SVGID_4_)">				<g>					<path fill="#B6008D" d="M546,561.9h-21.5c-0.9,0-1.6-0.7-1.6-1.6s0.7-1.6,1.6-1.6H546c0.9,0,1.6,0.7,1.6,1.6						S546.9,561.9,546,561.9z"/>				</g>			</g>			<g clip-path="url(#SVGID_4_)">				<g>					<path fill="#B6008D" d="M541.9,553.8h-13.6c-0.9,0-1.6-0.7-1.6-1.6s0.7-1.6,1.6-1.6h13.6c0.9,0,1.6,0.7,1.6,1.6						S542.8,553.8,541.9,553.8z"/>				</g>			</g>			<g clip-path="url(#SVGID_4_)">				<g>					<path fill="#B6008D" d="M553.3,465.5h-25.1c-0.9,0-1.6-0.7-1.6-1.6c0-0.9,0.7-1.6,1.6-1.6h25.1c0.9,0,1.6,0.7,1.6,1.6						C554.9,464.8,554.2,465.5,553.3,465.5z"/>				</g>			</g>			<g clip-path="url(#SVGID_4_)">				<g>					<path fill="#B6008D" d="M552.3,473.7h-21.5c-0.9,0-1.6-0.7-1.6-1.6c0-0.9,0.7-1.6,1.6-1.6h21.5c0.9,0,1.6,0.7,1.6,1.6						C553.9,472.9,553.2,473.7,552.3,473.7z"/>				</g>			</g>			<g clip-path="url(#SVGID_4_)">				<g>					<path fill="#B6008D" d="M548.5,481.8h-13.6c-0.9,0-1.6-0.7-1.6-1.6s0.7-1.6,1.6-1.6h13.6c0.9,0,1.6,0.7,1.6,1.6						S549.4,481.8,548.5,481.8z"/>				</g>			</g>			<g clip-path="url(#SVGID_4_)">				<g>					<path fill="#B6008D" d="M586,564.4h-20c-0.7,0-1.2-0.5-1.2-1.2c0-0.7,0.5-1.2,1.2-1.2h20c0.7,0,1.2,0.5,1.2,1.2						C587.2,563.8,586.6,564.4,586,564.4z"/>				</g>			</g>			<g clip-path="url(#SVGID_4_)">				<g>					<path fill="#B6008D" d="M583.9,570.9h-17.1c-0.7,0-1.2-0.5-1.2-1.2s0.5-1.2,1.2-1.2h17.1c0.7,0,1.2,0.5,1.2,1.2						S584.6,570.9,583.9,570.9z"/>				</g>			</g>			<g clip-path="url(#SVGID_4_)">				<g>					<path fill="#B6008D" d="M580.7,577.4h-10.8c-0.7,0-1.2-0.5-1.2-1.2s0.5-1.2,1.2-1.2h10.8c0.7,0,1.2,0.5,1.2,1.2						S581.3,577.4,580.7,577.4z"/>				</g>			</g>			<g clip-path="url(#SVGID_4_)">				<g>					<path fill="#B6008D" d="M566,564.8c-0.9,0-1.6-0.7-1.6-1.6c0-12.3,6.4-17.4,12.7-22.4c5.7-4.6,11.1-8.9,11.1-19.1						c0-0.9,0.7-1.6,1.6-1.6s1.6,0.7,1.6,1.6c0,11.7-6.3,16.7-12.3,21.6c-5.9,4.7-11.5,9.2-11.5,19.9						C567.6,564.1,566.9,564.8,566,564.8z"/>				</g>			</g>			<g clip-path="url(#SVGID_4_)">				<g>					<path fill="#B6008D" d="M589.8,564.8c-0.9,0-1.6-0.7-1.6-1.6c0-10.7-5.6-15.2-11.5-19.9c-6.1-4.9-12.3-9.9-12.3-21.6						c0-0.9,0.7-1.6,1.6-1.6c0.9,0,1.6,0.7,1.6,1.6c0,10.1,5.4,14.5,11.1,19.1c6.2,5,12.7,10.2,12.7,22.4						C591.4,564.1,590.6,564.8,589.8,564.8z"/>				</g>			</g>			<g clip-path="url(#SVGID_4_)">				<g>					<path fill="#B6008D" d="M585.9,509.7h-10.8c-0.7,0-1.2-0.5-1.2-1.2c0-0.7,0.5-1.2,1.2-1.2h10.8c0.7,0,1.2,0.5,1.2,1.2						C587.1,509.1,586.6,509.7,585.9,509.7z"/>				</g>			</g>			<g clip-path="url(#SVGID_4_)">				<g>					<path fill="#B6008D" d="M588.9,516.1h-17.1c-0.7,0-1.2-0.5-1.2-1.2c0-0.7,0.5-1.2,1.2-1.2h17.1c0.7,0,1.2,0.5,1.2,1.2						C590.1,515.6,589.6,516.1,588.9,516.1z"/>				</g>			</g>			<g clip-path="url(#SVGID_4_)">				<g>					<path fill="#B6008D" d="M589.8,522.6h-20c-0.7,0-1.2-0.5-1.2-1.2c0-0.7,0.5-1.2,1.2-1.2h20c0.7,0,1.2,0.5,1.2,1.2						C591,522.1,590.4,522.6,589.8,522.6z"/>				</g>			</g>			<g clip-path="url(#SVGID_4_)">				<g>					<path fill="#B6008D" d="M588.9,529.1h-17.1c-0.7,0-1.2-0.5-1.2-1.2s0.5-1.2,1.2-1.2h17.1c0.7,0,1.2,0.5,1.2,1.2						S589.6,529.1,588.9,529.1z"/>				</g>			</g>			<g clip-path="url(#SVGID_4_)">				<g>					<path fill="#B6008D" d="M585.9,535.6h-10.8c-0.7,0-1.2-0.5-1.2-1.2s0.5-1.2,1.2-1.2h10.8c0.7,0,1.2,0.5,1.2,1.2						S586.6,535.6,585.9,535.6z"/>				</g>			</g>			<g clip-path="url(#SVGID_4_)">				<g>					<path fill="#B6008D" d="M583.9,557.9h-17.1c-0.7,0-1.2-0.5-1.2-1.2s0.5-1.2,1.2-1.2h17.1c0.7,0,1.2,0.5,1.2,1.2						S584.6,557.9,583.9,557.9z"/>				</g>			</g>			<g clip-path="url(#SVGID_4_)">				<g>					<path fill="#B6008D" d="M580.7,551.4h-10.8c-0.7,0-1.2-0.5-1.2-1.2s0.5-1.2,1.2-1.2h10.8c0.7,0,1.2,0.5,1.2,1.2						S581.3,551.4,580.7,551.4z"/>				</g>			</g>			<g clip-path="url(#SVGID_4_)">				<g>					<path fill="#B6008D" d="M589.8,523.3c-0.9,0-1.6-0.7-1.6-1.6c0-10.7-5.6-15.2-11.5-19.9c-6.1-4.9-12.3-9.9-12.3-21.6						c0-0.9,0.7-1.6,1.6-1.6c0.9,0,1.6,0.7,1.6,1.6c0,10.1,5.4,14.5,11.1,19.1c6.2,5,12.7,10.2,12.7,22.4						C591.4,522.6,590.6,523.3,589.8,523.3z"/>				</g>			</g>			<g clip-path="url(#SVGID_4_)">				<g>					<path fill="#B6008D" d="M566,523.3c-0.9,0-1.6-0.7-1.6-1.6c0-12.3,6.4-17.4,12.7-22.4c5.7-4.6,11.1-8.9,11.1-19.1						c0-0.9,0.7-1.6,1.6-1.6s1.6,0.7,1.6,1.6c0,11.7-6.3,16.7-12.3,21.6c-5.9,4.7-11.5,9.2-11.5,19.9						C567.6,522.6,566.9,523.3,566,523.3z"/>				</g>			</g>			<g clip-path="url(#SVGID_4_)">				<g>					<path fill="#B6008D" d="M586,481.1h-20c-0.7,0-1.2-0.5-1.2-1.2s0.5-1.2,1.2-1.2h20c0.7,0,1.2,0.5,1.2,1.2						S586.6,481.1,586,481.1z"/>				</g>			</g>			<g clip-path="url(#SVGID_4_)">				<g>					<path fill="#B6008D" d="M583.9,487.6h-17.1c-0.7,0-1.2-0.5-1.2-1.2c0-0.7,0.5-1.2,1.2-1.2h17.1c0.7,0,1.2,0.5,1.2,1.2						C585.1,487.1,584.6,487.6,583.9,487.6z"/>				</g>			</g>			<g clip-path="url(#SVGID_4_)">				<g>					<path fill="#B6008D" d="M580.7,494.1h-10.8c-0.7,0-1.2-0.5-1.2-1.2s0.5-1.2,1.2-1.2h10.8c0.7,0,1.2,0.5,1.2,1.2						S581.3,494.1,580.7,494.1z"/>				</g>			</g>			<g clip-path="url(#SVGID_4_)">				<g>					<path fill="#B6008D" d="M566,606.5c-0.9,0-1.6-0.7-1.6-1.6c0-12.3,6.4-17.4,12.7-22.4c5.7-4.6,11.1-8.9,11.1-19.1						c0-0.9,0.7-1.6,1.6-1.6s1.6,0.7,1.6,1.6c0,11.7-6.3,16.7-12.3,21.6c-5.9,4.7-11.5,9.2-11.5,19.9						C567.6,605.8,566.9,606.5,566,606.5z"/>				</g>			</g>			<g clip-path="url(#SVGID_4_)">				<g>					<path fill="#B6008D" d="M589.8,606.5c-0.9,0-1.6-0.7-1.6-1.6c0-10.7-5.6-15.2-11.5-19.9c-6.1-4.9-12.3-9.9-12.3-21.6						c0-0.9,0.7-1.6,1.6-1.6c0.9,0,1.6,0.7,1.6,1.6c0,10.1,5.4,14.5,11.1,19.1c6.2,5,12.7,10.2,12.7,22.4						C591.4,605.8,590.6,606.5,589.8,606.5z"/>				</g>			</g>			<g clip-path="url(#SVGID_4_)">				<g>					<path fill="#B6008D" d="M585.9,592.9h-10.8c-0.7,0-1.2-0.5-1.2-1.2s0.5-1.2,1.2-1.2h10.8c0.7,0,1.2,0.5,1.2,1.2						S586.6,592.9,585.9,592.9z"/>				</g>			</g>			<g clip-path="url(#SVGID_4_)">				<g>					<path fill="#B6008D" d="M588.9,599.4h-17.1c-0.7,0-1.2-0.5-1.2-1.2s0.5-1.2,1.2-1.2h17.1c0.7,0,1.2,0.5,1.2,1.2						S589.6,599.4,588.9,599.4z"/>				</g>			</g>			<g clip-path="url(#SVGID_4_)">				<g>					<path fill="#B6008D" d="M589.8,606.1h-20c-0.7,0-1.2-0.5-1.2-1.2s0.5-1.2,1.2-1.2h20c0.7,0,1.2,0.5,1.2,1.2						S590.4,606.1,589.8,606.1z"/>				</g>			</g>			<g clip-path="url(#SVGID_4_)">				<g>					<path fill="#B6008D" d="M507,564.4h-20c-0.7,0-1.2-0.5-1.2-1.2c0-0.7,0.5-1.2,1.2-1.2h20c0.7,0,1.2,0.5,1.2,1.2						C508.2,563.8,507.7,564.4,507,564.4z"/>				</g>			</g>			<g clip-path="url(#SVGID_4_)">				<g>					<path fill="#B6008D" d="M505,570.9h-17.1c-0.7,0-1.2-0.5-1.2-1.2s0.5-1.2,1.2-1.2H505c0.7,0,1.2,0.5,1.2,1.2						S505.6,570.9,505,570.9z"/>				</g>			</g>			<g clip-path="url(#SVGID_4_)">				<g>					<path fill="#B6008D" d="M501.7,577.4h-10.8c-0.7,0-1.2-0.5-1.2-1.2s0.5-1.2,1.2-1.2h10.8c0.7,0,1.2,0.5,1.2,1.2						S502.4,577.4,501.7,577.4z"/>				</g>			</g>			<g clip-path="url(#SVGID_4_)">				<g>					<path fill="#B6008D" d="M487,564.8c-0.9,0-1.6-0.7-1.6-1.6c0-12.3,6.4-17.4,12.7-22.4c5.7-4.6,11.1-8.9,11.1-19.1						c0-0.9,0.7-1.6,1.6-1.6c0.9,0,1.6,0.7,1.6,1.6c0,11.7-6.3,16.7-12.3,21.6c-5.9,4.7-11.5,9.2-11.5,19.9						C488.6,564.1,487.9,564.8,487,564.8z"/>				</g>			</g>			<g clip-path="url(#SVGID_4_)">				<g>					<path fill="#B6008D" d="M510.8,564.8c-0.9,0-1.6-0.7-1.6-1.6c0-10.7-5.6-15.2-11.5-19.9c-6.1-4.9-12.3-9.9-12.3-21.6						c0-0.9,0.7-1.6,1.6-1.6c0.9,0,1.6,0.7,1.6,1.6c0,10.1,5.4,14.5,11.1,19.1c6.2,5,12.7,10.2,12.7,22.4						C512.4,564.1,511.7,564.8,510.8,564.8z"/>				</g>			</g>			<g clip-path="url(#SVGID_4_)">				<g>					<path fill="#B6008D" d="M507,509.7h-10.8c-0.7,0-1.2-0.5-1.2-1.2c0-0.7,0.5-1.2,1.2-1.2H507c0.7,0,1.2,0.5,1.2,1.2						C508.2,509.1,507.6,509.7,507,509.7z"/>				</g>			</g>			<g clip-path="url(#SVGID_4_)">				<g>					<path fill="#B6008D" d="M510,516.1h-17.1c-0.7,0-1.2-0.5-1.2-1.2c0-0.7,0.5-1.2,1.2-1.2H510c0.7,0,1.2,0.5,1.2,1.2						C511.2,515.6,510.7,516.1,510,516.1z"/>				</g>			</g>			<g clip-path="url(#SVGID_4_)">				<g>					<path fill="#B6008D" d="M510.8,522.6h-20c-0.7,0-1.2-0.5-1.2-1.2c0-0.7,0.5-1.2,1.2-1.2h20c0.7,0,1.2,0.5,1.2,1.2						C512,522.1,511.5,522.6,510.8,522.6z"/>				</g>			</g>			<g clip-path="url(#SVGID_4_)">				<g>					<path fill="#B6008D" d="M510,529.1h-17.1c-0.7,0-1.2-0.5-1.2-1.2s0.5-1.2,1.2-1.2H510c0.7,0,1.2,0.5,1.2,1.2						S510.7,529.1,510,529.1z"/>				</g>			</g>			<g clip-path="url(#SVGID_4_)">				<g>					<path fill="#B6008D" d="M507,535.6h-10.8c-0.7,0-1.2-0.5-1.2-1.2s0.5-1.2,1.2-1.2H507c0.7,0,1.2,0.5,1.2,1.2						S507.6,535.6,507,535.6z"/>				</g>			</g>			<g clip-path="url(#SVGID_4_)">				<g>					<path fill="#B6008D" d="M505,557.9h-17.1c-0.7,0-1.2-0.5-1.2-1.2s0.5-1.2,1.2-1.2H505c0.7,0,1.2,0.5,1.2,1.2						S505.6,557.9,505,557.9z"/>				</g>			</g>			<g clip-path="url(#SVGID_4_)">				<g>					<path fill="#B6008D" d="M501.7,551.4h-10.8c-0.7,0-1.2-0.5-1.2-1.2s0.5-1.2,1.2-1.2h10.8c0.7,0,1.2,0.5,1.2,1.2						S502.4,551.4,501.7,551.4z"/>				</g>			</g>			<g clip-path="url(#SVGID_4_)">				<g>					<path fill="#B6008D" d="M510.8,523.3c-0.9,0-1.6-0.7-1.6-1.6c0-10.7-5.6-15.2-11.5-19.9c-6.1-4.9-12.3-9.9-12.3-21.6						c0-0.9,0.7-1.6,1.6-1.6c0.9,0,1.6,0.7,1.6,1.6c0,10.1,5.4,14.5,11.1,19.1c6.2,5,12.7,10.2,12.7,22.4						C512.4,522.6,511.7,523.3,510.8,523.3z"/>				</g>			</g>			<g clip-path="url(#SVGID_4_)">				<g>					<path fill="#B6008D" d="M487,523.3c-0.9,0-1.6-0.7-1.6-1.6c0-12.3,6.4-17.4,12.7-22.4c5.7-4.6,11.1-8.9,11.1-19.1						c0-0.9,0.7-1.6,1.6-1.6c0.9,0,1.6,0.7,1.6,1.6c0,11.7-6.3,16.7-12.3,21.6c-5.9,4.7-11.5,9.2-11.5,19.9						C488.6,522.6,487.9,523.3,487,523.3z"/>				</g>			</g>			<g clip-path="url(#SVGID_4_)">				<g>					<path fill="#B6008D" d="M507,481.1h-20c-0.7,0-1.2-0.5-1.2-1.2s0.5-1.2,1.2-1.2h20c0.7,0,1.2,0.5,1.2,1.2						S507.7,481.1,507,481.1z"/>				</g>			</g>			<g clip-path="url(#SVGID_4_)">				<g>					<path fill="#B6008D" d="M505,487.6h-17.1c-0.7,0-1.2-0.5-1.2-1.2c0-0.7,0.5-1.2,1.2-1.2H505c0.7,0,1.2,0.5,1.2,1.2						C506.2,487.1,505.6,487.6,505,487.6z"/>				</g>			</g>			<g clip-path="url(#SVGID_4_)">				<g>					<path fill="#B6008D" d="M501.7,494.1h-10.8c-0.7,0-1.2-0.5-1.2-1.2s0.5-1.2,1.2-1.2h10.8c0.7,0,1.2,0.5,1.2,1.2						S502.4,494.1,501.7,494.1z"/>				</g>			</g>			<g clip-path="url(#SVGID_4_)">				<g>					<path fill="#B6008D" d="M487,606.5c-0.9,0-1.6-0.7-1.6-1.6c0-12.3,6.4-17.4,12.7-22.4c5.7-4.6,11.1-8.9,11.1-19.1						c0-0.9,0.7-1.6,1.6-1.6c0.9,0,1.6,0.7,1.6,1.6c0,11.7-6.3,16.7-12.3,21.6c-5.9,4.7-11.5,9.2-11.5,19.9						C488.6,605.8,487.9,606.5,487,606.5z"/>				</g>			</g>			<g clip-path="url(#SVGID_4_)">				<g>					<path fill="#B6008D" d="M510.8,606.5c-0.9,0-1.6-0.7-1.6-1.6c0-10.7-5.6-15.2-11.5-19.9c-6.1-4.9-12.3-9.9-12.3-21.6						c0-0.9,0.7-1.6,1.6-1.6c0.9,0,1.6,0.7,1.6,1.6c0,10.1,5.4,14.5,11.1,19.1c6.2,5,12.7,10.2,12.7,22.4						C512.4,605.8,511.7,606.5,510.8,606.5z"/>				</g>			</g>			<g clip-path="url(#SVGID_4_)">				<g>					<path fill="#B6008D" d="M507,592.9h-10.8c-0.7,0-1.2-0.5-1.2-1.2s0.5-1.2,1.2-1.2H507c0.7,0,1.2,0.5,1.2,1.2						S507.6,592.9,507,592.9z"/>				</g>			</g>			<g clip-path="url(#SVGID_4_)">				<g>					<path fill="#B6008D" d="M510,599.4h-17.1c-0.7,0-1.2-0.5-1.2-1.2s0.5-1.2,1.2-1.2H510c0.7,0,1.2,0.5,1.2,1.2						S510.7,599.4,510,599.4z"/>				</g>			</g>			<g clip-path="url(#SVGID_4_)">				<g>					<path fill="#B6008D" d="M510.8,606.1h-20c-0.7,0-1.2-0.5-1.2-1.2s0.5-1.2,1.2-1.2h20c0.7,0,1.2,0.5,1.2,1.2						S511.5,606.1,510.8,606.1z"/>				</g>			</g>		</g>	</g>	<g>		<g>			<path fill="#060E9F" d="M538.4,580.2c-10.3,0-20-4-27.3-11.3c-15.1-15.1-15.1-39.6,0-54.7c7.3-7.3,17-11.3,27.3-11.3				c10.3,0,20,4,27.3,11.3c15.1,15.1,15.1,39.6,0,54.7C558.4,576.2,548.7,580.2,538.4,580.2z M538.4,511.8c-8,0-15.4,3.1-21.1,8.7				c-11.6,11.6-11.6,30.5,0,42.2c5.6,5.6,13.1,8.7,21.1,8.7s15.4-3.1,21.1-8.7c11.6-11.6,11.6-30.5,0-42.2				C553.9,514.9,546.4,511.8,538.4,511.8z"/>		</g>	</g>	<g>		<g>			<path fill="#060E9F" d="M488.9,595.5c-1.1,0-2.3-0.4-3.1-1.3c-1.7-1.7-1.7-4.5,0-6.3l25.3-25.3c1.7-1.7,4.5-1.7,6.3,0				c1.7,1.7,1.7,4.5,0,6.3L492,594.2C491.2,595,490,595.5,488.9,595.5z"/>		</g>	</g>	<g>		<defs>			<path id="SVGID_5_" d="M518.7,521.9c-10.9,10.9-10.9,28.5,0,39.4c10.9,10.9,28.5,10.9,39.4,0c10.9-10.9,10.9-28.5,0-39.4				c-5.4-5.4-12.6-8.2-19.7-8.2C531.3,513.7,524.1,516.4,518.7,521.9"/>		</defs>		<clipPath id="SVGID_6_">			<use xlink:href="#SVGID_5_"  overflow="visible"/>		</clipPath>		<g clip-path="url(#SVGID_6_)">			<defs>				<rect id="SVGID_7_" x="0" y="0" width="711.6" height="711.6"/>			</defs>			<clipPath id="SVGID_8_">				<use xlink:href="#SVGID_7_"  overflow="visible"/>			</clipPath>			<g clip-path="url(#SVGID_8_)">				<g>					<path fill="#060E9F" d="M557,642.8c-1.4,0-2.5-1.1-2.5-2.5c0-16.8-8.7-23.8-18-31.3c-9.5-7.6-19.3-15.5-19.3-33.8						c0-1.4,1.1-2.5,2.5-2.5s2.5,1.1,2.5,2.5c0,15.9,8.5,22.7,17.5,29.9c9.7,7.8,19.8,15.9,19.8,35.1						C559.5,641.7,558.4,642.8,557,642.8z"/>				</g>			</g>			<g clip-path="url(#SVGID_8_)">				<g>					<path fill="#060E9F" d="M519.8,642.8c-1.4,0-2.5-1.1-2.5-2.5c0-19.2,10.1-27.3,19.8-35.1c9-7.2,17.5-14,17.5-29.9						c0-1.4,1.1-2.5,2.5-2.5s2.5,1.1,2.5,2.5c0,18.3-9.8,26.1-19.3,33.8c-9.2,7.4-18,14.4-18,31.3						C522.3,641.7,521.1,642.8,519.8,642.8z"/>				</g>			</g>			<g clip-path="url(#SVGID_8_)">				<g>					<path fill="#060E9F" d="M542.8,621.6h-17c-1.1,0-2-0.9-2-2s0.9-2,2-2h17c1.1,0,2,0.9,2,2S543.9,621.6,542.8,621.6z"/>				</g>			</g>			<g clip-path="url(#SVGID_8_)">				<g>					<path fill="#060E9F" d="M547.9,631.8h-26.8c-1.1,0-2-0.9-2-2s0.9-2,2-2h26.8c1.1,0,2,0.9,2,2S549,631.8,547.9,631.8z"/>				</g>			</g>			<g clip-path="url(#SVGID_8_)">				<g>					<path fill="#060E9F" d="M551.1,642.3h-31.3c-1.1,0-2-0.9-2-2s0.9-2,2-2h31.3c1.1,0,2,0.9,2,2S552.2,642.3,551.1,642.3z"/>				</g>			</g>			<g clip-path="url(#SVGID_8_)">				<g>					<path fill="#060E9F" d="M551.1,576.9h-31.3c-1.1,0-2-0.9-2-2s0.9-2,2-2h31.3c1.1,0,2,0.9,2,2S552.2,576.9,551.1,576.9z"/>				</g>			</g>			<g clip-path="url(#SVGID_8_)">				<g>					<path fill="#060E9F" d="M547.9,587.1h-26.8c-1.1,0-2-0.9-2-2s0.9-2,2-2h26.8c1.1,0,2,0.9,2,2S549,587.1,547.9,587.1z"/>				</g>			</g>			<g clip-path="url(#SVGID_8_)">				<g>					<path fill="#060E9F" d="M542.8,597.3h-17c-1.1,0-2-0.9-2-2c0-1.1,0.9-2,2-2h17c1.1,0,2,0.9,2,2						C544.8,596.4,543.9,597.3,542.8,597.3z"/>				</g>			</g>			<g clip-path="url(#SVGID_8_)">				<g>					<path fill="#060E9F" d="M519.8,512.4c-1.4,0-2.5-1.1-2.5-2.5c0-19.2,10.1-27.3,19.8-35.1c9-7.2,17.5-14,17.5-29.9						c0-1.4,1.1-2.5,2.5-2.5s2.5,1.1,2.5,2.5c0,18.3-9.8,26.1-19.3,33.8c-9.2,7.4-18,14.4-18,31.3						C522.3,511.3,521.1,512.4,519.8,512.4z"/>				</g>			</g>			<g clip-path="url(#SVGID_8_)">				<g>					<path fill="#060E9F" d="M557,512.4c-1.4,0-2.5-1.1-2.5-2.5c0-16.8-8.7-23.8-18-31.3c-9.5-7.6-19.3-15.5-19.3-33.8						c0-1.4,1.1-2.5,2.5-2.5s2.5,1.1,2.5,2.5c0,15.9,8.5,22.7,17.5,29.9c9.7,7.8,19.8,15.9,19.8,35.1						C559.5,511.3,558.4,512.4,557,512.4z"/>				</g>			</g>			<g clip-path="url(#SVGID_8_)">				<g>					<path fill="#060E9F" d="M551,491.2h-17c-1.1,0-2-0.9-2-2s0.9-2,2-2h17c1.1,0,2,0.9,2,2S552.1,491.2,551,491.2z"/>				</g>			</g>			<g clip-path="url(#SVGID_8_)">				<g>					<path fill="#060E9F" d="M555.7,501.4h-26.8c-1.1,0-2-0.9-2-2c0-1.1,0.9-2,2-2h26.8c1.1,0,2,0.9,2,2						C557.7,500.5,556.8,501.4,555.7,501.4z"/>				</g>			</g>			<g clip-path="url(#SVGID_8_)">				<g>					<path fill="#060E9F" d="M557,511.5h-31.3c-1.1,0-2-0.9-2-2c0-1.1,0.9-2,2-2H557c1.1,0,2,0.9,2,2						C559,510.7,558.1,511.5,557,511.5z"/>				</g>			</g>			<g clip-path="url(#SVGID_8_)">				<g>					<path fill="#B6008D" d="M555.7,521.7h-26.8c-1.1,0-2-0.9-2-2c0-1.1,0.9-2,2-2h26.8c1.1,0,2,0.9,2,2						C557.7,520.8,556.8,521.7,555.7,521.7z"/>				</g>			</g>			<g clip-path="url(#SVGID_8_)">				<g>					<path fill="#CFDE00" d="M551,531.9h-17c-1.1,0-2-0.9-2-2s0.9-2,2-2h17c1.1,0,2,0.9,2,2S552.1,531.9,551,531.9z"/>				</g>			</g>			<g clip-path="url(#SVGID_8_)">				<g>					<path fill="#B6008D" d="M547.9,566.8h-26.8c-1.1,0-2-0.9-2-2s0.9-2,2-2h26.8c1.1,0,2,0.9,2,2S549,566.8,547.9,566.8z"/>				</g>			</g>			<g clip-path="url(#SVGID_8_)">				<g>					<path fill="#CFDE00" d="M542.8,556.6h-17c-1.1,0-2-0.9-2-2s0.9-2,2-2h17c1.1,0,2,0.9,2,2S543.9,556.6,542.8,556.6z"/>				</g>			</g>			<g clip-path="url(#SVGID_8_)">				<path fill="#060E9F" d="M557,446.5h-31.3c-1.1,0-2-0.9-2-2s0.9-2,2-2H557c1.1,0,2,0.9,2,2S558.1,446.5,557,446.5z"/>			</g>			<g clip-path="url(#SVGID_8_)">				<g>					<path fill="#060E9F" d="M555.7,456.7h-26.8c-1.1,0-2-0.9-2-2s0.9-2,2-2h26.8c1.1,0,2,0.9,2,2S556.8,456.7,555.7,456.7z"/>				</g>			</g>			<g clip-path="url(#SVGID_8_)">				<g>					<path fill="#060E9F" d="M551,466.9h-17c-1.1,0-2-0.9-2-2s0.9-2,2-2h17c1.1,0,2,0.9,2,2S552.1,466.9,551,466.9z"/>				</g>			</g>			<g clip-path="url(#SVGID_8_)">				<g>					<path fill="#B6008D" d="M519.8,577.4c-1.4,0-2.5-1.1-2.5-2.5c0-19.2,10.1-27.3,19.8-35.1c9-7.2,17.5-14,17.5-29.9						c0-1.4,1.1-2.5,2.5-2.5s2.5,1.1,2.5,2.5c0,18.3-9.8,26.1-19.3,33.8c-9.2,7.4-18,14.4-18,31.3						C522.3,576.3,521.1,577.4,519.8,577.4z"/>				</g>			</g>			<g clip-path="url(#SVGID_8_)">				<g>					<path fill="#B6008D" d="M557,577.4c-1.4,0-2.5-1.1-2.5-2.5c0-16.8-8.7-23.8-18-31.3c-9.5-7.6-19.3-15.5-19.3-33.8						c0-1.4,1.1-2.5,2.5-2.5s2.5,1.1,2.5,2.5c0,15.9,8.5,22.7,17.5,29.9c9.7,7.8,19.8,15.9,19.8,35.1						C559.5,576.3,558.4,577.4,557,577.4z"/>				</g>			</g>			<g clip-path="url(#SVGID_8_)">				<g>					<path fill="#060E9F" d="M504,622.3c-1.1,0-2-0.9-2-2c0-13.4-6.9-19-14.3-24.9c-7.6-6.1-15.4-12.3-15.4-26.9c0-1.1,0.9-2,2-2						s2,0.9,2,2c0,12.6,6.7,18,13.9,23.8c7.8,6.2,15.8,12.7,15.8,28C506,621.4,505.1,622.3,504,622.3z"/>				</g>			</g>			<g clip-path="url(#SVGID_8_)">				<g>					<path fill="#060E9F" d="M474.4,622.3c-1.1,0-2-0.9-2-2c0-15.3,8-21.7,15.8-28c7.1-5.7,13.9-11.2,13.9-23.8c0-1.1,0.9-2,2-2						c1.1,0,2,0.9,2,2c0,14.5-7.8,20.8-15.4,26.9c-7.3,5.9-14.3,11.5-14.3,24.9C476.4,621.4,475.5,622.3,474.4,622.3z"/>				</g>			</g>			<g clip-path="url(#SVGID_8_)">				<g>					<path fill="#060E9F" d="M492.7,605.4h-13.5c-0.8,0-1.5-0.7-1.5-1.5c0-0.8,0.7-1.5,1.5-1.5h13.5c0.8,0,1.5,0.7,1.5,1.5						C494.2,604.7,493.5,605.4,492.7,605.4z"/>				</g>			</g>			<g clip-path="url(#SVGID_8_)">				<g>					<path fill="#060E9F" d="M496.7,613.4h-21.3c-0.8,0-1.5-0.7-1.5-1.5s0.7-1.5,1.5-1.5h21.3c0.8,0,1.5,0.7,1.5,1.5						S497.6,613.4,496.7,613.4z"/>				</g>			</g>			<g clip-path="url(#SVGID_8_)">				<g>					<path fill="#060E9F" d="M499.3,621.8h-24.9c-0.8,0-1.5-0.7-1.5-1.5s0.7-1.5,1.5-1.5h24.9c0.8,0,1.5,0.7,1.5,1.5						S500.1,621.8,499.3,621.8z"/>				</g>			</g>			<g clip-path="url(#SVGID_8_)">				<g>					<path fill="#060E9F" d="M499.3,569.8h-24.9c-0.8,0-1.5-0.7-1.5-1.5s0.7-1.5,1.5-1.5h24.9c0.8,0,1.5,0.7,1.5,1.5						S500.1,569.8,499.3,569.8z"/>				</g>			</g>			<g clip-path="url(#SVGID_8_)">				<g>					<path fill="#060E9F" d="M496.7,577.9h-21.3c-0.8,0-1.5-0.7-1.5-1.5s0.7-1.5,1.5-1.5h21.3c0.8,0,1.5,0.7,1.5,1.5						S497.6,577.9,496.7,577.9z"/>				</g>			</g>			<g clip-path="url(#SVGID_8_)">				<g>					<path fill="#060E9F" d="M492.7,586h-13.5c-0.8,0-1.5-0.7-1.5-1.5s0.7-1.5,1.5-1.5h13.5c0.8,0,1.5,0.7,1.5,1.5						S493.5,586,492.7,586z"/>				</g>			</g>			<g clip-path="url(#SVGID_8_)">				<g>					<path fill="#060E9F" d="M474.4,570.3c-1.1,0-2-0.9-2-2c0-15.3,8-21.7,15.8-28c7.1-5.7,13.9-11.2,13.9-23.8c0-1.1,0.9-2,2-2						c1.1,0,2,0.9,2,2c0,14.5-7.8,20.8-15.4,26.9c-7.3,5.9-14.3,11.5-14.3,24.9C476.4,569.4,475.5,570.3,474.4,570.3z"/>				</g>			</g>			<g clip-path="url(#SVGID_8_)">				<g>					<path fill="#060E9F" d="M504,570.3c-1.1,0-2-0.9-2-2c0-13.4-6.9-19-14.3-24.9c-7.6-6.1-15.4-12.3-15.4-26.9c0-1.1,0.9-2,2-2						s2,0.9,2,2c0,12.6,6.7,18,13.9,23.8c7.8,6.2,15.8,12.7,15.8,28C506,569.4,505.1,570.3,504,570.3z"/>				</g>			</g>			<g clip-path="url(#SVGID_8_)">				<g>					<path fill="#060E9F" d="M474.4,518.5c-1.1,0-2-0.9-2-2c0-15.3,8-21.7,15.8-28c7.1-5.7,13.9-11.2,13.9-23.8c0-1.1,0.9-2,2-2						c1.1,0,2,0.9,2,2c0,14.5-7.8,20.8-15.4,26.9c-7.3,5.9-14.3,11.5-14.3,24.9C476.4,517.6,475.5,518.5,474.4,518.5z"/>				</g>			</g>			<g clip-path="url(#SVGID_8_)">				<g>					<path fill="#060E9F" d="M504,518.5c-1.1,0-2-0.9-2-2c0-13.4-6.9-19-14.3-24.9c-7.6-6.1-15.4-12.3-15.4-26.9c0-1.1,0.9-2,2-2						s2,0.9,2,2c0,12.6,6.7,18,13.9,23.8c7.8,6.2,15.8,12.7,15.8,28C506,517.6,505.1,518.5,504,518.5z"/>				</g>			</g>			<g clip-path="url(#SVGID_8_)">				<g>					<path fill="#060E9F" d="M499.2,501.6h-13.5c-0.8,0-1.5-0.7-1.5-1.5c0-0.8,0.7-1.5,1.5-1.5h13.5c0.8,0,1.5,0.7,1.5,1.5						C500.7,500.9,500,501.6,499.2,501.6z"/>				</g>			</g>			<g clip-path="url(#SVGID_8_)">				<g>					<path fill="#060E9F" d="M503,509.7h-21.3c-0.8,0-1.5-0.7-1.5-1.5c0-0.8,0.7-1.5,1.5-1.5H503c0.8,0,1.5,0.7,1.5,1.5						C504.5,509,503.8,509.7,503,509.7z"/>				</g>			</g>			<g clip-path="url(#SVGID_8_)">				<g>					<path fill="#060E9F" d="M504,517.8h-24.9c-0.8,0-1.5-0.7-1.5-1.5s0.7-1.5,1.5-1.5H504c0.8,0,1.5,0.7,1.5,1.5						S504.9,517.8,504,517.8z"/>				</g>			</g>			<g clip-path="url(#SVGID_8_)">				<g>					<path fill="#060E9F" d="M503,525.8h-21.3c-0.8,0-1.5-0.7-1.5-1.5s0.7-1.5,1.5-1.5H503c0.8,0,1.5,0.7,1.5,1.5						S503.8,525.8,503,525.8z"/>				</g>			</g>			<g clip-path="url(#SVGID_8_)">				<g>					<path fill="#060E9F" d="M499.2,533.9h-13.5c-0.8,0-1.5-0.7-1.5-1.5s0.7-1.5,1.5-1.5h13.5c0.8,0,1.5,0.7,1.5,1.5						S500,533.9,499.2,533.9z"/>				</g>			</g>			<g clip-path="url(#SVGID_8_)">				<g>					<path fill="#060E9F" d="M496.7,561.7h-21.3c-0.8,0-1.5-0.7-1.5-1.5s0.7-1.5,1.5-1.5h21.3c0.8,0,1.5,0.7,1.5,1.5						S497.6,561.7,496.7,561.7z"/>				</g>			</g>			<g clip-path="url(#SVGID_8_)">				<g>					<path fill="#060E9F" d="M492.7,553.6h-13.5c-0.8,0-1.5-0.7-1.5-1.5c0-0.8,0.7-1.5,1.5-1.5h13.5c0.8,0,1.5,0.7,1.5,1.5						C494.2,552.9,493.5,553.6,492.7,553.6z"/>				</g>			</g>			<g clip-path="url(#SVGID_8_)">				<g>					<path fill="#060E9F" d="M504,466h-24.9c-0.8,0-1.5-0.7-1.5-1.5c0-0.8,0.7-1.5,1.5-1.5H504c0.8,0,1.5,0.7,1.5,1.5						C505.5,465.3,504.9,466,504,466z"/>				</g>			</g>			<g clip-path="url(#SVGID_8_)">				<g>					<path fill="#060E9F" d="M503,474.1h-21.3c-0.8,0-1.5-0.7-1.5-1.5s0.7-1.5,1.5-1.5H503c0.8,0,1.5,0.7,1.5,1.5						S503.8,474.1,503,474.1z"/>				</g>			</g>			<g clip-path="url(#SVGID_8_)">				<g>					<path fill="#060E9F" d="M499.2,482.2h-13.5c-0.8,0-1.5-0.7-1.5-1.5c0-0.8,0.7-1.5,1.5-1.5h13.5c0.8,0,1.5,0.7,1.5,1.5						C500.7,481.5,500,482.2,499.2,482.2z"/>				</g>			</g>			<g clip-path="url(#SVGID_8_)">				<g>					<path fill="#060E9F" d="M602.4,622.3c-1.1,0-2-0.9-2-2c0-13.4-6.9-19-14.3-24.9c-7.6-6.1-15.4-12.3-15.4-26.9c0-1.1,0.9-2,2-2						s2,0.9,2,2c0,12.6,6.7,18,13.9,23.8c7.8,6.2,15.8,12.7,15.8,28C604.4,621.4,603.5,622.3,602.4,622.3z"/>				</g>			</g>			<g clip-path="url(#SVGID_8_)">				<g>					<path fill="#060E9F" d="M572.8,622.3c-1.1,0-2-0.9-2-2c0-15.3,8-21.7,15.8-28c7.1-5.7,13.9-11.2,13.9-23.8c0-1.1,0.9-2,2-2						s2,0.9,2,2c0,14.5-7.8,20.8-15.4,26.9c-7.3,5.9-14.3,11.5-14.3,24.9C574.8,621.4,573.9,622.3,572.8,622.3z"/>				</g>			</g>			<g clip-path="url(#SVGID_8_)">				<g>					<path fill="#060E9F" d="M591.1,605.4h-13.5c-0.8,0-1.5-0.7-1.5-1.5c0-0.8,0.7-1.5,1.5-1.5h13.5c0.8,0,1.5,0.7,1.5,1.5						C592.6,604.7,591.9,605.4,591.1,605.4z"/>				</g>			</g>			<g clip-path="url(#SVGID_8_)">				<g>					<path fill="#060E9F" d="M595.1,613.4h-21.3c-0.8,0-1.5-0.7-1.5-1.5s0.7-1.5,1.5-1.5h21.3c0.8,0,1.5,0.7,1.5,1.5						S596,613.4,595.1,613.4z"/>				</g>			</g>			<g clip-path="url(#SVGID_8_)">				<g>					<path fill="#060E9F" d="M597.7,621.8h-24.9c-0.8,0-1.5-0.7-1.5-1.5s0.7-1.5,1.5-1.5h24.9c0.8,0,1.5,0.7,1.5,1.5						S598.5,621.8,597.7,621.8z"/>				</g>			</g>			<g clip-path="url(#SVGID_8_)">				<g>					<path fill="#060E9F" d="M597.7,569.8h-24.9c-0.8,0-1.5-0.7-1.5-1.5s0.7-1.5,1.5-1.5h24.9c0.8,0,1.5,0.7,1.5,1.5						S598.5,569.8,597.7,569.8z"/>				</g>			</g>			<g clip-path="url(#SVGID_8_)">				<g>					<path fill="#060E9F" d="M595.1,577.9h-21.3c-0.8,0-1.5-0.7-1.5-1.5s0.7-1.5,1.5-1.5h21.3c0.8,0,1.5,0.7,1.5,1.5						S596,577.9,595.1,577.9z"/>				</g>			</g>			<g clip-path="url(#SVGID_8_)">				<g>					<path fill="#060E9F" d="M591.1,586h-13.5c-0.8,0-1.5-0.7-1.5-1.5s0.7-1.5,1.5-1.5h13.5c0.8,0,1.5,0.7,1.5,1.5						S591.9,586,591.1,586z"/>				</g>			</g>			<g clip-path="url(#SVGID_8_)">				<g>					<path fill="#060E9F" d="M572.8,570.3c-1.1,0-2-0.9-2-2c0-15.3,8-21.7,15.8-28c7.1-5.7,13.9-11.2,13.9-23.8c0-1.1,0.9-2,2-2						s2,0.9,2,2c0,14.5-7.8,20.8-15.4,26.9c-7.3,5.9-14.3,11.5-14.3,24.9C574.8,569.4,573.9,570.3,572.8,570.3z"/>				</g>			</g>			<g clip-path="url(#SVGID_8_)">				<g>					<path fill="#060E9F" d="M602.4,570.3c-1.1,0-2-0.9-2-2c0-13.4-6.9-19-14.3-24.9c-7.6-6.1-15.4-12.3-15.4-26.9c0-1.1,0.9-2,2-2						s2,0.9,2,2c0,12.6,6.7,18,13.9,23.8c7.8,6.2,15.8,12.7,15.8,28C604.4,569.4,603.5,570.3,602.4,570.3z"/>				</g>			</g>			<g clip-path="url(#SVGID_8_)">				<g>					<path fill="#060E9F" d="M572.8,518.5c-1.1,0-2-0.9-2-2c0-15.3,8-21.7,15.8-28c7.1-5.7,13.9-11.2,13.9-23.8c0-1.1,0.9-2,2-2						s2,0.9,2,2c0,14.5-7.8,20.8-15.4,26.9c-7.3,5.9-14.3,11.5-14.3,24.9C574.8,517.6,573.9,518.5,572.8,518.5z"/>				</g>			</g>			<g clip-path="url(#SVGID_8_)">				<g>					<path fill="#060E9F" d="M602.4,518.5c-1.1,0-2-0.9-2-2c0-13.4-6.9-19-14.3-24.9c-7.6-6.1-15.4-12.3-15.4-26.9c0-1.1,0.9-2,2-2						s2,0.9,2,2c0,12.6,6.7,18,13.9,23.8c7.8,6.2,15.8,12.7,15.8,28C604.4,517.6,603.5,518.5,602.4,518.5z"/>				</g>			</g>			<g clip-path="url(#SVGID_8_)">				<g>					<path fill="#060E9F" d="M597.6,501.6h-13.5c-0.8,0-1.5-0.7-1.5-1.5c0-0.8,0.7-1.5,1.5-1.5h13.5c0.8,0,1.5,0.7,1.5,1.5						C599.1,500.9,598.4,501.6,597.6,501.6z"/>				</g>			</g>			<g clip-path="url(#SVGID_8_)">				<g>					<path fill="#060E9F" d="M601.4,509.7h-21.3c-0.8,0-1.5-0.7-1.5-1.5c0-0.8,0.7-1.5,1.5-1.5h21.3c0.8,0,1.5,0.7,1.5,1.5						C602.9,509,602.2,509.7,601.4,509.7z"/>				</g>			</g>			<g clip-path="url(#SVGID_8_)">				<g>					<path fill="#060E9F" d="M602.4,517.8h-24.9c-0.8,0-1.5-0.7-1.5-1.5s0.7-1.5,1.5-1.5h24.9c0.8,0,1.5,0.7,1.5,1.5						S603.3,517.8,602.4,517.8z"/>				</g>			</g>			<g clip-path="url(#SVGID_8_)">				<g>					<path fill="#060E9F" d="M601.4,525.8h-21.3c-0.8,0-1.5-0.7-1.5-1.5s0.7-1.5,1.5-1.5h21.3c0.8,0,1.5,0.7,1.5,1.5						S602.2,525.8,601.4,525.8z"/>				</g>			</g>			<g clip-path="url(#SVGID_8_)">				<g>					<path fill="#060E9F" d="M597.6,533.9h-13.5c-0.8,0-1.5-0.7-1.5-1.5s0.7-1.5,1.5-1.5h13.5c0.8,0,1.5,0.7,1.5,1.5						S598.4,533.9,597.6,533.9z"/>				</g>			</g>			<g clip-path="url(#SVGID_8_)">				<g>					<path fill="#060E9F" d="M595.1,561.7h-21.3c-0.8,0-1.5-0.7-1.5-1.5s0.7-1.5,1.5-1.5h21.3c0.8,0,1.5,0.7,1.5,1.5						S596,561.7,595.1,561.7z"/>				</g>			</g>			<g clip-path="url(#SVGID_8_)">				<g>					<path fill="#060E9F" d="M591.1,553.6h-13.5c-0.8,0-1.5-0.7-1.5-1.5c0-0.8,0.7-1.5,1.5-1.5h13.5c0.8,0,1.5,0.7,1.5,1.5						C592.6,552.9,591.9,553.6,591.1,553.6z"/>				</g>			</g>			<g clip-path="url(#SVGID_8_)">				<g>					<path fill="#060E9F" d="M602.4,466h-24.9c-0.8,0-1.5-0.7-1.5-1.5c0-0.8,0.7-1.5,1.5-1.5h24.9c0.8,0,1.5,0.7,1.5,1.5						C603.9,465.3,603.3,466,602.4,466z"/>				</g>			</g>			<g clip-path="url(#SVGID_8_)">				<g>					<path fill="#060E9F" d="M601.4,474.1h-21.3c-0.8,0-1.5-0.7-1.5-1.5s0.7-1.5,1.5-1.5h21.3c0.8,0,1.5,0.7,1.5,1.5						S602.2,474.1,601.4,474.1z"/>				</g>			</g>			<g clip-path="url(#SVGID_8_)">				<g>					<path fill="#060E9F" d="M597.6,482.2h-13.5c-0.8,0-1.5-0.7-1.5-1.5c0-0.8,0.7-1.5,1.5-1.5h13.5c0.8,0,1.5,0.7,1.5,1.5						C599.1,481.5,598.4,482.2,597.6,482.2z"/>				</g>			</g>		</g>	</g></g></svg>