<!-- Generator: Adobe Illustrator 17.1.0, SVG Export Plug-In  --><svg version="1.1"	 xmlns="http://www.w3.org/2000/svg" xmlns:xlink="http://www.w3.org/1999/xlink" xmlns:a="http://ns.adobe.com/AdobeSVGViewerExtensions/3.0/"	 x="0px" y="0px" width="286.1px" height="216.1px" viewBox="0 0 286.1 216.1" enable-background="new 0 0 286.1 216.1"	 xml:space="preserve"><defs></defs><g>	<path fill="#060E9F" d="M159.9,54.7l-1.6-14c0-0.1-0.1-0.2-0.1-0.3c0-0.1-0.1-0.2-0.1-0.4c-0.1-0.1-0.1-0.2-0.2-0.3		c-0.1-0.1-0.1-0.1-0.2-0.2c-0.1-0.1-0.3-0.2-0.5-0.3c0,0-0.1,0-0.1-0.1c0,0,0,0-0.1,0c0,0-0.1,0-0.1,0c-0.4-0.1-1.8-0.6-3.6-1v0		c0,0-0.1,0-0.1,0c-0.1,0-0.2,0-0.4-0.1c0,0,0,0-0.1,0c-0.8-0.2-1.6-0.3-2.5-0.3c0,0,0,0-0.1,0c-0.2,0-0.3,0-0.5,0c0,0,0,0-0.1,0		c-0.2,0-0.3,0-0.5,0c0,0,0,0,0,0v0c0,0,0,0,0,0c0,0,0,0,0,0c0,0,0,0,0,0c-0.2,0-0.3,0-0.5,0c0,0,0,0-0.1,0c-0.2,0-0.3,0-0.5,0		c0,0,0,0-0.1,0c-0.8,0.1-1.7,0.2-2.5,0.3c0,0,0,0-0.1,0c-0.1,0-0.2,0-0.4,0.1c0,0-0.1,0-0.1,0v0c-1.7,0.4-3.2,0.9-3.6,1		c0,0-0.1,0-0.1,0c0,0,0,0-0.1,0c0,0-0.1,0-0.1,0.1c-0.2,0.1-0.3,0.2-0.5,0.3c-0.1,0.1-0.1,0.1-0.2,0.2c-0.1,0.1-0.2,0.2-0.2,0.3		c-0.1,0.1-0.1,0.2-0.1,0.4c0,0.1-0.1,0.2-0.1,0.3l-1.5,14c-0.1,1,0.6,1.9,1.6,2c0.1,0,0.1,0,0.2,0c0.9,0,1.7-0.7,1.8-1.6l1.3-12.9		c0.1,0,0.3-0.1,0.5-0.1v12.2l-0.3,4.1c0,0,0,0,0,0L143,71.9c-0.1,1.2,0.8,2.2,2,2.3h0h0.2h0c1.1,0,2-0.8,2.1-2l1.3-15.9		c0.3,0.1,0.5,0.2,0.9,0.2c0,0,0,0,0,0c0,0,0,0,0,0c0,0,0,0,0,0v0c0,0,0,0,0,0c0.3,0,0.6-0.1,0.9-0.2l1.3,15.9c0.1,1.1,1,2,2.1,2h0		h0.2h0c1.2-0.1,2.1-1.1,2-2.3l-1.1-13.5c0,0,0,0,0,0l-0.3-4.1V42.1c0.2,0,0.3,0.1,0.5,0.1l1.4,12.9c0.1,0.9,0.9,1.6,1.8,1.6		c0.1,0,0.1,0,0.2,0C159.3,56.6,160,55.7,159.9,54.7z"/>	<path fill="#060E9F" d="M149.5,27.5C149.4,27.5,149.4,27.5,149.5,27.5L149.5,27.5C149.4,27.5,149.4,27.5,149.5,27.5		C149.4,27.5,149.4,27.5,149.5,27.5C149.4,27.5,149.4,27.5,149.5,27.5c-2.5,0-4.5,2-4.5,4.5c0,2.5,2,5.4,4.5,5.4c0,0,0,0,0,0		c0,0,0,0,0,0c0,0,0,0,0,0v0c0,0,0,0,0,0c2.5,0,4.5-2.9,4.5-5.4C154,29.5,151.9,27.5,149.5,27.5z"/></g><g>	<path fill="#060E9F" d="M285.1,27.3l-1.6-14c0-0.1-0.1-0.2-0.1-0.3c0-0.1-0.1-0.2-0.1-0.4c-0.1-0.1-0.1-0.2-0.2-0.3		c-0.1-0.1-0.1-0.1-0.2-0.2c-0.1-0.1-0.3-0.2-0.5-0.3c0,0-0.1,0-0.1-0.1c0,0,0,0-0.1,0c0,0-0.1,0-0.1,0c-0.4-0.1-1.8-0.6-3.6-1v0		c0,0-0.1,0-0.1,0c-0.1,0-0.2,0-0.4-0.1c0,0,0,0-0.1,0c-0.8-0.2-1.6-0.3-2.5-0.3c0,0,0,0-0.1,0c-0.2,0-0.3,0-0.5,0c0,0,0,0-0.1,0		c-0.2,0-0.3,0-0.5,0c0,0,0,0,0,0v0c0,0,0,0,0,0c0,0,0,0,0,0c0,0,0,0,0,0c-0.2,0-0.3,0-0.5,0c0,0,0,0-0.1,0c-0.2,0-0.3,0-0.5,0		c0,0,0,0-0.1,0c-0.8,0.1-1.7,0.2-2.5,0.3c0,0,0,0-0.1,0c-0.1,0-0.2,0-0.4,0.1c0,0-0.1,0-0.1,0v0c-1.7,0.4-3.2,0.9-3.6,1		c0,0-0.1,0-0.1,0c0,0,0,0-0.1,0c0,0-0.1,0-0.1,0.1c-0.2,0.1-0.3,0.2-0.5,0.3c-0.1,0.1-0.1,0.1-0.2,0.2c-0.1,0.1-0.2,0.2-0.2,0.3		c-0.1,0.1-0.1,0.2-0.1,0.4c0,0.1-0.1,0.2-0.1,0.3l-1.5,14c-0.1,1,0.6,1.9,1.6,2c0.1,0,0.1,0,0.2,0c0.9,0,1.7-0.7,1.8-1.6l1.3-12.9		c0.1,0,0.3-0.1,0.5-0.1v12.2l-0.3,4.1c0,0,0,0,0,0l-1.1,13.5c-0.1,1.2,0.8,2.2,2,2.3h0h0.2h0c1.1,0,2-0.8,2.1-2l1.3-15.9		c0.3,0.1,0.5,0.2,0.9,0.2c0,0,0,0,0,0c0,0,0,0,0,0c0,0,0,0,0,0v0c0,0,0,0,0,0c0.3,0,0.6-0.1,0.9-0.2l1.3,15.9c0.1,1.1,1,2,2.1,2h0		h0.2h0c1.2-0.1,2.1-1.1,2-2.3L280,30.9c0,0,0,0,0,0l-0.3-4.1V14.6c0.2,0,0.3,0.1,0.5,0.1l1.4,12.9c0.1,0.9,0.9,1.6,1.8,1.6		c0.1,0,0.1,0,0.2,0C284.5,29.1,285.2,28.2,285.1,27.3z"/>	<path fill="#060E9F" d="M274.6,0C274.6,0,274.6,0,274.6,0L274.6,0C274.6,0,274.6,0,274.6,0C274.6,0,274.6,0,274.6,0		C274.6,0,274.6,0,274.6,0c-2.5,0-4.5,2-4.5,4.5c0,2.5,2,5.4,4.5,5.4c0,0,0,0,0,0c0,0,0,0,0,0c0,0,0,0,0,0v0c0,0,0,0,0,0		c2.5,0,4.5-2.9,4.5-5.4C279.1,2,277.1,0,274.6,0z"/></g><g>	<path fill="none" stroke="#007ABF" stroke-width="2" stroke-linecap="round" stroke-linejoin="round" stroke-miterlimit="10" d="		M285.1,82.2l-1.6-14c0-0.1-0.1-0.2-0.1-0.3c0-0.1-0.1-0.2-0.1-0.4c-0.1-0.1-0.1-0.2-0.2-0.3c-0.1-0.1-0.1-0.1-0.2-0.2		c-0.1-0.1-0.3-0.2-0.5-0.3c0,0-0.1,0-0.1-0.1c0,0,0,0-0.1,0c0,0-0.1,0-0.1,0c-0.4-0.1-1.8-0.6-3.6-1v0c0,0-0.1,0-0.1,0		c-0.1,0-0.2,0-0.4-0.1c0,0,0,0-0.1,0c-0.8-0.2-1.6-0.3-2.5-0.3c0,0,0,0-0.1,0c-0.2,0-0.3,0-0.5,0c0,0,0,0-0.1,0c-0.2,0-0.3,0-0.5,0		c0,0,0,0,0,0v0c0,0,0,0,0,0c0,0,0,0,0,0c0,0,0,0,0,0c-0.2,0-0.3,0-0.5,0c0,0,0,0-0.1,0c-0.2,0-0.3,0-0.5,0c0,0,0,0-0.1,0		c-0.8,0.1-1.7,0.2-2.5,0.3c0,0,0,0-0.1,0c-0.1,0-0.2,0-0.4,0.1c0,0-0.1,0-0.1,0v0c-1.7,0.4-3.2,0.9-3.6,1c0,0-0.1,0-0.1,0		c0,0,0,0-0.1,0c0,0-0.1,0-0.1,0.1c-0.2,0.1-0.3,0.2-0.5,0.3c-0.1,0.1-0.1,0.1-0.2,0.2c-0.1,0.1-0.2,0.2-0.2,0.3		c-0.1,0.1-0.1,0.2-0.1,0.4c0,0.1-0.1,0.2-0.1,0.3l-1.5,14c-0.1,1,0.6,1.9,1.6,2c0.1,0,0.1,0,0.2,0c0.9,0,1.7-0.7,1.8-1.6l1.3-12.9		c0.1,0,0.3-0.1,0.5-0.1v12.2l-0.3,4.1c0,0,0,0,0,0l-1.1,13.5c-0.1,1.2,0.8,2.2,2,2.3h0h0.2h0c1.1,0,2-0.8,2.1-2l1.3-15.9		c0.3,0.1,0.5,0.2,0.9,0.2c0,0,0,0,0,0c0,0,0,0,0,0c0,0,0,0,0,0v0c0,0,0,0,0,0c0.3,0,0.6-0.1,0.9-0.2l1.3,15.9c0.1,1.1,1,2,2.1,2h0		h0.2h0c1.2-0.1,2.1-1.1,2-2.3L280,85.8c0,0,0,0,0,0l-0.3-4.1V69.6c0.2,0,0.3,0.1,0.5,0.1l1.4,12.9c0.1,0.9,0.9,1.6,1.8,1.6		c0.1,0,0.1,0,0.2,0C284.5,84,285.2,83.1,285.1,82.2z"/>	<path fill="none" stroke="#007ABF" stroke-width="2" stroke-linecap="round" stroke-linejoin="round" stroke-miterlimit="10" d="		M274.6,54.9C274.6,54.9,274.6,54.9,274.6,54.9L274.6,54.9C274.6,54.9,274.6,54.9,274.6,54.9C274.6,54.9,274.6,54.9,274.6,54.9		C274.6,54.9,274.6,54.9,274.6,54.9c-2.5,0-4.5,2-4.5,4.5c0,2.5,2,5.4,4.5,5.4c0,0,0,0,0,0c0,0,0,0,0,0c0,0,0,0,0,0v0c0,0,0,0,0,0		c2.5,0,4.5-2.9,4.5-5.4C279.1,56.9,277.1,54.9,274.6,54.9z"/></g><g>	<path fill="none" stroke="#007ABF" stroke-width="2" stroke-linecap="round" stroke-linejoin="round" stroke-miterlimit="10" d="		M159.9,165.2l-1.6-14c0-0.1-0.1-0.2-0.1-0.3c0-0.1-0.1-0.2-0.1-0.4c-0.1-0.1-0.1-0.2-0.2-0.3c-0.1-0.1-0.1-0.1-0.2-0.2		c-0.1-0.1-0.3-0.2-0.5-0.3c0,0-0.1,0-0.1-0.1c0,0,0,0-0.1,0c0,0-0.1,0-0.1,0c-0.4-0.1-1.8-0.6-3.6-1v0c0,0-0.1,0-0.1,0		c-0.1,0-0.2,0-0.4-0.1c0,0,0,0-0.1,0c-0.8-0.2-1.6-0.3-2.5-0.3c0,0,0,0-0.1,0c-0.2,0-0.3,0-0.5,0c0,0,0,0-0.1,0c-0.2,0-0.3,0-0.5,0		c0,0,0,0,0,0v0c0,0,0,0,0,0c0,0,0,0,0,0c0,0,0,0,0,0c-0.2,0-0.3,0-0.5,0c0,0,0,0-0.1,0c-0.2,0-0.3,0-0.5,0c0,0,0,0-0.1,0		c-0.8,0.1-1.7,0.2-2.5,0.3c0,0,0,0-0.1,0c-0.1,0-0.2,0-0.4,0.1c0,0-0.1,0-0.1,0v0c-1.7,0.4-3.2,0.9-3.6,1c0,0-0.1,0-0.1,0		c0,0,0,0-0.1,0c0,0-0.1,0-0.1,0.1c-0.2,0.1-0.3,0.2-0.5,0.3c-0.1,0.1-0.1,0.1-0.2,0.2c-0.1,0.1-0.2,0.2-0.2,0.3		c-0.1,0.1-0.1,0.2-0.1,0.4c0,0.1-0.1,0.2-0.1,0.3l-1.5,14c-0.1,1,0.6,1.9,1.6,2c0.1,0,0.1,0,0.2,0c0.9,0,1.7-0.7,1.8-1.6l1.3-12.9		c0.1,0,0.3-0.1,0.5-0.1v12.2l-0.3,4.1c0,0,0,0,0,0l-1.1,13.5c-0.1,1.2,0.8,2.2,2,2.3h0h0.2h0c1.1,0,2-0.8,2.1-2l1.3-15.9		c0.3,0.1,0.5,0.2,0.9,0.2c0,0,0,0,0,0c0,0,0,0,0,0c0,0,0,0,0,0v0c0,0,0,0,0,0c0.3,0,0.6-0.1,0.9-0.2l1.3,15.9c0.1,1.1,1,2,2.1,2h0		h0.2h0c1.2-0.1,2.1-1.1,2-2.3l-1.1-13.5c0,0,0,0,0,0l-0.3-4.1v-12.2c0.2,0,0.3,0.1,0.5,0.1l1.4,12.9c0.1,0.9,0.9,1.6,1.8,1.6		c0.1,0,0.1,0,0.2,0C159.3,167.1,160,166.2,159.9,165.2z"/>	<path fill="none" stroke="#007ABF" stroke-width="2" stroke-linecap="round" stroke-linejoin="round" stroke-miterlimit="10" d="		M149.5,138C149.4,138,149.4,138,149.5,138L149.5,138C149.4,138,149.4,138,149.5,138C149.4,138,149.4,138,149.5,138		C149.4,138,149.4,138,149.5,138c-2.5,0-4.5,2-4.5,4.5c0,2.5,2,5.4,4.5,5.4c0,0,0,0,0,0c0,0,0,0,0,0c0,0,0,0,0,0v0c0,0,0,0,0,0		c2.5,0,4.5-2.9,4.5-5.4C154,140,151.9,138,149.5,138z"/></g><g>	<path fill="none" stroke="#007ABF" stroke-width="2" stroke-linecap="round" stroke-linejoin="round" stroke-miterlimit="10" d="		M285.1,140.8l-1.6-14c0-0.1-0.1-0.2-0.1-0.3c0-0.1-0.1-0.2-0.1-0.4c-0.1-0.1-0.1-0.2-0.2-0.3c-0.1-0.1-0.1-0.1-0.2-0.2		c-0.1-0.1-0.3-0.2-0.5-0.3c0,0-0.1,0-0.1-0.1c0,0,0,0-0.1,0c0,0-0.1,0-0.1,0c-0.4-0.1-1.8-0.6-3.6-1v0c0,0-0.1,0-0.1,0		c-0.1,0-0.2,0-0.4-0.1c0,0,0,0-0.1,0c-0.8-0.2-1.6-0.3-2.5-0.3c0,0,0,0-0.1,0c-0.2,0-0.3,0-0.5,0c0,0,0,0-0.1,0c-0.2,0-0.3,0-0.5,0		c0,0,0,0,0,0v0c0,0,0,0,0,0c0,0,0,0,0,0c0,0,0,0,0,0c-0.2,0-0.3,0-0.5,0c0,0,0,0-0.1,0c-0.2,0-0.3,0-0.5,0c0,0,0,0-0.1,0		c-0.8,0.1-1.7,0.2-2.5,0.3c0,0,0,0-0.1,0c-0.1,0-0.2,0-0.4,0.1c0,0-0.1,0-0.1,0v0c-1.7,0.4-3.2,0.9-3.6,1c0,0-0.1,0-0.1,0		c0,0,0,0-0.1,0c0,0-0.1,0-0.1,0.1c-0.2,0.1-0.3,0.2-0.5,0.3c-0.1,0.1-0.1,0.1-0.2,0.2c-0.1,0.1-0.2,0.2-0.2,0.3		c-0.1,0.1-0.1,0.2-0.1,0.4c0,0.1-0.1,0.2-0.1,0.3l-1.5,14c-0.1,1,0.6,1.9,1.6,2c0.1,0,0.1,0,0.2,0c0.9,0,1.7-0.7,1.8-1.6l1.3-12.9		c0.1,0,0.3-0.1,0.5-0.1v12.2l-0.3,4.1c0,0,0,0,0,0l-1.1,13.5c-0.1,1.2,0.8,2.2,2,2.3h0h0.2h0c1.1,0,2-0.8,2.1-2l1.3-15.9		c0.3,0.1,0.5,0.2,0.9,0.2c0,0,0,0,0,0c0,0,0,0,0,0c0,0,0,0,0,0v0c0,0,0,0,0,0c0.3,0,0.6-0.1,0.9-0.2l1.3,15.9c0.1,1.1,1,2,2.1,2h0		h0.2h0c1.2-0.1,2.1-1.1,2-2.3l-1.1-13.5c0,0,0,0,0,0l-0.3-4.1v-12.2c0.2,0,0.3,0.1,0.5,0.1l1.4,12.9c0.1,0.9,0.9,1.6,1.8,1.6		c0.1,0,0.1,0,0.2,0C284.5,142.6,285.2,141.7,285.1,140.8z"/>	<path fill="none" stroke="#007ABF" stroke-width="2" stroke-linecap="round" stroke-linejoin="round" stroke-miterlimit="10" d="		M274.6,113.5C274.6,113.5,274.6,113.5,274.6,113.5L274.6,113.5C274.6,113.5,274.6,113.5,274.6,113.5		C274.6,113.5,274.6,113.5,274.6,113.5C274.6,113.5,274.6,113.5,274.6,113.5c-2.5,0-4.5,2-4.5,4.5c0,2.5,2,5.4,4.5,5.4c0,0,0,0,0,0		c0,0,0,0,0,0c0,0,0,0,0,0v0c0,0,0,0,0,0c2.5,0,4.5-2.9,4.5-5.4C279.1,115.5,277.1,113.5,274.6,113.5z"/></g><g>	<path fill="none" stroke="#007ABF" stroke-width="2" stroke-linecap="round" stroke-linejoin="round" stroke-miterlimit="10" d="		M285.1,195.7l-1.6-14c0-0.1-0.1-0.2-0.1-0.3c0-0.1-0.1-0.2-0.1-0.4c-0.1-0.1-0.1-0.2-0.2-0.3c-0.1-0.1-0.1-0.1-0.2-0.2		c-0.1-0.1-0.3-0.2-0.5-0.3c0,0-0.1,0-0.1-0.1c0,0,0,0-0.1,0c0,0-0.1,0-0.1,0c-0.4-0.1-1.8-0.6-3.6-1v0c0,0-0.1,0-0.1,0		c-0.1,0-0.2,0-0.4-0.1c0,0,0,0-0.1,0c-0.8-0.2-1.6-0.3-2.5-0.3c0,0,0,0-0.1,0c-0.2,0-0.3,0-0.5,0c0,0,0,0-0.1,0c-0.2,0-0.3,0-0.5,0		c0,0,0,0,0,0v0c0,0,0,0,0,0c0,0,0,0,0,0c0,0,0,0,0,0c-0.2,0-0.3,0-0.5,0c0,0,0,0-0.1,0c-0.2,0-0.3,0-0.5,0c0,0,0,0-0.1,0		c-0.8,0.1-1.7,0.2-2.5,0.3c0,0,0,0-0.1,0c-0.1,0-0.2,0-0.4,0.1c0,0-0.1,0-0.1,0v0c-1.7,0.4-3.2,0.9-3.6,1c0,0-0.1,0-0.1,0		c0,0,0,0-0.1,0c0,0-0.1,0-0.1,0.1c-0.2,0.1-0.3,0.2-0.5,0.3c-0.1,0.1-0.1,0.1-0.2,0.2c-0.1,0.1-0.2,0.2-0.2,0.3		c-0.1,0.1-0.1,0.2-0.1,0.4c0,0.1-0.1,0.2-0.1,0.3l-1.5,14c-0.1,1,0.6,1.9,1.6,2c0.1,0,0.1,0,0.2,0c0.9,0,1.7-0.7,1.8-1.6l1.3-12.9		c0.1,0,0.3-0.1,0.5-0.1v12.2l-0.3,4.1c0,0,0,0,0,0l-1.1,13.5c-0.1,1.2,0.8,2.2,2,2.3h0h0.2h0c1.1,0,2-0.8,2.1-2l1.3-15.9		c0.3,0.1,0.5,0.2,0.9,0.2c0,0,0,0,0,0c0,0,0,0,0,0c0,0,0,0,0,0v0c0,0,0,0,0,0c0.3,0,0.6-0.1,0.9-0.2l1.3,15.9c0.1,1.1,1,2,2.1,2h0		h0.2h0c1.2-0.1,2.1-1.1,2-2.3l-1.1-13.5c0,0,0,0,0,0l-0.3-4.1v-12.2c0.2,0,0.3,0.1,0.5,0.1l1.4,12.9c0.1,0.9,0.9,1.6,1.8,1.6		c0.1,0,0.1,0,0.2,0C284.5,197.5,285.2,196.6,285.1,195.7z"/>	<path fill="none" stroke="#007ABF" stroke-width="2" stroke-linecap="round" stroke-linejoin="round" stroke-miterlimit="10" d="		M274.6,168.4C274.6,168.4,274.6,168.4,274.6,168.4L274.6,168.4C274.6,168.4,274.6,168.4,274.6,168.4		C274.6,168.4,274.6,168.4,274.6,168.4C274.6,168.4,274.6,168.4,274.6,168.4c-2.5,0-4.5,2-4.5,4.5c0,2.5,2,5.4,4.5,5.4c0,0,0,0,0,0		c0,0,0,0,0,0c0,0,0,0,0,0v0c0,0,0,0,0,0c2.5,0,4.5-2.9,4.5-5.4C279.1,170.4,277.1,168.4,274.6,168.4z"/></g><g>	<path fill="#060E9F" d="M20.8,118.5l-1.6-14c0-0.1-0.1-0.2-0.1-0.3c0-0.1-0.1-0.2-0.1-0.4c-0.1-0.1-0.1-0.2-0.2-0.3		c-0.1-0.1-0.1-0.1-0.2-0.2c-0.1-0.1-0.3-0.2-0.5-0.3c0,0-0.1,0-0.1-0.1c0,0,0,0-0.1,0c0,0-0.1,0-0.1,0c-0.4-0.1-1.8-0.6-3.6-1v0		c0,0-0.1,0-0.1,0c-0.1,0-0.2,0-0.4-0.1c0,0,0,0-0.1,0c-0.8-0.2-1.6-0.3-2.5-0.3c0,0,0,0-0.1,0c-0.2,0-0.3,0-0.5,0c0,0,0,0-0.1,0		c-0.2,0-0.3,0-0.5,0c0,0,0,0,0,0v0c0,0,0,0,0,0c0,0,0,0,0,0c0,0,0,0,0,0c-0.2,0-0.3,0-0.5,0c0,0,0,0-0.1,0c-0.2,0-0.3,0-0.5,0		c0,0,0,0-0.1,0c-0.8,0.1-1.7,0.2-2.5,0.3c0,0,0,0-0.1,0c-0.1,0-0.2,0-0.4,0.1c0,0-0.1,0-0.1,0v0c-1.7,0.4-3.2,0.9-3.6,1		c0,0-0.1,0-0.1,0c0,0,0,0-0.1,0c0,0-0.1,0-0.1,0.1c-0.2,0.1-0.3,0.2-0.5,0.3c-0.1,0.1-0.1,0.1-0.2,0.2c-0.1,0.1-0.2,0.2-0.2,0.3		c-0.1,0.1-0.1,0.2-0.1,0.4c0,0.1-0.1,0.2-0.1,0.3l-1.5,14c-0.1,1,0.6,1.9,1.6,2c0.1,0,0.1,0,0.2,0c0.9,0,1.7-0.7,1.8-1.6L4.9,106		c0.1,0,0.3-0.1,0.5-0.1V118l-0.3,4.1c0,0,0,0,0,0L4,135.6c-0.1,1.2,0.8,2.2,2,2.3h0h0.2h0c1.1,0,2-0.8,2.1-2l1.3-15.9		c0.3,0.1,0.5,0.2,0.9,0.2c0,0,0,0,0,0c0,0,0,0,0,0c0,0,0,0,0,0v0c0,0,0,0,0,0c0.3,0,0.6-0.1,0.9-0.2l1.3,15.9c0.1,1.1,1,2,2.1,2h0		h0.2h0c1.2-0.1,2.1-1.1,2-2.3l-1.1-13.5c0,0,0,0,0,0l-0.3-4.1v-12.2c0.2,0,0.3,0.1,0.5,0.1l1.4,12.9c0.1,0.9,0.9,1.6,1.8,1.6		c0.1,0,0.1,0,0.2,0C20.2,120.3,20.9,119.4,20.8,118.5z"/>	<path fill="#060E9F" d="M10.4,91.2C10.4,91.2,10.4,91.2,10.4,91.2L10.4,91.2C10.4,91.2,10.4,91.2,10.4,91.2		C10.4,91.2,10.4,91.2,10.4,91.2C10.4,91.2,10.4,91.2,10.4,91.2c-2.5,0-4.5,2-4.5,4.5c0,2.5,2,5.4,4.5,5.4c0,0,0,0,0,0c0,0,0,0,0,0		c0,0,0,0,0,0v0c0,0,0,0,0,0c2.5,0,4.5-2.9,4.5-5.4C14.9,93.2,12.9,91.2,10.4,91.2z"/></g><polyline fill="none" stroke="#B6008D" stroke-width="3" stroke-miterlimit="10" points="28.2,107.5 51.3,107.5 51.3,52.1 	132.2,52.1 "/><polyline fill="none" stroke="#B6008D" stroke-width="3" stroke-miterlimit="10" points="166.9,52.1 181.7,52.1 181.7,24.6 	255.3,24.6 "/><polyline fill="none" stroke="#B6008D" stroke-width="3" stroke-miterlimit="10" points="166.9,52.1 181.7,52.1 181.7,79.6 	255.3,79.6 "/><polyline fill="none" stroke="#B6008D" stroke-width="3" stroke-miterlimit="10" points="28.2,108.1 51.3,108.1 51.3,163.5 	132.2,163.5 "/><polyline fill="none" stroke="#B6008D" stroke-width="3" stroke-miterlimit="10" points="166.9,163.5 181.7,163.5 181.7,191 	255.3,191 "/><polyline fill="none" stroke="#B6008D" stroke-width="3" stroke-miterlimit="10" points="166.9,163.4 181.7,163.4 181.7,135.9 	255.3,135.9 "/></svg>