<!-- Generator: Adobe Illustrator 17.1.0, SVG Export Plug-In  --><svg version="1.1"	 xmlns="http://www.w3.org/2000/svg" xmlns:xlink="http://www.w3.org/1999/xlink" xmlns:a="http://ns.adobe.com/AdobeSVGViewerExtensions/3.0/"	 x="0px" y="0px" width="135.5px" height="33.7px" viewBox="0 0 135.5 33.7" enable-background="new 0 0 135.5 33.7"	 xml:space="preserve"><defs></defs><g>	<path fill="#007ABF" d="M6.5,5.8V14h13.2v5.8H6.5v13.6H0V0h22v5.8H6.5z"/>	<path fill="#007ABF" d="M37.8,33.4v-2.1c-1.6,1.6-3.2,2.3-6,2.3c-2.8,0-4.8-0.7-6.2-2.2c-1.3-1.4-2-3.3-2-5.5		c0-3.9,2.7-7.1,8.4-7.1h5.8v-1.2c0-2.7-1.3-3.8-4.6-3.8c-2.3,0-3.4,0.6-4.7,2l-3.9-3.8c2.4-2.6,4.7-3.4,8.8-3.4		c6.9,0,10.4,2.9,10.4,8.6v16.1H37.8z M37.7,23.1h-4.8c-2.2,0-3.4,1-3.4,2.8c0,1.7,1.1,2.8,3.5,2.8c1.7,0,2.8-0.1,3.8-1.2		c0.7-0.6,0.9-1.6,0.9-3.1V23.1z"/>	<path fill="#007ABF" d="M57.6,33.4c-5,0-7.1-3.5-7.1-7V14.3H48V9.7h2.6V2.4h6.1v7.2H61v4.6h-4.3V26c0,1.4,0.7,2.2,2.1,2.2H61v5.2		H57.6z"/>	<path fill="#007ABF" d="M80.1,33.4V18.5c0-3.2-2.1-4.3-4-4.3c-1.9,0-3.9,1.1-3.9,4.3v14.9h-6.1V0h6.1v11.2c1.6-1.7,3.7-2.5,5.9-2.5		c5.3,0,8.2,3.8,8.2,8.9v15.8H80.1z"/>	<path fill="#007ABF" d="M97.2,23.1c0,3.1,1.9,5.4,5.3,5.4c2.7,0,4-0.7,5.5-2.3l3.7,3.6c-2.5,2.5-4.9,3.8-9.3,3.8		c-5.8,0-11.3-2.6-11.3-12.5c0-8,4.3-12.5,10.7-12.5c6.8,0,10.7,5,10.7,11.7v2.7H97.2z M105.9,16.3c-0.7-1.5-2-2.5-4.1-2.5		c-2.1,0-3.4,1.1-4.1,2.5c-0.4,0.9-0.5,1.5-0.6,2.6h9.3C106.4,17.8,106.3,17.2,105.9,16.3z"/>	<path fill="#007ABF" d="M130.9,15.6c-0.9-0.9-1.7-1.5-3.2-1.5c-1.9,0-3.9,1.4-3.9,4.5v14.7h-6.1V9h6v2.3c1.2-1.4,3.5-2.6,6.1-2.6		c2.4,0,4.1,0.6,5.8,2.3L130.9,15.6z"/></g></svg>