<!-- Generator: Adobe Illustrator 17.1.0, SVG Export Plug-In  --><svg version="1.1"	 xmlns="http://www.w3.org/2000/svg" xmlns:xlink="http://www.w3.org/1999/xlink" xmlns:a="http://ns.adobe.com/AdobeSVGViewerExtensions/3.0/"	 x="0px" y="0px" width="237.2px" height="237.5px" viewBox="0 0 237.2 237.5" enable-background="new 0 0 237.2 237.5"	 xml:space="preserve"><defs></defs><g>	<g>		<path fill="#B6008D" d="M93.7,161.7c-1,0-2-0.4-2.8-1.1l-25.3-25.3c-1.5-1.5-1.5-4,0-5.5c1.5-1.5,4-1.5,5.5,0L96.4,155			c1.5,1.5,1.5,4,0,5.5C95.7,161.3,94.7,161.7,93.7,161.7z"/>	</g>	<g>		<path fill="#B6008D" d="M40.6,237.5c-1,0-2-0.4-2.8-1.1c-1.5-1.5-1.5-4,0-5.5c16.4-16.4,14.8-31.8,13-48.2			c-1.9-17-3.8-34.5,14.4-52.7c1.5-1.5,4-1.5,5.5,0c1.5,1.5,1.5,4,0,5.5c-15.5,15.5-13.9,30.5-12.1,46.3			c1.8,16.6,3.9,35.4-15.2,54.5C42.6,237.2,41.6,237.5,40.6,237.5z"/>	</g>	<g>		<path fill="#B6008D" d="M3.9,200.8c-1,0-2-0.4-2.8-1.1c-1.5-1.5-1.5-4,0-5.5c19.1-19.1,37.9-17,54.5-15.2			c15.8,1.7,30.8,3.4,46.3-12.1c1.5-1.5,4-1.5,5.5,0c1.5,1.5,1.5,4,0,5.5c-18.1,18.1-35.7,16.2-52.7,14.4			c-16.3-1.8-31.7-3.5-48.2,13C5.9,200.4,4.9,200.8,3.9,200.8z"/>	</g>	<g>		<path fill="#B6008D" d="M68.4,136.3c-1,0-2-0.4-2.8-1.1c-1.5-1.5-1.5-4,0-5.5c19.1-19.1,37.9-17,54.5-15.2			c15.9,1.7,30.8,3.4,46.3-12.1c1.5-1.5,4-1.5,5.5,0c1.5,1.5,1.5,4,0,5.5c-18.1,18.1-35.7,16.2-52.7,14.4			c-16.3-1.8-31.7-3.5-48.2,13C70.3,136,69.3,136.3,68.4,136.3z"/>	</g>	<g>		<path fill="#B6008D" d="M105.1,173.1c-1,0-2-0.4-2.8-1.1c-1.5-1.5-1.5-4,0-5.5c16.4-16.4,14.8-31.8,13-48.2			c-1.9-17-3.8-34.5,14.4-52.7c1.5-1.5,4-1.5,5.5,0c1.5,1.5,1.5,4,0,5.5c-15.5,15.5-13.9,30.5-12.1,46.3			c1.8,16.6,3.9,35.4-15.2,54.5C107.1,172.7,106.1,173.1,105.1,173.1z"/>	</g>	<g>		<path fill="#B6008D" d="M132.4,72.2c-1,0-2-0.4-2.8-1.1c-1.5-1.5-1.5-4,0-5.5c19.1-19.1,37.9-17,54.5-15.2			c15.8,1.7,30.8,3.4,46.3-12.1c1.5-1.5,4-1.5,5.5,0c1.5,1.5,1.5,4,0,5.5c-18.1,18.1-35.7,16.2-52.7,14.4			c-16.3-1.8-31.7-3.5-48.2,13C134.4,71.9,133.4,72.2,132.4,72.2z"/>	</g>	<g>		<path fill="#B6008D" d="M179.5,86.8c-1,0-2-0.4-2.8-1.1l-11.2-11.2c-1.5-1.5-1.5-4,0-5.5c1.5-1.5,4-1.5,5.5,0l11.2,11.2			c1.5,1.5,1.5,4,0,5.5C181.5,86.4,180.5,86.8,179.5,86.8z"/>	</g>	<g>		<path fill="#B6008D" d="M169.5,108.6c-1,0-2-0.4-2.8-1.1l-25.3-25.3c-1.5-1.5-1.5-4,0-5.5c1.5-1.5,4-1.5,5.5,0l25.3,25.3			c1.5,1.5,1.5,4,0,5.5C171.5,108.3,170.5,108.6,169.5,108.6z"/>	</g>	<g>		<path fill="#B6008D" d="M147.7,118.6c-1,0-2-0.4-2.8-1.1l-11.2-11.2c-1.5-1.5-1.5-4,0-5.5c1.5-1.5,4-1.5,5.5,0l11.2,11.2			c1.5,1.5,1.5,4,0,5.5C149.7,118.2,148.7,118.6,147.7,118.6z"/>	</g>	<g>		<path fill="#B6008D" d="M69.6,169.4c-1,0-2-0.4-2.8-1.1l-11.2-11.2c-1.5-1.5-1.5-4,0-5.5c1.5-1.5,4-1.5,5.5,0l11.2,11.2			c1.5,1.5,1.5,4,0,5.5C71.6,169,70.6,169.4,69.6,169.4z"/>	</g>	<g>		<path fill="#B6008D" d="M101.4,137.6c-1,0-2-0.4-2.8-1.1l-11.2-11.2c-1.5-1.5-1.5-4,0-5.5c1.5-1.5,4-1.5,5.5,0l11.2,11.2			c1.5,1.5,1.5,4,0,5.5C103.4,137.2,102.4,137.6,101.4,137.6z"/>	</g>	<g>		<path fill="#B6008D" d="M169.2,109c-1,0-2-0.4-2.8-1.1c-1.5-1.5-1.5-4,0-5.5c16.4-16.4,14.8-31.8,13-48.2			c-1.9-17-3.8-34.5,14.4-52.7c1.5-1.5,4-1.5,5.5,0c1.5,1.5,1.5,4,0,5.5c-15.5,15.5-13.9,30.5-12.1,46.3			c1.8,16.6,3.9,35.4-15.2,54.5C171.2,108.6,170.2,109,169.2,109z"/>	</g>	<g>		<path fill="#B6008D" d="M50.9,215.3c-1,0-2-0.4-2.8-1.1L37,203c-1.5-1.5-1.5-4,0-5.5c1.5-1.5,4-1.5,5.5,0l11.2,11.2			c1.5,1.5,1.5,4,0,5.5C52.9,214.9,51.9,215.3,50.9,215.3z"/>	</g>	<g>		<path fill="#B6008D" d="M41,237.2c-1,0-2-0.4-2.8-1.1l-25.3-25.3c-1.5-1.5-1.5-4,0-5.5c1.5-1.5,4-1.5,5.5,0l25.3,25.3			c1.5,1.5,1.5,4,0,5.5C43,236.8,42,237.2,41,237.2z"/>	</g>	<g>		<path fill="#B6008D" d="M198.1,40.9c-1,0-2-0.4-2.8-1.1l-11.2-11.2c-1.5-1.5-1.5-4,0-5.5c1.5-1.5,4-1.5,5.5,0l11.2,11.2			c1.5,1.5,1.5,4,0,5.5C200.1,40.5,199.1,40.9,198.1,40.9z"/>	</g>	<g>		<path fill="#B6008D" d="M222.2,33.1c-1,0-2-0.4-2.8-1.1L194.1,6.7c-1.5-1.5-1.5-4,0-5.5c1.5-1.5,4-1.5,5.5,0L225,26.5			c1.5,1.5,1.5,4,0,5.5C224.2,32.8,223.2,33.1,222.2,33.1z"/>	</g></g></svg>