<!-- Generator: Adobe Illustrator 17.1.0, SVG Export Plug-In  --><svg version="1.1"	 xmlns="http://www.w3.org/2000/svg" xmlns:xlink="http://www.w3.org/1999/xlink" xmlns:a="http://ns.adobe.com/AdobeSVGViewerExtensions/3.0/"	 x="0px" y="0px" width="89.5px" height="27.2px" viewBox="0 0 89.5 27.2" enable-background="new 0 0 89.5 27.2"	 xml:space="preserve"><defs></defs><g>	<path fill="#060E9F" d="M5.5,21.7c-2.3,0-3.9-0.6-5.5-2.2l2.8-2.7c0.7,0.7,1.3,1.2,2.7,1.2c2,0,3.4-1.2,3.4-3.7V0.1H13v14.3		C13,19.2,9.4,21.7,5.5,21.7z"/>	<path fill="#060E9F" d="M17,3.2V0h4v3.2H17z M17.1,21.5V5.8H21v15.6H17.1z"/>	<path fill="#060E9F" d="M43.2,21.5V12c0-2.1-1.4-2.8-2.6-2.8c-1.2,0-2.6,0.7-2.6,2.8v9.5h-3.9V12c0-2.1-1.3-2.8-2.6-2.8		s-2.6,0.7-2.6,2.8v9.4H25V5.8h3.8v1.4c1-1,2.5-1.6,3.9-1.6c1.7,0,3.1,0.6,4.1,2c1.3-1.4,2.7-2,4.7-2c1.6,0,3,0.5,3.8,1.4		c1.3,1.3,1.7,2.7,1.7,4.4v10H43.2z"/>	<path fill="#060E9F" d="M69.3,21.5V12c0-2.1-1.4-2.8-2.6-2.8c-1.2,0-2.6,0.7-2.6,2.8v9.5h-3.9V12c0-2.1-1.4-2.8-2.6-2.8		S55,9.9,55,12v9.4h-3.9V5.8h3.8v1.4c1-1,2.5-1.6,3.9-1.6c1.7,0,3.1,0.6,4.1,2c1.3-1.4,2.7-2,4.7-2c1.6,0,3,0.5,3.8,1.4		c1.3,1.3,1.7,2.7,1.7,4.4v10H69.3z"/>	<path fill="#060E9F" d="M82.8,24c-0.3,0.9-0.7,1.5-1.2,2c-0.9,0.9-2.1,1.2-3.4,1.2h-1.5v-3.5h0.9c1.1,0,1.6-0.3,1.9-1.4l0.7-1.9		L74.9,5.8H79l3.2,9.7l3.1-9.7h4.1L82.8,24z"/></g></svg>