<!-- Generator: Adobe Illustrator 17.1.0, SVG Export Plug-In  --><svg version="1.1"	 xmlns="http://www.w3.org/2000/svg" xmlns:xlink="http://www.w3.org/1999/xlink" xmlns:a="http://ns.adobe.com/AdobeSVGViewerExtensions/3.0/"	 x="0px" y="0px" width="83.5px" height="190.8px" viewBox="0 0 83.5 190.8" enable-background="new 0 0 83.5 190.8"	 xml:space="preserve"><defs></defs><path fill="none" stroke="#060E9F" stroke-width="4" stroke-linecap="round" stroke-linejoin="round" stroke-miterlimit="10" d="	M41.8,41.9c7,0,13-5.6,16.1-12.3c1.4-3,2.2-6.3,2.2-9.4c0-2-0.3-3.8-0.9-5.6C56.7,7.3,49.9,2,41.8,2s-15,5.3-17.3,12.6	c-0.6,1.8-0.9,3.6-0.9,5.6c0,3.1,0.8,6.4,2.2,9.4C28.8,36.4,34.8,41.9,41.8,41.9"/><g>	<path fill="#060E9F" d="M41.8,47.3c0.6,0,1.1,0,1.7,0c0.1,0,0.2,0,0.3,0c0.6,0,1.1,0.1,1.7,0.1l0.2,0c2.9,0.2,6.1,0.7,9.5,1.3l0,0		l0.1,0c0,0,0,0,0,0c0,0,0.1,0,0.1,0c0.5,0.1,0.9,0.2,1.4,0.3l0.2,0c0.1,0,0.1,0,0.2,0c1.2,0.3,2.4,0.5,3.6,0.8c0,0,0,0,0,0		c5,1.2,8.9,2.6,10.4,3.1l0,0c0.1,0.1,0.3,0.2,0.4,0.2c0.1,0,0.2,0.1,0.3,0.1c0.4,0.2,0.5,0.3,0.6,0.3c0,0,0.1,0.1,0.1,0.1		c0,0,0,0,0,0l0.1,0.2c0.1,0.1,0.2,0.2,0.2,0.3c0.2,0.2,0.3,0.4,0.4,0.4c0,0.1,0,0.1,0,0.2c0,0.1,0.1,0.3,0.1,0.4		c0.1,0.3,0.2,0.6,0.2,0.8l5.7,51.6c0.2,1.7-1.1,3.3-2.8,3.6c-0.1,0-0.2,0-0.4,0c-1.6,0-3-1.2-3.2-2.8l-5.2-47.3		c-0.2-1.6-1.3-3-2.9-3.4l-0.4-0.1c-0.5-0.2-1.1-0.3-1.8-0.5c-0.3-0.1-0.6-0.1-0.9-0.1c-0.9,0-1.8,0.3-2.5,0.9		c-1,0.8-1.5,1.9-1.5,3.1v49.2c0,0.1,0,0.2,0,0.3l1.3,16.5c0,0.2,0,0.4,0.1,0.6l4.4,54.2c0.1,1.5-0.5,3-1.7,4		c-0.2,0.2-0.5,0.4-0.7,0.5c-0.5,0.3-1.1,0.4-1.6,0.5H59c-1.2,0-2.3-0.4-3.1-1.2c-0.6-0.6-1.1-1.3-1.3-2.1c-0.1-0.3-0.1-0.6-0.2-0.9		l-5.2-64.4c-0.1-1.3-0.8-2.4-1.9-3.1c-0.6-0.4-1.4-0.6-2.1-0.6c-0.5,0-1,0.1-1.5,0.3c-0.7,0.3-1.3,0.4-1.9,0.4		c-0.6,0-1.3-0.1-1.9-0.4c-0.5-0.2-1-0.3-1.5-0.3c-0.7,0-1.4,0.2-2.1,0.6c-1.1,0.7-1.8,1.8-1.9,3.1l-5.2,64.4		c-0.1,1.2-0.6,2.2-1.5,3c-0.9,0.8-2,1.2-3.2,1.2H24c-0.6-0.1-1.1-0.2-1.6-0.5c-0.3-0.1-0.5-0.3-0.8-0.5c-1.2-1-1.9-2.5-1.7-4		l4.4-54.2c0-0.2,0.1-0.4,0.1-0.6l1.3-16.5c0-0.1,0-0.2,0-0.3V61.1c0-1.2-0.6-2.4-1.5-3.1c-0.7-0.6-1.6-0.9-2.5-0.9		c-0.3,0-0.6,0-0.9,0.1c-0.7,0.2-1.3,0.3-1.8,0.5l-0.4,0.1c-1.6,0.4-2.7,1.8-2.9,3.4l-5.2,47.3c-0.2,1.6-1.6,2.9-3.2,2.9		c-0.2,0-0.3,0-0.4,0c-1.7-0.2-3-1.8-2.8-3.5l5.7-51.6c0.1-0.2,0.2-0.4,0.2-0.8c0-0.1,0.1-0.3,0.1-0.4c0-0.1,0-0.1,0-0.2		c0-0.1,0.1-0.2,0.4-0.4c0.1-0.1,0.2-0.2,0.2-0.3l0.1-0.2c0,0,0,0,0,0c0,0,0.1-0.1,0.1-0.1c0,0,0.1-0.1,0.6-0.3		c0.1,0,0.2-0.1,0.3-0.1c0.2-0.1,0.3-0.2,0.4-0.2l0,0c1.5-0.5,5.4-1.8,10.4-3.1c0,0,0,0,0,0c1.3-0.3,2.5-0.6,3.6-0.8		c0.1,0,0.1,0,0.2,0l0.2,0c0.5-0.1,0.9-0.2,1.4-0.3c0,0,0.1,0,0.1,0c0,0,0,0,0,0l0,0l0.1,0l0,0c3.4-0.7,6.6-1.1,9.5-1.3l0.2,0		c0.6,0,1.1-0.1,1.7-0.1c0.1,0,0.2,0,0.4,0C40.7,47.3,41.2,47.3,41.8,47.3 M41.8,43.3c-0.6,0-1.2,0-1.9,0c-0.1,0-0.2,0-0.3,0		c-0.6,0-1.2,0.1-1.8,0.1c-0.1,0-0.1,0-0.2,0c-3.4,0.2-6.7,0.8-9.9,1.4c-0.1,0-0.1,0-0.2,0c0,0-0.1,0-0.1,0c-0.5,0.1-1,0.2-1.4,0.3		c-0.1,0-0.3,0.1-0.4,0.1l0,0c-1.3,0.3-2.6,0.6-3.8,0.9c0,0,0,0,0,0c-5.3,1.3-9.3,2.7-10.7,3.2c-0.1,0-0.2,0.1-0.3,0.1		c-0.1,0-0.2,0.1-0.2,0.1c-0.1,0.1-0.2,0.2-0.4,0.2c-0.7,0.3-1.4,0.6-1.9,1.2c-0.3,0.2-0.5,0.5-0.7,0.8c-0.4,0.4-0.7,0.8-1,1.3		c-0.2,0.5-0.3,1-0.5,1.4c-0.1,0.4-0.3,0.7-0.3,1.1L0,107.3c-0.4,3.9,2.4,7.5,6.4,8c0.3,0,0.5,0,0.8,0c3.6,0,6.7-2.7,7.1-6.4		l5.2-47.3c0.6-0.2,1.3-0.4,2-0.6v49.2l-1.3,16.5c0,0,0,0,0,0l-4.4,54.8c-0.2,3,1.1,5.7,3.2,7.5c0.4,0.3,0.9,0.7,1.4,0.9		c1,0.5,2.1,0.9,3.3,1h0h0.7h0c2.2,0,4.3-0.9,5.8-2.3c1.5-1.4,2.6-3.4,2.7-5.7l5.2-64.4c1.1,0.4,2.2,0.7,3.5,0.7		c1.2,0,2.4-0.3,3.5-0.7l5.2,64.4c0,0.6,0.1,1.1,0.3,1.6c0.4,1.6,1.3,3,2.5,4c1.5,1.4,3.6,2.3,5.8,2.3h0h0.7h0		c1.2-0.1,2.3-0.4,3.3-1c0.5-0.3,1-0.6,1.4-0.9c2.2-1.7,3.5-4.5,3.2-7.5l-4.4-54.8c0,0,0,0,0,0l-1.3-16.5V61.1		c0.7,0.2,1.4,0.4,2,0.6l5.2,47.3c0.4,3.7,3.5,6.4,7.1,6.4c0.3,0,0.5,0,0.8,0c3.9-0.5,6.8-4,6.4-8l-5.8-51.9c0-0.4-0.2-0.7-0.3-1.1		c-0.1-0.5-0.2-1-0.4-1.4c-0.3-0.5-0.6-0.9-1-1.3c-0.2-0.3-0.4-0.6-0.7-0.8c-0.5-0.5-1.2-0.9-1.9-1.2c-0.1-0.1-0.2-0.2-0.4-0.2		c0,0-0.1,0-0.2-0.1c-0.1,0-0.2-0.1-0.3-0.1c-1.4-0.5-5.5-1.9-10.7-3.2c0,0,0,0,0,0c-1.2-0.3-2.4-0.6-3.8-0.9l0,0		c-0.1,0-0.3-0.1-0.4-0.1c-0.5-0.1-0.9-0.2-1.4-0.3c0,0-0.1,0-0.1,0c-0.1,0-0.1,0-0.2,0c-3.2-0.6-6.6-1.1-9.9-1.4		c-0.1,0-0.1,0-0.2,0c-0.6,0-1.2-0.1-1.8-0.1c-0.1,0-0.2,0-0.3,0C43,43.3,42.4,43.3,41.8,43.3L41.8,43.3z"/></g></svg>