<!-- Generator: Adobe Illustrator 17.1.0, SVG Export Plug-In  --><svg version="1.1"	 xmlns="http://www.w3.org/2000/svg" xmlns:xlink="http://www.w3.org/1999/xlink" xmlns:a="http://ns.adobe.com/AdobeSVGViewerExtensions/3.0/"	 x="0px" y="0px" width="96px" height="173.8px" viewBox="0 0 96 173.8" enable-background="new 0 0 96 173.8" xml:space="preserve"	><defs></defs><path fill="none" stroke="#007ABF" stroke-width="4" stroke-linecap="round" stroke-linejoin="round" stroke-miterlimit="10" d="	M37.3,38.3c9.2,0,16.6-10.6,16.6-19.8C53.8,9.4,46.4,2,37.3,2c-9.1,0-16.6,7.4-16.6,16.6C20.7,27.7,28.2,38.3,37.3,38.3"/><g>	<path fill="#007ABF" d="M91.3,33.3l-0.8,7l-35.4,11c-1.7,0.5-2.8,2.1-2.8,3.9l0,0.1c0,0.2,0,0.3,0,0.5v44.7c0,0.1,0,0.2,0,0.3		l1.2,15c0,0.2,0,0.4,0.1,0.6l4,49.2c0.2,2.1-1.4,3.9-3.4,4.2h-0.5c-2,0-3.7-1.5-3.8-3.5l-4.7-58.6c-0.1-1.3-0.8-2.4-1.9-3.1		c-0.6-0.4-1.4-0.6-2.1-0.6c-0.5,0-1,0.1-1.5,0.3c-0.6,0.2-1.1,0.3-1.6,0.3c-0.5,0-1-0.1-1.6-0.3c-0.5-0.2-1-0.3-1.5-0.3		c-0.7,0-1.4,0.2-2.1,0.6c-1.1,0.7-1.8,1.8-1.9,3.1l-4.7,58.6c-0.2,2-1.8,3.5-3.9,3.5h-0.4c-2.1-0.2-3.6-2.1-3.4-4.2l4-49.3		c0-0.2,0.1-0.4,0.1-0.5l1.2-15c0-0.1,0-0.2,0-0.3V55.9c0-1.2-0.6-2.4-1.5-3.1c-0.7-0.6-1.6-0.9-2.5-0.9c-0.3,0-0.6,0-0.9,0.1		c-0.6,0.1-1.2,0.3-1.6,0.4c-0.1,0-0.3,0.1-0.4,0.1c-1.6,0.4-2.7,1.8-2.9,3.4l-4.8,43c-0.1,1.3-1.2,2.3-2.5,2.3c-0.1,0-0.3,0-0.3,0		C4.9,101,3.9,99.7,4,98.3l5.2-46.9c0.1-0.2,0.2-0.4,0.2-0.7c0-0.1,0.1-0.3,0.1-0.4c0,0,0-0.1,0-0.1c0-0.1,0.1-0.1,0.3-0.3		c0.1-0.1,0.2-0.2,0.3-0.3l0.1-0.1c0,0,0.1-0.1,0.1-0.1c0,0,0.1-0.1,0.4-0.2c0.1,0,0.2-0.1,0.3-0.1c0.1-0.1,0.3-0.1,0.4-0.2		c2.3-0.8,7.1-2.3,12.7-3.5c0.1,0,0.1,0,0.2,0l0.2,0c0.4-0.1,0.8-0.2,1.2-0.3l0.1,0l0.1,0c3.1-0.6,5.9-1,8.6-1.2c0,0,0.1,0,0.1,0		c0,0,0.1,0,0.1,0c0.5,0,1-0.1,1.5-0.1c0,0,0.1,0,0.1,0l0.1,0c0.5,0,1,0,1.6,0c0.5,0,1,0,1.6,0l0.1,0c0,0,0.1,0,0.1,0		c0.5,0,1,0,1.5,0.1c0,0,0.1,0,0.1,0c0,0,0,0,0.1,0c2.6,0.2,5.5,0.6,8.6,1.2l0.1,0l0.1,0l0.5,0.1l0.3,0.1c0.3,0.1,0.5,0.1,0.8,0.1		c0.4,0,0.8-0.1,1.2-0.2L91.3,33.3 M96,27.7L51.9,41.3c-0.3-0.1-0.5-0.1-0.8-0.2c-0.1,0-0.1,0-0.2,0c-2.9-0.6-6-1-9-1.3		c-0.1,0-0.1,0-0.2,0c-0.6,0-1.1-0.1-1.7-0.1c-0.1,0-0.2,0-0.3,0c-0.6,0-1.1,0-1.7,0c-0.6,0-1.1,0-1.7,0c-0.1,0-0.2,0-0.3,0		c-0.6,0-1.1,0.1-1.7,0.1c-0.1,0-0.1,0-0.2,0c-3,0.2-6.1,0.7-9,1.3c-0.1,0-0.1,0-0.2,0c-0.4,0.1-0.9,0.2-1.3,0.3		c-0.1,0-0.3,0-0.4,0.1v0c-6.4,1.4-11.6,3.1-13.2,3.7c-0.1,0-0.2,0.1-0.3,0.1c-0.1,0-0.2,0.1-0.2,0.1c-0.1,0.1-0.2,0.2-0.3,0.2		c-0.6,0.3-1.2,0.6-1.7,1.1c-0.3,0.2-0.4,0.4-0.6,0.7C6.5,47.7,6.2,48,6,48.5c-0.2,0.4-0.3,0.9-0.4,1.3c-0.1,0.3-0.3,0.6-0.3,1		L0,97.9c-0.4,3.6,2.2,6.8,5.8,7.2c0.3,0,0.5,0,0.7,0c3.3,0,6.1-2.5,6.5-5.8l4.8-43c0.5-0.2,1.1-0.4,1.8-0.5v44.7l-1.2,15		c0,0,0,0,0,0l-4,49.8c-0.4,4.3,2.9,8.1,7.2,8.5h0h0.6h0c4.1,0,7.5-3.1,7.8-7.2l4.7-58.6c1,0.4,2,0.7,3.1,0.7c1.1,0,2.2-0.2,3.1-0.7		l4.7,58.6c0.3,4.1,3.7,7.2,7.8,7.2h0h0.6h0c4.3-0.4,7.6-4.2,7.2-8.5l-4-49.8c0,0,0,0,0,0l-1.2-15V55.9c0,0,0,0,0,0l0-0.7l37.9-11.8		L96,27.7L96,27.7z"/></g></svg>