<!-- Generator: Adobe Illustrator 17.1.0, SVG Export Plug-In  --><svg version="1.1"	 xmlns="http://www.w3.org/2000/svg" xmlns:xlink="http://www.w3.org/1999/xlink" xmlns:a="http://ns.adobe.com/AdobeSVGViewerExtensions/3.0/"	 x="0px" y="0px" width="91.8px" height="202.6px" viewBox="0 0 91.8 202.6" enable-background="new 0 0 91.8 202.6"	 xml:space="preserve"><defs></defs><path fill="none" stroke="#007ABF" stroke-width="4" stroke-linecap="round" stroke-linejoin="round" stroke-miterlimit="10" d="	M45.9,44c7.3,0,13.7-5.9,16.9-13c1.4-3.2,2.3-6.6,2.3-9.9c0-2.1-0.3-4-0.9-5.9C61.6,7.6,54.4,2,45.9,2c-8.5,0-15.7,5.6-18.2,13.2	c-0.6,1.9-0.9,3.8-0.9,5.9c0,3.3,0.8,6.7,2.3,9.9C32.2,38.1,38.6,44,45.9,44"/><path fill="none" stroke="#007ABF" stroke-width="4" stroke-linecap="round" stroke-linejoin="round" stroke-miterlimit="10" d="	M89.8,112.8l-6.1-54.5c0-0.4-0.3-0.7-0.3-1.1c-0.1-0.5-0.2-1-0.5-1.5c-0.3-0.5-0.6-1-1-1.4c-0.2-0.3-0.4-0.6-0.7-0.8	c-0.6-0.6-1.3-0.9-2-1.2c-0.2-0.1-0.2-0.2-0.4-0.3c0,0-0.2,0-0.2-0.1c-0.1,0-0.2-0.1-0.3-0.1c-1.5-0.5-5.8-1.9-11.3-3.3c0,0,0,0,0,0	c-1.3-0.3-2.6-0.6-3.9-0.9v0c-0.1,0-0.3-0.1-0.4-0.1c-0.5-0.1-1-0.2-1.5-0.3c0,0-0.1,0-0.1,0c-0.1,0-0.1,0-0.2,0	c-3.4-0.7-6.9-1.2-10.4-1.5c-0.1,0-0.2,0-0.2,0c-0.6,0-1.3-0.1-1.9-0.1c-0.1,0-0.2,0-0.3,0c-0.7,0-1.3,0-1.9,0c-0.6,0-1.3,0-2,0	c-0.1,0-0.2,0-0.3,0c-0.6,0-1.3,0.1-1.9,0.1c-0.1,0-0.2,0-0.2,0c-3.5,0.3-7.1,0.8-10.4,1.5c-0.1,0-0.1,0-0.2,0c0,0-0.1,0-0.1,0	c-0.5,0.1-1,0.2-1.5,0.3c-0.1,0-0.3,0.1-0.4,0.1v0c-1.4,0.3-2.7,0.6-3.9,0.9c0,0,0,0,0,0c-5.5,1.4-9.8,2.8-11.3,3.3	c-0.1,0-0.2,0.1-0.3,0.1C13.2,52,13.1,52,13,52c-0.2,0.1-0.2,0.2-0.4,0.3c-0.7,0.3-1.4,0.7-2,1.2c-0.3,0.2-0.5,0.5-0.7,0.8	c-0.4,0.4-0.8,0.9-1,1.4c-0.3,0.5-0.3,1-0.5,1.5c-0.1,0.4-0.3,0.7-0.3,1.1L2,112.8c-0.4,4.1,2.5,7.9,6.7,8.4c0.3,0,0.6,0,0.9,0	c3.8,0,7.1-2.8,7.5-6.7l5.5-49.7c0.6-0.2,1.3-0.4,2.1-0.6v51.7l-1.4,17.3c0,0,0,0,0,0l-4.6,57.5c-0.3,3.1,1.1,6,3.4,7.8	c0.5,0.4,0.9,0.7,1.5,1c1,0.5,2.2,0.9,3.5,1h0h0.7h0c2.3,0,4.5-0.9,6.1-2.4c1.6-1.5,2.7-3.6,2.9-5.9l5.5-67.7	c1.1,0.5,2.3,0.8,3.6,0.8c1.3,0,2.5-0.3,3.6-0.8l5.5,67.7c0,0.6,0.1,1.2,0.3,1.7c0.5,1.7,1.4,3.1,2.6,4.2c1.6,1.5,3.8,2.4,6.1,2.4h0	h0.7h0c1.2-0.1,2.4-0.5,3.5-1c0.5-0.3,1-0.6,1.5-1c2.3-1.8,3.6-4.7,3.4-7.8l-4.6-57.5c0,0,0,0,0,0l-1.4-17.3V64.2	c0.8,0.2,1.5,0.4,2.1,0.6l5.5,49.7c0.4,3.9,3.7,6.7,7.5,6.7c0.3,0,0.6,0,0.9,0C87.2,120.7,90.2,117,89.8,112.8"/></svg>