<!-- Generator: Adobe Illustrator 17.1.0, SVG Export Plug-In  --><svg version="1.1"	 xmlns="http://www.w3.org/2000/svg" xmlns:xlink="http://www.w3.org/1999/xlink" xmlns:a="http://ns.adobe.com/AdobeSVGViewerExtensions/3.0/"	 x="0px" y="0px" width="106.6px" height="241.1px" viewBox="0 0 106.6 241.1" enable-background="new 0 0 106.6 241.1"	 xml:space="preserve"><defs></defs><path fill="#2C328C" d="M53.3,51c8.9,0,16.6-7.1,20.5-15.7c1.8-3.9,2.8-8,2.8-12c0-2.5-0.4-4.9-1.1-7.1C72.4,6.7,63.7,0,53.3,0	S34.2,6.7,31.2,16.1c-0.7,2.3-1.1,4.6-1.1,7.1c0,4,1,8.1,2.8,12C36.7,43.9,44.4,51,53.3,51"/><path fill="#2C328C" d="M99.2,68.2c0-0.5-0.3-0.9-0.4-1.3c-0.2-0.6-0.3-1.2-0.6-1.8c-0.3-0.6-0.8-1.2-1.3-1.7	c-0.3-0.4-0.5-0.7-0.9-1c-0.7-0.7-1.5-1.1-2.4-1.5c-0.2-0.1-0.3-0.2-0.4-0.3c0,0-0.2,0-0.3-0.1c-0.1,0-0.3-0.1-0.4-0.1	c-1.8-0.6-7-2.4-13.7-4c0,0,0,0,0,0c-1.5-0.4-3.1-0.8-4.8-1.1l0,0c-0.2,0-0.4-0.1-0.5-0.1c-0.6-0.1-1.2-0.2-1.8-0.4c0,0-0.1,0-0.1,0	c-0.1,0-0.1,0-0.2,0c-4.1-0.8-8.4-1.4-12.7-1.8c-0.1,0-0.2,0-0.3,0c-0.8-0.1-1.6-0.1-2.4-0.1c-0.1,0-0.3,0-0.4,0c-0.8,0-1.6,0-2.4,0	c-0.8,0-1.6,0-2.4,0c-0.1,0-0.2,0-0.4,0c-0.8,0-1.6,0.1-2.4,0.1c-0.1,0-0.2,0-0.3,0c-4.3,0.3-8.6,1-12.7,1.8c-0.1,0-0.1,0-0.2,0	c0,0-0.1,0-0.1,0c-0.6,0.1-1.2,0.2-1.8,0.4c-0.2,0-0.4,0.1-0.5,0.1l0,0c-1.7,0.4-3.3,0.7-4.8,1.1c0,0,0,0,0,0	c-6.7,1.7-11.9,3.4-13.7,4c-0.1,0-0.3,0.1-0.4,0.1c-0.1,0-0.2,0.1-0.3,0.1c-0.2,0.1-0.3,0.2-0.4,0.3c-0.9,0.4-1.8,0.8-2.4,1.5	c-0.4,0.3-0.6,0.6-0.9,1c-0.5,0.5-0.9,1.1-1.3,1.7c-0.3,0.6-0.4,1.2-0.6,1.8c-0.1,0.4-0.4,0.8-0.4,1.3l-7.4,66.2	c-0.5,5,3.1,9.6,8.1,10.2c0.4,0,0.7,0,1,0c4.6,0,8.6-3.4,9.1-8.2L25,76.1c0.8-0.2,1.6-0.5,2.6-0.7v62.7l-1.7,21.1c0,0,0,0-0.1,0	l-5.6,69.9c-0.3,3.8,1.3,7.3,4.1,9.5c0.6,0.4,1.2,0.8,1.8,1.2c1.3,0.7,2.7,1.1,4.2,1.2h0h0.9h0c2.9,0,5.5-1.1,7.5-2.9	c2-1.8,3.3-4.3,3.5-7.2l6.6-82.2c1.4,0.6,2.8,0.9,4.4,0.9c1.6,0,3-0.3,4.4-0.9l6.6,82.2c0.1,0.7,0.2,1.4,0.4,2.1	c0.6,2,1.7,3.8,3.1,5.1c2,1.8,4.6,2.9,7.5,2.9h0h0.9h0c1.5-0.1,2.9-0.6,4.2-1.2c0.6-0.3,1.2-0.7,1.8-1.2c2.8-2.2,4.4-5.7,4.1-9.5	l-5.6-69.9c0,0,0,0-0.1,0L79,138.2V75.4c0.9,0.2,1.8,0.5,2.6,0.7l6.7,60.3c0.5,4.7,4.5,8.2,9.1,8.2c0.4,0,0.7,0,1,0	c5-0.6,8.7-5.1,8.1-10.2L99.2,68.2z"/></svg>