<!-- Generator: Adobe Illustrator 17.1.0, SVG Export Plug-In  --><svg version="1.1"	 xmlns="http://www.w3.org/2000/svg" xmlns:xlink="http://www.w3.org/1999/xlink" xmlns:a="http://ns.adobe.com/AdobeSVGViewerExtensions/3.0/"	 x="0px" y="0px" width="118.2px" height="219.3px" viewBox="0 0 118.2 219.3" enable-background="new 0 0 118.2 219.3"	 xml:space="preserve"><defs></defs><path fill="#2C328C" d="M48.5,46.3c11.7,0,21.1-13.5,21.1-25.2C69.6,9.4,60.2,0,48.5,0C36.8,0,27.3,9.5,27.3,21.1	C27.3,32.8,36.8,46.3,48.5,46.3"/><path fill="#2C328C" d="M116,55.3L71.9,67.9l0,0.9c0,0,0,0-0.1,0v57.1l1.5,19.2c0,0,0,0,0.1,0l5.1,63.6c0.5,5.5-3.7,10.4-9.2,10.8h0	h-0.8h0c-5.2,0-9.6-4-10-9.2l-6-74.8c-1.2,0.5-2.6,0.8-4,0.8c-1.4,0-2.8-0.3-4-0.8l-6,74.8c-0.4,5.2-4.8,9.2-10,9.2h0h-0.8h0	c-5.5-0.5-9.6-5.3-9.2-10.8l5.1-63.6c0,0,0,0,0,0l1.5-19.2V68.7c-0.9,0.2-1.6,0.5-2.3,0.6l-6.1,54.9c-0.5,4.3-4.1,7.4-8.3,7.4	c-0.3,0-0.6,0-0.9,0c-4.6-0.5-7.9-4.7-7.4-9.2l6.7-60.2c0-0.4,0.3-0.8,0.4-1.2c0.2-0.5,0.2-1.1,0.5-1.6c0.3-0.6,0.7-1.1,1.2-1.5	c0.2-0.3,0.5-0.7,0.8-0.9c0.6-0.6,1.4-1,2.2-1.4c0.2-0.1,0.2-0.2,0.4-0.3c0,0,0.2,0,0.2-0.1c0.1,0,0.2-0.1,0.4-0.1	c2-0.7,8.7-2.9,16.8-4.7v0c0.2,0,0.3-0.1,0.5-0.1c0.5-0.1,1.1-0.2,1.7-0.3c0.1,0,0.2,0,0.3-0.1c3.7-0.7,7.6-1.3,11.5-1.6	c0.1,0,0.2,0,0.3,0c0.7-0.1,1.4-0.1,2.1-0.1c0.1,0,0.2,0,0.3,0c0.7,0,1.4,0,2.2,0c0.7,0,1.4,0,2.2,0c0.1,0,0.2,0,0.3,0	c0.7,0,1.4,0.1,2.1,0.1c0.1,0,0.2,0,0.2,0c3.9,0.3,7.8,0.9,11.5,1.6c0.1,0,0.2,0,0.3,0.1c0.4,0.1,0.7,0.1,1,0.2l52-14.8L116,55.3z"	/></svg>