<!-- Generator: Adobe Illustrator 17.1.0, SVG Export Plug-In  --><svg version="1.1"	 xmlns="http://www.w3.org/2000/svg" xmlns:xlink="http://www.w3.org/1999/xlink" xmlns:a="http://ns.adobe.com/AdobeSVGViewerExtensions/3.0/"	 x="0px" y="0px" width="112.1px" height="253.5px" viewBox="0 0 112.1 253.5" enable-background="new 0 0 112.1 253.5"	 xml:space="preserve"><defs></defs><path fill="#2C328C" d="M56,53.6c9.3,0,17.4-7.5,21.5-16.5c1.8-4.1,2.9-8.4,2.9-12.6c0-2.6-0.4-5.1-1.2-7.5C76.1,7.1,66.9,0,56,0	C45.2,0,36,7.1,32.8,16.9c-0.8,2.4-1.2,4.9-1.2,7.5c0,4.2,1.1,8.5,2.9,12.6C38.6,46.1,46.7,53.6,56,53.6"/><path fill="#2C328C" d="M112,141.5l-7.8-69.6c0-0.5-0.3-0.9-0.4-1.4c-0.2-0.6-0.3-1.3-0.6-1.9c-0.3-0.7-0.8-1.2-1.3-1.8	c-0.3-0.4-0.5-0.8-0.9-1c-0.7-0.7-1.6-1.2-2.6-1.6c-0.2-0.1-0.3-0.2-0.5-0.3c0,0-0.2,0-0.3-0.1c-0.1,0-0.3-0.1-0.4-0.1	c-1.9-0.6-7.4-2.5-14.4-4.2c0,0,0,0,0,0c-1.6-0.4-3.3-0.8-5-1.2v0c-0.2,0-0.4-0.1-0.6-0.1c-0.6-0.1-1.3-0.3-1.9-0.4c0,0-0.1,0-0.1,0	c-0.1,0-0.1,0-0.2,0c-4.3-0.8-8.8-1.5-13.3-1.9c-0.1,0-0.2,0-0.3,0c-0.8-0.1-1.7-0.1-2.5-0.1c-0.1,0-0.3,0-0.4,0c-0.8,0-1.7,0-2.5,0	c-0.8,0-1.7,0-2.5,0c-0.1,0-0.3,0-0.4,0c-0.8,0-1.7,0.1-2.5,0.1c-0.1,0-0.2,0-0.3,0c-4.5,0.3-9,1-13.3,1.9c-0.1,0-0.1,0-0.2,0	c0,0-0.1,0-0.1,0c-0.6,0.1-1.3,0.3-1.9,0.4c-0.2,0-0.4,0.1-0.6,0.1v0c-1.8,0.4-3.4,0.8-5,1.2c0,0,0,0,0,0	c-7.1,1.8-12.5,3.6-14.4,4.2c-0.1,0-0.3,0.1-0.4,0.1c-0.1,0-0.2,0.1-0.3,0.1c-0.2,0.1-0.3,0.2-0.5,0.3c-0.9,0.4-1.8,0.8-2.6,1.6	c-0.4,0.3-0.6,0.7-0.9,1c-0.5,0.6-1,1.1-1.3,1.8c-0.3,0.6-0.4,1.3-0.6,1.9c-0.1,0.5-0.4,0.9-0.4,1.4l-7.8,69.6	c-0.6,5.3,3.3,10.1,8.5,10.7c0.4,0,0.7,0,1.1,0c4.9,0,9-3.6,9.6-8.6l7-63.4c0.8-0.2,1.7-0.5,2.7-0.7v65.9l-1.8,22.1c0,0,0,0-0.1,0	L21.3,241c-0.3,4,1.4,7.7,4.3,10c0.6,0.5,1.2,0.9,1.9,1.2c1.3,0.7,2.8,1.1,4.4,1.3h0h0.9h0c3,0,5.8-1.1,7.8-3	c2.1-1.9,3.5-4.6,3.7-7.6l7-86.4c1.4,0.6,3,1,4.6,1c1.7,0,3.2-0.4,4.6-1l7,86.4c0.1,0.8,0.2,1.5,0.4,2.2c0.6,2.1,1.8,4,3.3,5.4	c2.1,1.9,4.8,3,7.8,3h0h0.9h0c1.6-0.1,3.1-0.6,4.4-1.3c0.7-0.4,1.3-0.8,1.9-1.2c2.9-2.3,4.7-6,4.3-10l-5.9-73.5c0,0,0,0-0.1,0	l-1.8-22.1V79.5c1,0.2,1.9,0.5,2.7,0.7l7,63.4c0.6,5,4.7,8.6,9.6,8.6c0.4,0,0.7,0,1.1,0C108.8,151.5,112.6,146.8,112,141.5"/></svg>