<!-- Generator: Adobe Illustrator 17.1.0, SVG Export Plug-In  --><svg version="1.1"	 xmlns="http://www.w3.org/2000/svg" xmlns:xlink="http://www.w3.org/1999/xlink" xmlns:a="http://ns.adobe.com/AdobeSVGViewerExtensions/3.0/"	 x="0px" y="0px" width="162.9px" height="368px" viewBox="0 0 162.9 368" enable-background="new 0 0 162.9 368"	 xml:space="preserve"><defs></defs><path fill="#2C328C" d="M81.5,77.8c19.6,0,35.4-22.7,35.4-42.3C116.9,15.8,101.1,0,81.5,0C61.9,0,46,15.9,46,35.4	C46,55.1,61.9,77.8,81.5,77.8"/><path fill="#2C328C" d="M162.8,205.4l-0.2-1.4l-4.6-41.1l-6.5-58.5c-0.1-0.8-0.5-1.4-0.6-2.1c-0.3-0.9-0.4-1.9-0.9-2.8	c-0.5-0.9-1.2-1.8-1.9-2.6c-0.4-0.5-0.8-1.1-1.3-1.5c-1-1-2.3-1.7-3.7-2.3c-0.3-0.1-0.4-0.3-0.7-0.5c-0.1,0-0.3-0.1-0.4-0.1	c-0.2-0.1-0.4-0.1-0.6-0.2c-3.3-1.2-14.5-4.9-28.2-7.9l0,0c-0.3-0.1-0.5-0.1-0.8-0.2c-0.9-0.2-1.8-0.4-2.8-0.6	c-0.2,0-0.3-0.1-0.5-0.1c-6.2-1.2-12.8-2.2-19.4-2.7c-0.1,0-0.3,0-0.4,0c-1.2-0.1-2.4-0.2-3.6-0.2c-0.2,0-0.4,0-0.6,0	c-1.2,0-2.4-0.1-3.6-0.1c0,0-0.1,0-0.1,0c0,0-0.1,0-0.1,0c-1.2,0-2.4,0-3.6,0.1c-0.2,0-0.4,0-0.6,0c-1.2,0-2.4,0.1-3.6,0.2	c-0.1,0-0.3,0-0.4,0c-6.5,0.5-13.1,1.5-19.4,2.7c-0.2,0-0.3,0.1-0.5,0.1c-0.9,0.2-1.9,0.4-2.8,0.6c-0.3,0.1-0.5,0.1-0.8,0.2l0,0	c-13.7,3-24.9,6.7-28.2,7.9c-0.2,0.1-0.4,0.1-0.6,0.2c-0.1,0.1-0.4,0.1-0.4,0.1c-0.3,0.1-0.4,0.3-0.7,0.5c-1.4,0.5-2.7,1.2-3.7,2.3	c-0.5,0.4-0.9,1-1.3,1.5c-0.8,0.8-1.4,1.7-1.9,2.6c-0.5,0.9-0.6,1.9-0.9,2.8c-0.1,0.7-0.6,1.3-0.6,2.1l-6.5,58.5L0.2,204l-0.2,1.4	c-0.8,7.7,4.7,14.6,12.4,15.5c0.5,0.1,1,0.1,1.6,0.1c7.1,0,13.1-5.3,13.9-12.5l0.7-5.9l0.1,1l9.7-87.1c1.1-0.3,2.3-0.7,3.7-1v95.7	l-2.6,32.1c0,0-0.1,0-0.1,0l-8.6,106.6c-0.8,9.3,6.2,17.4,15.4,18.2h0.1h0.1h0.1h1.1h0.1h0.1H48c8.7,0,16-6.7,16.7-15.4l10.1-125.4	c2,0.8,4.2,1.3,6.5,1.3c0,0,0.1,0,0.1,0c0,0,0.1,0,0.1,0c2.3,0,4.5-0.5,6.5-1.3l10.1,125.4c0.7,8.8,8,15.4,16.7,15.4h0.1h0.1h0.1	h1.1h0.1h0.1h0.1c9.2-0.8,16.2-8.9,15.4-18.2l-8.6-106.6c0,0-0.1,0-0.1,0l-2.6-32.1v-95.7c1.4,0.3,2.6,0.7,3.7,1l9.7,87.1l0.1-1	l0.7,5.9c0.8,7.2,6.9,12.5,13.9,12.5c0.5,0,1,0,1.6-0.1C158.1,220,163.7,213,162.8,205.4z"/></svg>