<!-- Generator: Adobe Illustrator 17.1.0, SVG Export Plug-In  --><svg version="1.1"	 xmlns="http://www.w3.org/2000/svg" xmlns:xlink="http://www.w3.org/1999/xlink" xmlns:a="http://ns.adobe.com/AdobeSVGViewerExtensions/3.0/"	 x="0px" y="0px" width="127.6px" height="290.3px" viewBox="0 0 127.6 290.3" enable-background="new 0 0 127.6 290.3"	 xml:space="preserve"><defs></defs><path fill="none" stroke="#007ABF" stroke-width="4" stroke-linecap="round" stroke-linejoin="round" stroke-miterlimit="10" d="	M63.8,62.9c15.4,0,27.8-17.8,27.8-33.1C91.6,14.4,79.2,2,63.8,2C48.5,2,36,14.5,36,29.8C36,45.1,48.5,62.9,63.8,62.9"/><g>	<path fill="#007ABF" d="M63.9,69.2c0.8,0,1.7,0,2.6,0.1l0.3,0l0.2,0c0.9,0,1.8,0.1,2.7,0.1l0.3,0c4.5,0.3,9.5,1,14.7,2		c0.1,0,0.3,0.1,0.4,0.1c0.7,0.1,1.4,0.3,2.1,0.4l0.3,0.1l0.1,0c0.1,0,0.1,0,0.2,0c9.6,2.1,17.7,4.7,21.7,6.1l0.1,0c0,0,0.1,0,0.1,0		c0.2,0.1,0.4,0.2,0.6,0.4c0.1,0,0.2,0.1,0.3,0.1c0.7,0.3,1.2,0.6,1.6,0.9c0.1,0.1,0.2,0.2,0.3,0.3c0.1,0.1,0.1,0.1,0.1,0.2l0.2,0.3		c0.1,0.1,0.2,0.2,0.3,0.3c0.3,0.4,0.7,0.8,0.9,1.2c0,0.1,0.1,0.4,0.2,0.7c0.1,0.2,0.1,0.4,0.2,0.6c0.1,0.5,0.3,0.9,0.4,1.1		c0,0,0,0,0,0.1l5.1,45.7l3.6,32.2l0.1,1.1c0.4,3.8-2.4,7.3-6.2,7.7c-0.2,0-0.5,0-0.8,0c-3.5,0-6.5-2.7-6.9-6.2l-0.5-4.6		c0-0.4-0.1-0.8-0.3-1.1l-7.4-66.4c-0.2-1.6-1.3-3-2.9-3.4L98,89.2c-0.7-0.2-1.5-0.5-2.4-0.7c-0.3-0.1-0.6-0.1-0.9-0.1		c-0.9,0-1.8,0.3-2.5,0.9c-1,0.8-1.5,1.9-1.5,3.1v75c0,0.1,0,0.2,0,0.3l2,25.2c0,0.2,0.1,0.5,0.1,0.7l6.7,82.9		c0.4,5-3.3,9.4-8.3,9.9h0h-0.9h-0.1h-0.1h-0.1c-4.7,0-8.8-3.7-9.1-8.4L73,179.7c-0.1-1.3-0.8-2.4-1.9-3.1c-0.6-0.4-1.4-0.6-2.1-0.6		c-0.5,0-1,0.1-1.5,0.3c-1.2,0.5-2.4,0.7-3.5,0.7c-0.1,0-0.1,0-0.1,0c0,0,0,0,0,0s0,0,0,0c-0.1,0-0.1,0-0.2,0		c-1.2,0-2.3-0.3-3.5-0.7c-0.5-0.2-1-0.3-1.5-0.3c-0.7,0-1.5,0.2-2.1,0.6c-1.1,0.7-1.8,1.8-1.9,3.1l-7.9,98.2		c-0.4,4.7-4.4,8.4-9.1,8.4h-0.1h-0.1h-0.1h-0.9h0c-5-0.5-8.7-4.9-8.3-9.9l6.7-82.9c0.1-0.2,0.1-0.5,0.1-0.7l2-25.2		c0-0.1,0-0.2,0-0.3v-75c0-1.2-0.6-2.4-1.5-3.1c-0.7-0.6-1.6-0.9-2.5-0.9c-0.3,0-0.6,0-0.9,0.1c-0.9,0.2-1.7,0.5-2.4,0.7L29,89.4		c-1.6,0.4-2.7,1.8-2.9,3.4l-7.4,66.4c-0.1,0.3-0.2,0.7-0.3,1.1l-0.5,4.6c-0.4,3.5-3.4,6.2-6.9,6.2c-0.3,0-0.6,0-0.8,0		c-3.8-0.5-6.6-3.9-6.2-7.7l0.1-1.1L7.7,130l5.1-45.7c0,0,0,0,0-0.1c0.1-0.3,0.3-0.7,0.4-1.1c0.1-0.2,0.1-0.4,0.2-0.6		c0.1-0.2,0.1-0.6,0.2-0.7c0.2-0.4,0.6-0.8,0.9-1.2c0.1-0.1,0.2-0.2,0.3-0.3l0.2-0.3c0-0.1,0.1-0.1,0.1-0.2c0.1-0.1,0.2-0.2,0.3-0.3		c0.3-0.3,0.8-0.6,1.6-0.9c0.1,0,0.2-0.1,0.3-0.1c0.2-0.1,0.4-0.2,0.6-0.4c0,0,0.1,0,0.1,0l0.2-0.1c4-1.4,12-4,21.7-6		c0.1,0,0.1,0,0.2,0l0.1,0l0.3-0.1c0.7-0.1,1.4-0.3,2.1-0.4c0.1,0,0.3-0.1,0.4-0.1c5.2-1,10.1-1.7,14.7-2l0.3,0		c0.9-0.1,1.8-0.1,2.7-0.2l0.2,0l0.3,0c0.9,0,1.8-0.1,2.6-0.1c0,0,0.1,0,0.1,0c0,0,0,0,0,0C63.8,69.2,63.9,69.2,63.9,69.2		 M63.9,65.2C63.9,65.2,63.8,65.2,63.9,65.2c-0.1,0-0.1,0-0.2,0c-0.9,0-1.9,0-2.8,0.1c-0.1,0-0.3,0-0.5,0c-0.9,0-1.9,0.1-2.8,0.2		c-0.1,0-0.2,0-0.3,0c-5.1,0.4-10.3,1.2-15.2,2.1c-0.1,0-0.3,0-0.4,0.1c-0.7,0.1-1.5,0.3-2.2,0.4c-0.2,0-0.4,0.1-0.6,0.1l0,0		c-10.7,2.3-19.5,5.3-22.1,6.2c-0.2,0.1-0.3,0.1-0.5,0.2c-0.1,0.1-0.3,0.1-0.3,0.1c-0.2,0.1-0.3,0.3-0.5,0.4c-1.1,0.4-2.1,1-2.9,1.8		c-0.4,0.3-0.7,0.8-1,1.2c-0.6,0.6-1.1,1.3-1.5,2c-0.4,0.7-0.5,1.5-0.7,2.2c-0.1,0.5-0.4,1-0.5,1.6l-5.1,45.9l-3.6,32.2l-0.1,1.1		c-0.6,6,3.7,11.4,9.7,12.1c0.4,0,0.8,0,1.2,0c5.5,0,10.3-4.1,10.9-9.8l0.5-4.6l0.1,0.8l7.6-68.3c0.9-0.2,1.8-0.6,2.9-0.8v75		l-2,25.2c0,0,0,0-0.1,0l-6.7,83.5c-0.6,7.3,4.8,13.6,12.1,14.2h0.1h0.1h0.1h0.9h0.1h0.1h0.1c6.8,0,12.6-5.2,13.1-12.1l7.9-98.2		c1.6,0.6,3.3,1,5.1,1c0,0,0.1,0,0.1,0c0,0,0.1,0,0.1,0c1.8,0,3.5-0.4,5.1-1l7.9,98.2c0.5,6.9,6.3,12.1,13.1,12.1h0.1h0.1h0.1h0.9		h0.1h0.1h0.1c7.2-0.6,12.7-7,12.1-14.2l-6.7-83.5c0,0,0,0-0.1,0l-2-25.2v-75c1.1,0.3,2,0.6,2.9,0.8l7.6,68.3l0.1-0.8l0.5,4.6		c0.6,5.6,5.4,9.8,10.9,9.8c0.4,0,0.8,0,1.2,0c6-0.7,10.4-6.1,9.7-12.1l-0.1-1.1l-3.6-32.2l-5.1-45.9c0-0.6-0.4-1.1-0.5-1.6		c-0.2-0.7-0.3-1.5-0.7-2.2c-0.4-0.7-0.9-1.4-1.5-2c-0.3-0.4-0.6-0.9-1-1.2c-0.8-0.8-1.8-1.3-2.9-1.8c-0.2-0.1-0.3-0.3-0.5-0.4		c-0.1,0-0.2-0.1-0.3-0.1c-0.2-0.1-0.3-0.1-0.5-0.2c-2.6-0.9-11.4-3.9-22.1-6.2l0,0c-0.2,0-0.4-0.1-0.6-0.1		c-0.7-0.1-1.4-0.3-2.2-0.4c-0.1,0-0.3,0-0.4-0.1c-4.9-1-10-1.7-15.2-2.1c-0.1,0-0.2,0-0.3,0c-0.9-0.1-1.9-0.1-2.8-0.2		c-0.2,0-0.3,0-0.5,0C65.8,65.2,64.8,65.2,63.9,65.2L63.9,65.2z"/></g></svg>