<!-- Generator: Adobe Illustrator 17.1.0, SVG Export Plug-In  --><svg version="1.1"	 xmlns="http://www.w3.org/2000/svg" xmlns:xlink="http://www.w3.org/1999/xlink" xmlns:a="http://ns.adobe.com/AdobeSVGViewerExtensions/3.0/"	 x="0px" y="0px" width="147.9px" height="33.7px" viewBox="0 0 147.9 33.7" enable-background="new 0 0 147.9 33.7"	 xml:space="preserve"><defs></defs><g>	<path fill="#007ABF" d="M23.7,33.4V13.9l-6.4,12.7H13L6.5,13.9v19.5H0V0h6.4l8.7,18.1L23.8,0h6.4v33.4H23.7z"/>	<path fill="#007ABF" d="M54,30.7c-1.5,1.6-4,3-7.6,3c-3.6,0-6.1-1.4-7.6-3c-2.2-2.3-2.8-5.1-2.8-9.5c0-4.4,0.6-7.2,2.8-9.5		c1.5-1.6,3.9-3,7.6-3c3.6,0,6.1,1.4,7.6,3c2.2,2.3,2.8,5.1,2.8,9.5C56.8,25.6,56.2,28.4,54,30.7z M49.3,15.3		c-0.7-0.7-1.6-1.1-2.9-1.1c-1.2,0-2.1,0.4-2.8,1.1c-1.3,1.3-1.4,3.4-1.4,5.9c0,2.5,0.1,4.7,1.4,6c0.7,0.7,1.6,1.1,2.8,1.1		c1.2,0,2.2-0.4,2.9-1.1c1.3-1.3,1.4-3.4,1.4-6C50.7,18.6,50.5,16.5,49.3,15.3z"/>	<path fill="#007ABF" d="M70,33.4c-5,0-7.1-3.5-7.1-7V14.3h-2.6V9.7h2.6V2.4H69v7.2h4.3v4.6H69V26c0,1.4,0.7,2.2,2.1,2.2h2.2v5.2H70		z"/>	<path fill="#007ABF" d="M92.5,33.4V18.5c0-3.2-2.1-4.3-4-4.3c-1.9,0-3.9,1.1-3.9,4.3v14.9h-6.1V0h6.1v11.2c1.6-1.7,3.7-2.5,5.9-2.5		c5.3,0,8.2,3.8,8.2,8.9v15.8H92.5z"/>	<path fill="#007ABF" d="M109.6,23.1c0,3.1,1.9,5.4,5.3,5.4c2.7,0,4-0.8,5.5-2.3l3.7,3.6c-2.5,2.5-4.9,3.8-9.3,3.8		c-5.8,0-11.3-2.6-11.3-12.5c0-8,4.3-12.5,10.7-12.5c6.8,0,10.7,5,10.7,11.7v2.7H109.6z M118.3,16.3c-0.7-1.5-2-2.5-4.1-2.5		s-3.4,1.1-4.1,2.5c-0.4,0.9-0.5,1.5-0.6,2.6h9.3C118.8,17.8,118.7,17.2,118.3,16.3z"/>	<path fill="#007ABF" d="M143.3,15.6c-0.9-0.9-1.7-1.5-3.2-1.5c-1.9,0-3.9,1.4-3.9,4.5v14.7H130V9h6v2.3c1.2-1.4,3.5-2.6,6.1-2.6		c2.4,0,4.1,0.6,5.8,2.3L143.3,15.6z"/></g></svg>