<!-- Generator: Adobe Illustrator 17.1.0, SVG Export Plug-In  --><svg version="1.1"	 xmlns="http://www.w3.org/2000/svg" xmlns:xlink="http://www.w3.org/1999/xlink" xmlns:a="http://ns.adobe.com/AdobeSVGViewerExtensions/3.0/"	 x="0px" y="0px" width="389.2px" height="85.5px" viewBox="0 0 389.2 85.5" enable-background="new 0 0 389.2 85.5"	 xml:space="preserve"><defs></defs><g>	<path fill="#B6008D" d="M22.6,36.4L8.3,14.2v22.1h-7V0.3h6.3l14.3,22.1V0.3h7v36.1H22.6z"/>	<path fill="#B6008D" d="M54.5,33.4c-1.6,1.7-4.3,3.2-8.2,3.2s-6.5-1.5-8.2-3.2c-2.4-2.5-3-5.5-3-10.3c0-4.8,0.6-7.8,3-10.2		c1.6-1.7,4.3-3.2,8.2-3.2s6.6,1.5,8.2,3.2c2.4,2.5,3,5.5,3,10.2C57.5,28,56.9,31,54.5,33.4z M49.4,16.8c-0.8-0.8-1.8-1.2-3.1-1.2		s-2.3,0.4-3,1.2c-1.4,1.4-1.5,3.6-1.5,6.4c0,2.7,0.2,5.1,1.5,6.4c0.8,0.8,1.7,1.2,3,1.2s2.3-0.4,3.1-1.2c1.4-1.4,1.5-3.7,1.5-6.4		C50.9,20.4,50.8,18.1,49.4,16.8z"/>	<path fill="#B6008D" d="M86,36.7c-5.5,0-9.6-1.2-13.2-4.8l4.6-4.6c2.3,2.3,5.4,3,8.7,3c4.2,0,6.4-1.6,6.4-4.5c0-1.3-0.4-2.3-1.1-3		c-0.7-0.7-1.5-1-3.2-1.3L83.8,21c-3.1-0.5-5.4-1.4-7-3c-1.7-1.7-2.6-4.1-2.6-7.1C74.2,4.5,79,0,86.8,0c5,0,8.6,1.2,11.7,4.2L94,8.6		c-2.3-2.2-5-2.5-7.4-2.5c-3.7,0-5.6,2.1-5.6,4.6c0,0.9,0.3,1.9,1.1,2.6c0.7,0.7,1.9,1.2,3.3,1.4l4.3,0.6c3.3,0.5,5.4,1.4,6.9,2.8		c1.9,1.8,2.8,4.5,2.8,7.6C99.3,32.7,93.5,36.7,86,36.7z"/>	<path fill="#B6008D" d="M110.6,25.2c0,3.4,2.1,5.9,5.8,5.9c2.9,0,4.3-0.8,6-2.5l4,3.9c-2.7,2.7-5.3,4.2-10,4.2		c-6.2,0-12.2-2.8-12.2-13.5c0-8.6,4.7-13.5,11.5-13.5c7.3,0,11.5,5.4,11.5,12.6v2.9H110.6z M120,17.9c-0.7-1.6-2.2-2.7-4.4-2.7		c-2.2,0-3.7,1.2-4.4,2.7c-0.4,1-0.6,1.7-0.6,2.8h10C120.5,19.6,120.4,18.8,120,17.9z"/>	<path fill="#B6008D" d="M148,36.4v-16c0-3.6-2.3-4.8-4.4-4.8c-2.1,0-4.4,1.2-4.4,4.8v16h-6.6V10h6.4v2.4c1.7-1.8,4.2-2.7,6.6-2.7		c2.6,0,4.8,0.9,6.2,2.3c2.1,2.1,2.7,4.6,2.7,7.5v16.9H148z"/>	<path fill="#B6008D" d="M170.2,36.7c-4.2,0-7.9-0.5-11.2-3.8l4.3-4.3c2.2,2.2,5,2.5,7,2.5c2.3,0,4.7-0.8,4.7-2.7		c0-1.3-0.7-2.2-2.8-2.4l-4.2-0.4c-4.8-0.5-7.7-2.5-7.7-7.4c0-5.5,4.8-8.4,10.2-8.4c4.1,0,7.5,0.7,10.1,3.1l-4.1,4.1		c-1.5-1.4-3.8-1.8-6.1-1.8c-2.6,0-3.7,1.2-3.7,2.5c0,1,0.4,2.1,2.7,2.3l4.2,0.4c5.2,0.5,7.9,3.3,7.9,7.8		C181.4,33.9,176.5,36.7,170.2,36.7z"/>	<path fill="#B6008D" d="M186.4,5.5V0.1h6.7v5.4H186.4z M186.5,36.4V10h6.6v26.4H186.5z"/>	<path fill="#B6008D" d="M208.2,36.4c-5.4,0-7.6-3.8-7.6-7.5V15.8h-2.8v-5h2.8V2.9h6.6v7.8h4.7v5h-4.7v12.7c0,1.5,0.7,2.4,2.3,2.4		h2.4v5.6H208.2z"/>	<path fill="#B6008D" d="M217.1,5.5V0.1h6.7v5.4H217.1z M217.2,36.4V10h6.6v26.4H217.2z"/>	<path fill="#B6008D" d="M242.8,36.4h-5.2L227.9,10h6.9l5.4,16.3l5.3-16.3h6.9L242.8,36.4z"/>	<path fill="#B6008D" d="M256.5,5.5V0.1h6.7v5.4H256.5z M256.6,36.4V10h6.6v26.4H256.6z"/>	<path fill="#B6008D" d="M278.3,36.4c-5.4,0-7.6-3.8-7.6-7.5V15.8h-2.8v-5h2.8V2.9h6.6v7.8h4.7v5h-4.7v12.7c0,1.5,0.7,2.4,2.3,2.4		h2.4v5.6H278.3z"/>	<path fill="#B6008D" d="M298.6,40.6c-0.6,1.5-1.2,2.6-2,3.4c-1.5,1.5-3.5,2-5.7,2h-2.6v-5.9h1.5c1.9,0,2.6-0.5,3.3-2.4l1.1-3.2		l-9-24.5h6.9l5.5,16.3L303,10h6.9L298.6,40.6z"/>	<path fill="#B6008D" d="M14.8,78.6L4.9,63.2v15.4H0v-25h4.4l9.9,15.3V53.5h4.9v25H14.8z"/>	<path fill="#B6008D" d="M37.1,76.6c-1.1,1.2-3,2.3-5.7,2.3s-4.5-1.1-5.7-2.3c-1.7-1.7-2.1-3.8-2.1-7.1c0-3.3,0.4-5.4,2.1-7.1		c1.1-1.2,3-2.3,5.7-2.3s4.6,1.1,5.7,2.3c1.7,1.7,2.1,3.8,2.1,7.1C39.2,72.8,38.7,74.8,37.1,76.6z M33.5,65		c-0.5-0.5-1.2-0.8-2.1-0.8c-0.9,0-1.6,0.3-2.1,0.8c-1,0.9-1.1,2.5-1.1,4.4s0.1,3.5,1.1,4.5c0.5,0.5,1.2,0.8,2.1,0.8		c0.9,0,1.6-0.3,2.1-0.8c0.9-0.9,1.1-2.6,1.1-4.5S34.5,65.9,33.5,65z"/>	<path fill="#B6008D" d="M53.3,65.3c-0.7-0.7-1.3-1.1-2.4-1.1c-1.4,0-3,1.1-3,3.4v11h-4.6V60.3h4.5V62c0.9-1.1,2.6-2,4.6-2		c1.8,0,3.1,0.5,4.3,1.7L53.3,65.3z"/>	<path fill="#B6008D" d="M81,78.6V67.5c0-2.5-1.6-3.3-3-3.3c-1.4,0-3.1,0.8-3.1,3.2v11.2h-4.6V67.5c0-2.5-1.6-3.3-3-3.3		c-1.4,0-3.1,0.8-3.1,3.3v11.1h-4.6V60.3h4.5V62c1.2-1.2,2.9-1.9,4.6-1.9c2,0,3.7,0.7,4.9,2.3c1.5-1.6,3.2-2.3,5.5-2.3		c1.8,0,3.5,0.6,4.5,1.6c1.5,1.5,2,3.2,2,5.2v11.7H81z"/>	<path fill="#B6008D" d="M99.8,78.6V77c-1.2,1.2-2.4,1.8-4.5,1.8c-2.1,0-3.6-0.5-4.7-1.6c-1-1-1.5-2.5-1.5-4.1c0-2.9,2-5.3,6.3-5.3		h4.3v-0.9c0-2-1-2.9-3.4-2.9c-1.8,0-2.6,0.4-3.5,1.5l-2.9-2.8c1.8-2,3.6-2.5,6.6-2.5c5.1,0,7.8,2.2,7.8,6.5v12.1H99.8z M99.7,70.9		H96c-1.7,0-2.6,0.8-2.6,2.1c0,1.3,0.8,2.1,2.6,2.1c1.3,0,2.1-0.1,2.9-0.9c0.5-0.5,0.7-1.2,0.7-2.3V70.9z"/>	<path fill="#B6008D" d="M114.1,78.6c-3.8,0-5.3-2.6-5.3-5.2V53.5h4.6v19.5c0,1.1,0.5,1.7,1.6,1.7h1.8v3.9H114.1z"/>	<path fill="#B6008D" d="M150.2,78.6h-4.1l-4.6-15.2l-4.6,15.2h-4.1l-6.7-25h5.1l3.9,15.8l4.6-15.8h3.7l4.6,15.8l3.9-15.8h5.1		L150.2,78.6z"/>	<path fill="#B6008D" d="M168.7,78.6V77c-1.2,1.2-2.4,1.8-4.5,1.8c-2.1,0-3.6-0.5-4.7-1.6c-1-1-1.5-2.5-1.5-4.1c0-2.9,2-5.3,6.3-5.3		h4.3v-0.9c0-2-1-2.9-3.4-2.9c-1.8,0-2.6,0.4-3.5,1.5l-2.9-2.8c1.8-2,3.6-2.5,6.6-2.5c5.1,0,7.8,2.2,7.8,6.5v12.1H168.7z		 M168.6,70.9h-3.6c-1.7,0-2.6,0.8-2.6,2.1c0,1.3,0.8,2.1,2.6,2.1c1.3,0,2.1-0.1,2.9-0.9c0.5-0.5,0.7-1.2,0.7-2.3V70.9z"/>	<path fill="#B6008D" d="M187.8,65.3c-0.7-0.7-1.3-1.1-2.4-1.1c-1.4,0-3,1.1-3,3.4v11h-4.6V60.3h4.5V62c0.9-1.1,2.6-2,4.6-2		c1.8,0,3.1,0.5,4.3,1.7L187.8,65.3z"/>	<path fill="#B6008D" d="M200,64.3v14.3h-4.6V64.3h-1.9v-3.5h1.9v-2.3c0-2.6,1.6-5.2,5.3-5.2h2.6v3.9h-1.8c-1.1,0-1.6,0.6-1.6,1.7v2		h3.4v3.5H200z"/>	<path fill="#B6008D" d="M216.4,78.6V77c-1.2,1.2-2.4,1.8-4.5,1.8c-2.1,0-3.6-0.5-4.7-1.6c-1-1-1.5-2.5-1.5-4.1c0-2.9,2-5.3,6.3-5.3		h4.3v-0.9c0-2-1-2.9-3.4-2.9c-1.8,0-2.6,0.4-3.5,1.5l-2.9-2.8c1.8-2,3.6-2.5,6.6-2.5c5.1,0,7.8,2.2,7.8,6.5v12.1H216.4z		 M216.3,70.9h-3.6c-1.7,0-2.6,0.8-2.6,2.1c0,1.3,0.8,2.1,2.6,2.1c1.3,0,2.1-0.1,2.9-0.9c0.5-0.5,0.7-1.2,0.7-2.3V70.9z"/>	<path fill="#B6008D" d="M235.6,65.3c-0.7-0.7-1.3-1.1-2.4-1.1c-1.4,0-3,1.1-3,3.4v11h-4.6V60.3h4.5V62c0.9-1.1,2.6-2,4.6-2		c1.8,0,3.1,0.5,4.3,1.7L235.6,65.3z"/>	<path fill="#B6008D" d="M241.9,57.1v-3.7h4.7v3.7H241.9z M242,78.6V60.3h4.6v18.3H242z"/>	<path fill="#B6008D" d="M262,78.6V67.5c0-2.5-1.6-3.3-3-3.3c-1.4,0-3.1,0.8-3.1,3.3v11.1h-4.6V60.3h4.5V62c1.2-1.3,2.9-1.9,4.6-1.9		c1.8,0,3.3,0.6,4.3,1.6c1.5,1.5,1.9,3.2,1.9,5.2v11.7H262z"/>	<path fill="#B6008D" d="M289.8,78.6v-1.7c-1.3,1.4-2.6,1.9-4.5,1.9c-1.8,0-3.5-0.6-4.5-1.7c-1.8-1.8-1.9-5-1.9-7.7s0-5.9,1.9-7.7		c1-1,2.7-1.7,4.5-1.7c1.9,0,3.3,0.5,4.5,1.8v-8.3h4.6v25H289.8z M286.6,64.2c-2.7,0-3.1,2.3-3.1,5.2s0.4,5.3,3.1,5.3		s3.1-2.3,3.1-5.3S289.3,64.2,286.6,64.2z"/>	<path fill="#B6008D" d="M311.9,76.6c-1.1,1.2-3,2.3-5.7,2.3c-2.7,0-4.5-1.1-5.7-2.3c-1.7-1.7-2.1-3.8-2.1-7.1		c0-3.3,0.4-5.4,2.1-7.1c1.1-1.2,3-2.3,5.7-2.3c2.7,0,4.6,1.1,5.7,2.3c1.7,1.7,2.1,3.8,2.1,7.1C313.9,72.8,313.5,74.8,311.9,76.6z		 M308.3,65c-0.5-0.5-1.2-0.8-2.1-0.8c-0.9,0-1.6,0.3-2.1,0.8c-0.9,0.9-1.1,2.5-1.1,4.4s0.1,3.5,1.1,4.5c0.5,0.5,1.2,0.8,2.1,0.8		c0.9,0,1.6-0.3,2.1-0.8c0.9-0.9,1.1-2.6,1.1-4.5S309.3,65.9,308.3,65z"/>	<path fill="#B6008D" d="M324.1,78.8c-2.9,0-5.5-0.3-7.8-2.6l3-3c1.5,1.5,3.5,1.7,4.9,1.7c1.6,0,3.2-0.5,3.2-1.9		c0-0.9-0.5-1.5-1.9-1.7l-2.9-0.3c-3.3-0.3-5.3-1.8-5.3-5.1c0-3.8,3.3-5.8,7.1-5.8c2.8,0,5.2,0.5,7,2.1l-2.8,2.8		c-1.1-0.9-2.7-1.2-4.3-1.2c-1.8,0-2.6,0.8-2.6,1.8c0,0.7,0.3,1.4,1.9,1.6l2.9,0.3c3.6,0.4,5.5,2.3,5.5,5.4		C331.9,76.9,328.5,78.8,324.1,78.8z"/>	<path fill="#B6008D" d="M345.5,78.6V77c-1.2,1.2-2.4,1.8-4.5,1.8c-2.1,0-3.6-0.5-4.7-1.6c-1-1-1.5-2.5-1.5-4.1c0-2.9,2-5.3,6.3-5.3		h4.3v-0.9c0-2-1-2.9-3.4-2.9c-1.8,0-2.6,0.4-3.5,1.5l-2.9-2.8c1.8-2,3.6-2.5,6.6-2.5c5.1,0,7.8,2.2,7.8,6.5v12.1H345.5z		 M345.4,70.9h-3.6c-1.7,0-2.6,0.8-2.6,2.1c0,1.3,0.8,2.1,2.6,2.1c1.3,0,2.1-0.1,2.9-0.9c0.5-0.5,0.7-1.2,0.7-2.3V70.9z"/>	<path fill="#B6008D" d="M361.1,85.5c-2.8,0-4.7-0.6-6.6-2.4l2.8-2.9c1,1,2,1.4,3.6,1.4c2.7,0,3.7-1.9,3.7-3.8V76		c-1.2,1.3-2.6,1.8-4.4,1.8c-1.8,0-3.3-0.6-4.4-1.6c-1.7-1.7-1.9-4.1-1.9-7.3c0-3.2,0.1-5.5,1.9-7.2c1-1,2.6-1.6,4.4-1.6		c1.9,0,3.2,0.5,4.5,1.9v-1.7h4.4v17.7C369.2,82.3,366.1,85.5,361.1,85.5z M361.6,64.2c-2.7,0-3,2.3-3,4.7c0,2.4,0.3,4.8,3,4.8		s3-2.4,3-4.8C364.6,66.5,364.3,64.2,361.6,64.2z"/>	<path fill="#B6008D" d="M377.7,70.9c0,2.4,1.4,4.1,4,4.1c2,0,3-0.6,4.2-1.7l2.8,2.7c-1.9,1.9-3.7,2.9-7,2.9c-4.3,0-8.5-2-8.5-9.4		c0-6,3.2-9.4,8-9.4c5.1,0,8,3.7,8,8.8v2H377.7z M384.2,65.8c-0.5-1.1-1.5-1.9-3.1-1.9c-1.5,0-2.6,0.8-3.1,1.9		c-0.3,0.7-0.4,1.2-0.4,2h7C384.6,66.9,384.5,66.4,384.2,65.8z"/></g></svg>