<!-- Generator: Adobe Illustrator 17.1.0, SVG Export Plug-In  --><svg version="1.1"	 xmlns="http://www.w3.org/2000/svg" xmlns:xlink="http://www.w3.org/1999/xlink" xmlns:a="http://ns.adobe.com/AdobeSVGViewerExtensions/3.0/"	 x="0px" y="0px" width="141.3px" height="121.1px" viewBox="0 0 141.3 121.1" enable-background="new 0 0 141.3 121.1"	 xml:space="preserve"><defs></defs><g id="tlInfE.tif_1_">	<g>		<g>			<path fill="#B6008D" d="M34.8,0c1.7,0,3.3,0,5,0c0.1,0,0.3,0.1,0.4,0.1C45,0.5,49.4,2,53.7,4.2c5.4,2.9,10.2,6.5,14.7,10.6				c0.8,0.7,1.5,1.4,2.3,2.1c0.2-0.1,0.3-0.2,0.4-0.3c3.5-3.5,7.4-6.5,11.5-9.3c4.6-3.2,9.5-5.6,15-6.7c1.3-0.3,2.7-0.4,4.1-0.6				c1.7,0,3.3,0,5,0c0.2,0,0.4,0.1,0.6,0.1c2.1,0.3,4.2,0.4,6.3,0.8c5.9,1.1,11.2,3.3,15.8,7.1c7,5.8,10.5,13.4,11.6,22.2				c0.2,1.4,0.3,2.9,0.4,4.3c0,1.4,0,2.8,0,4.3c0,0.2-0.1,0.4-0.1,0.6c-0.4,5.1-1.8,9.9-4.1,14.4c-3.6,7.3-8.6,13.5-14.4,19.1				c-16.1,15.6-32.3,31.1-48.4,46.7c-2.3,2.2-5.1,2.2-7.3,0c-8.4-8.1-16.8-16.3-25.3-24.4C33.5,87.2,25.2,79.3,17,71.4				c-3.8-3.6-6.9-7.8-9.8-12.2c-3.2-4.9-5.4-10.3-6.6-16c-0.3-1.4-0.4-2.9-0.7-4.3c0-1.6,0-3.1,0-4.7c0-0.2,0.1-0.4,0.1-0.6				c0.2-1.5,0.2-3,0.5-4.5c0.7-4.8,2.2-9.3,4.8-13.4C11.2,6.3,20,1.8,30.6,0.4C32,0.3,33.4,0.1,34.8,0z"/>		</g>	</g></g></svg>