<!-- Generator: Adobe Illustrator 17.1.0, SVG Export Plug-In  --><svg version="1.1"	 xmlns="http://www.w3.org/2000/svg" xmlns:xlink="http://www.w3.org/1999/xlink" xmlns:a="http://ns.adobe.com/AdobeSVGViewerExtensions/3.0/"	 x="0px" y="0px" width="26.9px" height="43.1px" viewBox="0 0 26.9 43.1" enable-background="new 0 0 26.9 43.1"	 xml:space="preserve"><defs></defs><g>	<path fill="#060E9F" d="M23.8,20.3l-4.1,5.2c-0.5,0.7-1.1,1.8-1.1,2.8v0.5H8.8v-1.4c0-2.7,0.7-4.6,2.5-6.7l4.2-4.9		c0.9-1,1.6-2.4,1.6-3.4c0-2.1-1.2-3.7-3.6-3.7c-2.5,0-3.6,1.6-3.6,3.8H0C0,4.5,6.2,0,13.4,0c7.1,0,13.4,4.3,13.4,12.6		C26.9,15.7,25.5,18.1,23.8,20.3z M8.6,43.1v-9.7h10.1v9.7H8.6z"/></g></svg>