<!-- Generator: Adobe Illustrator 17.1.0, SVG Export Plug-In  --><svg version="1.1"	 xmlns="http://www.w3.org/2000/svg" xmlns:xlink="http://www.w3.org/1999/xlink" xmlns:a="http://ns.adobe.com/AdobeSVGViewerExtensions/3.0/"	 x="0px" y="0px" width="78px" height="21.7px" viewBox="0 0 78 21.7" enable-background="new 0 0 78 21.7" xml:space="preserve"><defs></defs><g>	<path fill="#007ABF" d="M7.8,21.7c-3.2,0-5.7-0.7-7.8-2.8l2.7-2.7C4,17.5,5.9,18,7.9,18c2.5,0,3.8-0.9,3.8-2.6		c0-0.8-0.2-1.4-0.7-1.8c-0.4-0.4-0.9-0.6-1.9-0.8l-2.6-0.4c-1.8-0.3-3.2-0.8-4.1-1.8c-1-1-1.5-2.4-1.5-4.2C0.8,2.7,3.7,0,8.3,0		c2.9,0,5.1,0.7,6.9,2.5l-2.6,2.6c-1.4-1.3-3-1.5-4.4-1.5c-2.2,0-3.3,1.2-3.3,2.7c0,0.5,0.2,1.1,0.6,1.5c0.4,0.4,1.1,0.7,2,0.8		L10,9.1c1.9,0.3,3.2,0.8,4.1,1.6c1.1,1.1,1.7,2.6,1.7,4.5C15.7,19.4,12.3,21.7,7.8,21.7z"/>	<path fill="#007ABF" d="M27.5,21.5v-1.4c-1.1,1.1-2,1.5-3.8,1.5c-1.8,0-3.1-0.4-4-1.4c-0.8-0.9-1.3-2.1-1.3-3.5		c0-2.5,1.7-4.5,5.3-4.5h3.7v-0.8c0-1.7-0.8-2.5-2.9-2.5c-1.5,0-2.2,0.4-3,1.3L19,7.9c1.5-1.7,3-2.2,5.6-2.2c4.4,0,6.7,1.9,6.7,5.5		v10.3H27.5z M27.4,14.9h-3.1c-1.4,0-2.2,0.7-2.2,1.8c0,1.1,0.7,1.8,2.2,1.8c1.1,0,1.8-0.1,2.5-0.8c0.4-0.4,0.6-1,0.6-2V14.9z"/>	<path fill="#007ABF" d="M43.8,10.2c-0.6-0.6-1.1-0.9-2.1-0.9c-1.2,0-2.5,0.9-2.5,2.9v9.4h-3.9V5.9h3.8v1.5c0.7-0.9,2.2-1.7,3.9-1.7		c1.5,0,2.6,0.4,3.7,1.5L43.8,10.2z"/>	<path fill="#007ABF" d="M57.4,21.5v-1.4c-1.1,1.1-2,1.5-3.8,1.5c-1.8,0-3.1-0.4-4-1.4c-0.8-0.9-1.3-2.1-1.3-3.5		c0-2.5,1.7-4.5,5.3-4.5h3.7v-0.8c0-1.7-0.8-2.5-2.9-2.5c-1.5,0-2.2,0.4-3,1.3l-2.5-2.4c1.5-1.7,3-2.2,5.6-2.2		c4.4,0,6.7,1.9,6.7,5.5v10.3H57.4z M57.3,14.9h-3.1c-1.4,0-2.2,0.7-2.2,1.8c0,1.1,0.7,1.8,2.2,1.8c1.1,0,1.8-0.1,2.5-0.8		c0.4-0.4,0.6-1,0.6-2V14.9z"/>	<path fill="#007ABF" d="M74.1,21.5V12c0-2.1-1.3-2.8-2.5-2.8c-1.2,0-2.5,0.7-2.5,2.8v9.5h-3.9V0.2h3.9v7.2c1-1.1,2.4-1.6,3.7-1.6		c3.4,0,5.2,2.4,5.2,5.7v10.1H74.1z"/></g></svg>