<!-- Generator: Adobe Illustrator 17.1.0, SVG Export Plug-In  --><svg version="1.1"	 xmlns="http://www.w3.org/2000/svg" xmlns:xlink="http://www.w3.org/1999/xlink" xmlns:a="http://ns.adobe.com/AdobeSVGViewerExtensions/3.0/"	 x="0px" y="0px" width="377.4px" height="85.5px" viewBox="0 0 377.4 85.5" enable-background="new 0 0 377.4 85.5"	 xml:space="preserve"><defs></defs><g>	<path fill="#B6008D" d="M13.2,36.7c-5.5,0-9.6-1.2-13.2-4.8l4.6-4.6c2.3,2.3,5.4,3,8.7,3c4.2,0,6.4-1.6,6.4-4.5		c0-1.3-0.4-2.3-1.1-3c-0.7-0.7-1.5-1-3.2-1.3L11,21c-3.1-0.5-5.4-1.4-7-3c-1.7-1.7-2.6-4.1-2.6-7.1C1.4,4.5,6.2,0,14,0		c5,0,8.6,1.2,11.7,4.2l-4.5,4.4c-2.3-2.2-5-2.5-7.4-2.5c-3.7,0-5.6,2.1-5.6,4.6c0,0.9,0.3,1.9,1.1,2.6c0.7,0.7,1.9,1.2,3.3,1.4		l4.3,0.6c3.3,0.5,5.4,1.4,6.9,2.8c1.9,1.8,2.8,4.5,2.8,7.6C26.5,32.7,20.7,36.7,13.2,36.7z"/>	<path fill="#B6008D" d="M50.7,33.4c-1.6,1.7-4.3,3.2-8.2,3.2c-3.9,0-6.5-1.5-8.2-3.2c-2.4-2.5-3-5.5-3-10.3c0-4.8,0.6-7.8,3-10.2		c1.6-1.7,4.3-3.2,8.2-3.2c3.9,0,6.6,1.5,8.2,3.2c2.4,2.5,3,5.5,3,10.2C53.7,28,53.1,31,50.7,33.4z M45.6,16.8		c-0.8-0.8-1.8-1.2-3.1-1.2c-1.3,0-2.3,0.4-3,1.2c-1.4,1.4-1.5,3.6-1.5,6.4c0,2.7,0.2,5.1,1.5,6.4c0.8,0.8,1.7,1.2,3,1.2		c1.3,0,2.3-0.4,3.1-1.2c1.4-1.4,1.5-3.7,1.5-6.4C47.1,20.4,47,18.1,45.6,16.8z"/>	<path fill="#B6008D" d="M90.2,36.4v-16c0-3.6-2.3-4.8-4.4-4.8c-2,0-4.4,1.2-4.4,4.7v16.1h-6.6v-16c0-3.6-2.3-4.8-4.4-4.8		c-2.1,0-4.4,1.2-4.4,4.8v16h-6.6V10h6.4v2.4c1.7-1.8,4.2-2.7,6.6-2.7c2.9,0,5.3,1.1,7,3.3c2.2-2.3,4.6-3.3,7.9-3.3		c2.6,0,5,0.9,6.5,2.3c2.1,2.1,2.9,4.6,2.9,7.5v16.9H90.2z"/>	<path fill="#B6008D" d="M108.6,25.2c0,3.4,2.1,5.9,5.8,5.9c2.9,0,4.3-0.8,6-2.5l4,3.9c-2.7,2.7-5.3,4.2-10,4.2		c-6.2,0-12.2-2.8-12.2-13.5c0-8.6,4.7-13.5,11.5-13.5c7.3,0,11.5,5.4,11.5,12.6v2.9H108.6z M118.1,17.9c-0.7-1.6-2.2-2.7-4.4-2.7		c-2.2,0-3.7,1.2-4.4,2.7c-0.4,1-0.6,1.7-0.6,2.8h10C118.6,19.6,118.5,18.8,118.1,17.9z"/>	<path fill="#B6008D" d="M153.4,36.7c-5.5,0-9.6-1.2-13.2-4.8l4.6-4.6c2.3,2.3,5.4,3,8.7,3c4.2,0,6.4-1.6,6.4-4.5		c0-1.3-0.4-2.3-1.1-3c-0.7-0.7-1.5-1-3.2-1.3l-4.4-0.6c-3.1-0.5-5.4-1.4-7-3c-1.7-1.7-2.6-4.1-2.6-7.1c0-6.4,4.8-10.9,12.6-10.9		c5,0,8.6,1.2,11.7,4.2l-4.5,4.4c-2.3-2.2-5-2.5-7.4-2.5c-3.7,0-5.6,2.1-5.6,4.6c0,0.9,0.3,1.9,1.1,2.6c0.7,0.7,1.9,1.2,3.3,1.4		l4.3,0.6c3.3,0.5,5.4,1.4,6.9,2.8c1.9,1.8,2.8,4.5,2.8,7.6C166.8,32.7,161,36.7,153.4,36.7z"/>	<path fill="#B6008D" d="M178,25.2c0,3.4,2.1,5.9,5.8,5.9c2.9,0,4.3-0.8,6-2.5l4,3.9c-2.7,2.7-5.3,4.2-10,4.2		c-6.2,0-12.2-2.8-12.2-13.5c0-8.6,4.7-13.5,11.5-13.5c7.3,0,11.5,5.4,11.5,12.6v2.9H178z M187.4,17.9c-0.7-1.6-2.2-2.7-4.4-2.7		s-3.7,1.2-4.4,2.7c-0.4,1-0.6,1.7-0.6,2.8h10C188,19.6,187.8,18.8,187.4,17.9z"/>	<path fill="#B6008D" d="M215.4,36.4v-16c0-3.6-2.3-4.8-4.4-4.8c-2.1,0-4.4,1.2-4.4,4.8v16h-6.6V10h6.4v2.4c1.7-1.8,4.2-2.7,6.6-2.7		c2.6,0,4.8,0.9,6.2,2.3c2.1,2.1,2.7,4.6,2.7,7.5v16.9H215.4z"/>	<path fill="#B6008D" d="M237.7,36.7c-4.2,0-7.9-0.5-11.2-3.8l4.3-4.3c2.2,2.2,5,2.5,7,2.5c2.3,0,4.7-0.8,4.7-2.7		c0-1.3-0.7-2.2-2.8-2.4l-4.2-0.4c-4.8-0.5-7.7-2.5-7.7-7.4c0-5.5,4.8-8.4,10.2-8.4c4.1,0,7.5,0.7,10.1,3.1l-4.1,4.1		c-1.5-1.4-3.8-1.8-6.1-1.8c-2.6,0-3.7,1.2-3.7,2.5c0,1,0.4,2.1,2.7,2.3l4.2,0.4c5.2,0.5,7.9,3.3,7.9,7.8		C248.9,33.9,243.9,36.7,237.7,36.7z"/>	<path fill="#B6008D" d="M253.8,5.5V0.1h6.7v5.4H253.8z M253.9,36.4V10h6.6v26.4H253.9z"/>	<path fill="#B6008D" d="M275.7,36.4c-5.4,0-7.6-3.8-7.6-7.5V15.8h-2.8v-5h2.8V2.9h6.6v7.8h4.7v5h-4.7v12.7c0,1.5,0.7,2.4,2.3,2.4		h2.4v5.6H275.7z"/>	<path fill="#B6008D" d="M284.6,5.5V0.1h6.7v5.4H284.6z M284.7,36.4V10h6.6v26.4H284.7z"/>	<path fill="#B6008D" d="M310.2,36.4h-5.2L295.3,10h6.9l5.4,16.3L313,10h6.9L310.2,36.4z"/>	<path fill="#B6008D" d="M323.9,5.5V0.1h6.7v5.4H323.9z M324,36.4V10h6.6v26.4H324z"/>	<path fill="#B6008D" d="M345.8,36.4c-5.4,0-7.6-3.8-7.6-7.5V15.8h-2.8v-5h2.8V2.9h6.6v7.8h4.7v5h-4.7v12.7c0,1.5,0.7,2.4,2.3,2.4		h2.4v5.6H345.8z"/>	<path fill="#B6008D" d="M366.1,40.6c-0.6,1.5-1.2,2.6-2,3.4c-1.5,1.5-3.5,2-5.7,2h-2.6v-5.9h1.5c1.9,0,2.6-0.5,3.3-2.4l1.1-3.2		l-9-24.5h6.9l5.5,16.3l5.3-16.3h6.9L366.1,40.6z"/>	<path fill="#B6008D" d="M2,78.6v-25h4.9v20.7h11.4v4.4H2z"/>	<path fill="#B6008D" d="M34.6,76.6c-1.1,1.2-3,2.3-5.7,2.3c-2.7,0-4.5-1.1-5.7-2.3c-1.7-1.7-2.1-3.8-2.1-7.1c0-3.3,0.4-5.4,2.1-7.1		c1.1-1.2,3-2.3,5.7-2.3c2.7,0,4.6,1.1,5.7,2.3c1.7,1.7,2.1,3.8,2.1,7.1C36.7,72.8,36.2,74.8,34.6,76.6z M31,65		c-0.5-0.5-1.2-0.8-2.1-0.8c-0.9,0-1.6,0.3-2.1,0.8c-0.9,0.9-1.1,2.5-1.1,4.4s0.1,3.5,1.1,4.5c0.5,0.5,1.2,0.8,2.1,0.8		c0.9,0,1.6-0.3,2.1-0.8c0.9-0.9,1.1-2.6,1.1-4.5S32,65.9,31,65z"/>	<path fill="#B6008D" d="M59.2,78.6h-3.8l-3.8-11.5l-3.8,11.5H44l-5.6-18.3h4.9l3,11.3l3.7-11.3h3.3l3.8,11.3l3-11.3h4.8L59.2,78.6z		"/>	<path fill="#B6008D" d="M70.9,70.9c0,2.4,1.4,4.1,4,4.1c2,0,3-0.6,4.2-1.7l2.8,2.7c-1.9,1.9-3.7,2.9-7,2.9c-4.3,0-8.5-2-8.5-9.4		c0-6,3.2-9.4,8-9.4c5.1,0,8,3.7,8,8.8v2H70.9z M77.5,65.8c-0.5-1.1-1.5-1.9-3.1-1.9s-2.6,0.8-3.1,1.9c-0.3,0.7-0.4,1.2-0.4,2h7		C77.9,66.9,77.8,66.4,77.5,65.8z"/>	<path fill="#B6008D" d="M96.3,65.3c-0.7-0.7-1.3-1.1-2.4-1.1c-1.4,0-3,1.1-3,3.4v11h-4.6V60.3h4.5V62c0.9-1.1,2.6-2,4.6-2		c1.8,0,3.1,0.5,4.3,1.7L96.3,65.3z"/>	<path fill="#B6008D" d="M132.3,78.6h-4.1l-4.6-15.2L119,78.6h-4.1l-6.7-25h5.1l3.9,15.8l4.6-15.8h3.7l4.6,15.8l3.9-15.8h5.1		L132.3,78.6z"/>	<path fill="#B6008D" d="M150.7,78.6V77c-1.2,1.2-2.4,1.8-4.5,1.8c-2.1,0-3.6-0.5-4.7-1.6c-1-1-1.5-2.5-1.5-4.1c0-2.9,2-5.3,6.3-5.3		h4.3v-0.9c0-2-1-2.9-3.4-2.9c-1.8,0-2.6,0.4-3.5,1.5l-2.9-2.8c1.8-2,3.6-2.5,6.6-2.5c5.1,0,7.8,2.2,7.8,6.5v12.1H150.7z		 M150.6,70.9H147c-1.7,0-2.6,0.8-2.6,2.1c0,1.3,0.8,2.1,2.6,2.1c1.3,0,2.1-0.1,2.9-0.9c0.5-0.5,0.7-1.2,0.7-2.3V70.9z"/>	<path fill="#B6008D" d="M169.8,65.3c-0.7-0.7-1.3-1.1-2.4-1.1c-1.4,0-3,1.1-3,3.4v11h-4.6V60.3h4.5V62c0.9-1.1,2.6-2,4.6-2		c1.8,0,3.1,0.5,4.3,1.7L169.8,65.3z"/>	<path fill="#B6008D" d="M182,64.3v14.3h-4.6V64.3h-1.9v-3.5h1.9v-2.3c0-2.6,1.6-5.2,5.3-5.2h2.6v3.9h-1.8c-1.1,0-1.6,0.6-1.6,1.7v2		h3.4v3.5H182z"/>	<path fill="#B6008D" d="M198.5,78.6V77c-1.2,1.2-2.4,1.8-4.5,1.8c-2.1,0-3.6-0.5-4.7-1.6c-1-1-1.5-2.5-1.5-4.1c0-2.9,2-5.3,6.3-5.3		h4.3v-0.9c0-2-1-2.9-3.4-2.9c-1.8,0-2.6,0.4-3.5,1.5l-2.9-2.8c1.8-2,3.6-2.5,6.6-2.5c5.1,0,7.8,2.2,7.8,6.5v12.1H198.5z		 M198.4,70.9h-3.6c-1.7,0-2.6,0.8-2.6,2.1c0,1.3,0.8,2.1,2.6,2.1c1.3,0,2.1-0.1,2.9-0.9c0.5-0.5,0.7-1.2,0.7-2.3V70.9z"/>	<path fill="#B6008D" d="M217.6,65.3c-0.7-0.7-1.3-1.1-2.4-1.1c-1.4,0-3,1.1-3,3.4v11h-4.6V60.3h4.5V62c0.9-1.1,2.6-2,4.6-2		c1.8,0,3.1,0.5,4.3,1.7L217.6,65.3z"/>	<path fill="#B6008D" d="M223.9,57.1v-3.7h4.7v3.7H223.9z M224,78.6V60.3h4.6v18.3H224z"/>	<path fill="#B6008D" d="M244,78.6V67.5c0-2.5-1.6-3.3-3-3.3c-1.4,0-3.1,0.8-3.1,3.3v11.1h-4.6V60.3h4.5V62c1.2-1.3,2.9-1.9,4.6-1.9		c1.8,0,3.3,0.6,4.3,1.6c1.5,1.5,1.9,3.2,1.9,5.2v11.7H244z"/>	<path fill="#B6008D" d="M271.8,78.6v-1.7c-1.3,1.4-2.6,1.9-4.5,1.9c-1.8,0-3.5-0.6-4.5-1.7c-1.8-1.8-1.9-5-1.9-7.7s0-5.9,1.9-7.7		c1-1,2.7-1.7,4.5-1.7c1.9,0,3.3,0.5,4.5,1.8v-8.3h4.6v25H271.8z M268.6,64.2c-2.7,0-3.1,2.3-3.1,5.2s0.4,5.3,3.1,5.3		s3.1-2.3,3.1-5.3S271.3,64.2,268.6,64.2z"/>	<path fill="#B6008D" d="M293.9,76.6c-1.1,1.2-3,2.3-5.7,2.3c-2.7,0-4.5-1.1-5.7-2.3c-1.7-1.7-2.1-3.8-2.1-7.1		c0-3.3,0.4-5.4,2.1-7.1c1.1-1.2,3-2.3,5.7-2.3c2.7,0,4.6,1.1,5.7,2.3c1.7,1.7,2.1,3.8,2.1,7.1C296,72.8,295.5,74.8,293.9,76.6z		 M290.3,65c-0.5-0.5-1.2-0.8-2.1-0.8c-0.9,0-1.6,0.3-2.1,0.8c-0.9,0.9-1.1,2.5-1.1,4.4s0.1,3.5,1.1,4.5c0.5,0.5,1.2,0.8,2.1,0.8		c0.9,0,1.6-0.3,2.1-0.8c0.9-0.9,1.1-2.6,1.1-4.5S291.3,65.9,290.3,65z"/>	<path fill="#B6008D" d="M306.2,78.8c-2.9,0-5.5-0.3-7.8-2.6l3-3c1.5,1.5,3.5,1.7,4.9,1.7c1.6,0,3.2-0.5,3.2-1.9		c0-0.9-0.5-1.5-1.9-1.7l-2.9-0.3c-3.3-0.3-5.3-1.8-5.3-5.1c0-3.8,3.3-5.8,7.1-5.8c2.8,0,5.2,0.5,7,2.1l-2.8,2.8		c-1.1-0.9-2.7-1.2-4.3-1.2c-1.8,0-2.6,0.8-2.6,1.8c0,0.7,0.3,1.4,1.9,1.6l2.9,0.3c3.6,0.4,5.5,2.3,5.5,5.4		C313.9,76.9,310.5,78.8,306.2,78.8z"/>	<path fill="#B6008D" d="M327.5,78.6V77c-1.2,1.2-2.4,1.8-4.5,1.8c-2.1,0-3.6-0.5-4.7-1.6c-1-1-1.5-2.5-1.5-4.1c0-2.9,2-5.3,6.3-5.3		h4.3v-0.9c0-2-1-2.9-3.4-2.9c-1.8,0-2.6,0.4-3.5,1.5l-2.9-2.8c1.8-2,3.6-2.5,6.6-2.5c5.1,0,7.8,2.2,7.8,6.5v12.1H327.5z		 M327.4,70.9h-3.6c-1.7,0-2.6,0.8-2.6,2.1c0,1.3,0.8,2.1,2.6,2.1c1.3,0,2.1-0.1,2.9-0.9c0.5-0.5,0.7-1.2,0.7-2.3V70.9z"/>	<path fill="#B6008D" d="M343.2,85.5c-2.8,0-4.7-0.6-6.6-2.4l2.8-2.9c1,1,2,1.4,3.6,1.4c2.7,0,3.7-1.9,3.7-3.8V76		c-1.2,1.3-2.6,1.8-4.4,1.8c-1.8,0-3.3-0.6-4.4-1.6c-1.7-1.7-1.9-4.1-1.9-7.3c0-3.2,0.1-5.5,1.9-7.2c1-1,2.6-1.6,4.4-1.6		c1.9,0,3.2,0.5,4.5,1.9v-1.7h4.4v17.7C351.2,82.3,348.1,85.5,343.2,85.5z M343.6,64.2c-2.7,0-3,2.3-3,4.7c0,2.4,0.3,4.8,3,4.8		c2.7,0,3-2.4,3-4.8C346.7,66.5,346.3,64.2,343.6,64.2z"/>	<path fill="#B6008D" d="M359.7,70.9c0,2.4,1.4,4.1,4,4.1c2,0,3-0.6,4.2-1.7l2.8,2.7c-1.9,1.9-3.7,2.9-7,2.9c-4.3,0-8.5-2-8.5-9.4		c0-6,3.2-9.4,8-9.4c5.1,0,8,3.7,8,8.8v2H359.7z M366.3,65.8c-0.5-1.1-1.5-1.9-3.1-1.9c-1.5,0-2.6,0.8-3.1,1.9		c-0.3,0.7-0.4,1.2-0.4,2h7C366.6,66.9,366.5,66.4,366.3,65.8z"/></g></svg>