<!-- Generator: Adobe Illustrator 17.1.0, SVG Export Plug-In  --><svg version="1.1"	 xmlns="http://www.w3.org/2000/svg" xmlns:xlink="http://www.w3.org/1999/xlink" xmlns:a="http://ns.adobe.com/AdobeSVGViewerExtensions/3.0/"	 x="0px" y="0px" width="186.2px" height="169.5px" viewBox="0 0 186.2 169.5" enable-background="new 0 0 186.2 169.5"	 xml:space="preserve"><defs></defs><g id="PzXUao.tif_1_">	<g>		<g>			<path fill="#B6008D" d="M110.9,29.3c-4.6,10.6-9,20.6-13.5,31c4.3,0,8.5,0,13.1,0C100,79.4,89.8,98,79.6,116.5				c-0.1-0.1-0.2-0.1-0.2-0.2c3.6-12.6,7.2-25.2,10.8-38.1c-4.1,0-8,0-12,0c0.1-0.8,0.2-1.4,0.3-1.9c3.7-15.1,7.4-30.3,11.1-45.4				c0.2-0.7,0.8-1.6,1.2-1.6C97.3,29.3,103.9,29.3,110.9,29.3z"/>		</g>	</g></g><g id="K8hoda.tif_1_">	<g>		<g>			<path fill="#007ABF" d="M186.2,74c-2.4,4.6-5,9.3-7.3,14c-0.5,0.9-0.4,2.2-0.2,3.3c1.6,9.9-1.1,18.7-8,25.7				c-6,6.1-12.7,11.6-19.6,18c2.5,7.4,5.2,15.3,8.1,23.8c-4.9,3.5-9.8,7-15.1,10.8c-1-1.5-1.8-2.7-2.6-3.9				c-5.6-7.8-11.2-15.7-16.9-23.5c-2.6-3.6-5.9-5.8-10.5-6.8c-4.7-1.1-9-5.2-13.7-5.6c-4.6-0.4-9.4,2.6-14.3,3.2				c-9.9,1.2-18.9-1.7-26.3-8.3c-2.1-1.9-3.7-1.8-6.2-0.9c-12.4,4.4-23.9,2.5-34.4-5.5c-1.5-1.1-3-2.1-4.5-3.1				C2.5,107.2-2.5,93.8,1.2,79.9c0.5-1.8,0.5-3.9,0-5.7C-2.9,58.9,3.9,44.1,18.1,37c2.3-1.1,4.5-3.3,5.6-5.5				C30.3,18.7,40.9,13,54.8,12.2c2.3-0.1,5.1-1.2,6.8-2.8C67.5,4.1,74.7,1.8,82.2,0c2,0,4,0,6,0C94,2.3,100,4.2,105.5,7				c2.7,1.4,4.7,2.2,7.7,1.4c24.7-5.8,48.6,7.1,57.1,30.7c0.4,1.2,1,2.7,1.9,3.3c7.4,5,11.4,12.3,13.9,20.5				C186.2,66.7,186.2,70.3,186.2,74z M68.4,77c2.5,4.1,4.2,7,6.3,10.3c-8.8,2.9-10.5,7-10.2,14.2c0.1,2.5-0.5,5.1,0.1,7.5				c0.8,2.8,1.8,6.2,3.8,8c7.8,6.9,19.4,7.1,28.2,0.7c7.3-5.3,14.2-11.1,21.3-16.5c8.5-6.4,17.6-9.1,28.3-4.1				c-0.8,3.1-1.7,6.3-2.6,9.9c-5.8-2.1-11.4-3-16.4,0.7c-6,4.4-11.9,9.1-17.8,13.7c5.6,5.5,14.5,2.2,19.3,8.8				c4.2,5.8,9.3,11,14.9,17.6c-1.6-4.6-2.7-7.9-3.8-11.2c-1.1-3.2-2.1-6.4-3-9c4.8-2.2,10-3.2,12.8-6.3c3.6-4,7.5-7.2,11.6-10.5				c6.9-5.6,9.1-16.9,4.7-22.5c-5.5-6.9-12.6-11.2-21.8-11.5c-7.3-0.2-14.5-0.8-21.7-1.2c0-3.7,0-6.9,0-10c8.7,0,16.9,0,24.8,0				c-1-6.5-2-13-3-19.7c4.1-0.4,7.3-0.7,11.1-1.1c-0.5,14.6,5,25.6,16.4,33.4c6.4-9.1,3.4-20.8-6.8-27.4c-1.7-1.1-3.6-3-4.1-4.9				c-5-18-20.1-29.2-38.7-27.7c-4.6,0.4-9.6,1.7-13.5,4.2c-4.9,3.1,2.1-2.6-2.1,1.4c-3.9,3.7-14.2-0.6-7.8-8.1				c-10.6-7-24.6-5.4-31.5,4.3c-2.8,4-5.4,4.4-9.8,3.7c-11.8-2-22.6,5.4-25,17c-0.6,3.1-2,3.9-4.7,4.6c-15.8,4-20.2,19.2-14.4,29.4				c0.8,1.4,0.4,3.8-0.3,5.4c-3.1,7-3.1,14,1.7,19.8c5.5,6.7,12.5,12.1,21.1,14.2c3.6,0.8,7.5,0.2,11.3-0.2c4.1-0.4,5.7-2.8,5.5-7.2				c-0.3-6.1-2.7-10.5-7.7-13.7c-5.6-3.6-10.3-4.4-16.2-8c2.1-3.3,3.9-6.2,5.8-9.3c7.4,4.5,14.5,8.8,20.7,12.6				C59.7,84.4,63.8,80.9,68.4,77z"/>		</g>	</g></g></svg>