<!-- Generator: Adobe Illustrator 17.1.0, SVG Export Plug-In  --><svg version="1.1"	 xmlns="http://www.w3.org/2000/svg" xmlns:xlink="http://www.w3.org/1999/xlink" xmlns:a="http://ns.adobe.com/AdobeSVGViewerExtensions/3.0/"	 x="0px" y="0px" width="386.6px" height="85.5px" viewBox="0 0 386.6 85.5" enable-background="new 0 0 386.6 85.5"	 xml:space="preserve"><defs></defs><g>	<path fill="#B6008D" d="M17.2,36.4h-5.3L0,0.3h7.3l7.2,23.5l7.2-23.5h7.3L17.2,36.4z"/>	<path fill="#B6008D" d="M36.1,25.2c0,3.4,2.1,5.9,5.8,5.9c2.9,0,4.3-0.8,6-2.5l4,3.9c-2.7,2.7-5.3,4.2-10,4.2		c-6.2,0-12.2-2.8-12.2-13.5c0-8.6,4.7-13.5,11.5-13.5c7.3,0,11.5,5.4,11.5,12.6v2.9H36.1z M45.5,17.9c-0.7-1.6-2.2-2.7-4.4-2.7		c-2.2,0-3.7,1.2-4.4,2.7c-0.4,1-0.6,1.7-0.6,2.8h10C46,19.6,45.9,18.8,45.5,17.9z"/>	<path fill="#B6008D" d="M72.5,17.2c-1-1-1.9-1.6-3.5-1.6c-2,0-4.3,1.5-4.3,4.9v15.9h-6.6V10h6.4v2.5c1.3-1.5,3.8-2.8,6.6-2.8		c2.6,0,4.4,0.7,6.2,2.5L72.5,17.2z"/>	<path fill="#B6008D" d="M92.9,40.6c-0.6,1.5-1.2,2.6-2,3.4c-1.5,1.5-3.5,2-5.7,2h-2.6v-5.9h1.5c1.9,0,2.6-0.5,3.3-2.4l1.1-3.2		l-9-24.5h6.9L92,26.3L97.3,10h6.9L92.9,40.6z"/>	<path fill="#B6008D" d="M130.3,36.7c-5.5,0-9.6-1.2-13.2-4.8l4.6-4.6c2.3,2.3,5.4,3,8.7,3c4.2,0,6.4-1.6,6.4-4.5		c0-1.3-0.4-2.3-1.1-3c-0.7-0.7-1.5-1-3.2-1.3l-4.4-0.6c-3.1-0.5-5.4-1.4-7-3c-1.7-1.7-2.6-4.1-2.6-7.1c0-6.4,4.8-10.9,12.6-10.9		c5,0,8.6,1.2,11.7,4.2l-4.5,4.4c-2.3-2.2-5-2.5-7.4-2.5c-3.7,0-5.6,2.1-5.6,4.6c0,0.9,0.3,1.9,1.1,2.6c0.7,0.7,1.9,1.2,3.3,1.4		l4.3,0.6c3.3,0.5,5.4,1.4,6.9,2.8c1.9,1.8,2.8,4.5,2.8,7.6C143.7,32.7,137.8,36.7,130.3,36.7z"/>	<path fill="#B6008D" d="M154.9,25.2c0,3.4,2.1,5.9,5.8,5.9c2.9,0,4.3-0.8,6-2.5l4,3.9c-2.7,2.7-5.3,4.2-10,4.2		c-6.2,0-12.2-2.8-12.2-13.5c0-8.6,4.7-13.5,11.5-13.5c7.3,0,11.5,5.4,11.5,12.6v2.9H154.9z M164.3,17.9c-0.7-1.6-2.2-2.7-4.4-2.7		s-3.7,1.2-4.4,2.7c-0.4,1-0.6,1.7-0.6,2.8h10C164.8,19.6,164.7,18.8,164.3,17.9z"/>	<path fill="#B6008D" d="M192.3,36.4v-16c0-3.6-2.3-4.8-4.4-4.8c-2.1,0-4.4,1.2-4.4,4.8v16h-6.6V10h6.4v2.4c1.7-1.8,4.2-2.7,6.6-2.7		c2.6,0,4.8,0.9,6.2,2.3c2.1,2.1,2.7,4.6,2.7,7.5v16.9H192.3z"/>	<path fill="#B6008D" d="M214.5,36.7c-4.2,0-7.9-0.5-11.2-3.8l4.3-4.3c2.2,2.2,5,2.5,7,2.5c2.3,0,4.7-0.8,4.7-2.7		c0-1.3-0.7-2.2-2.8-2.4l-4.2-0.4c-4.8-0.5-7.7-2.5-7.7-7.4c0-5.5,4.8-8.4,10.2-8.4c4.1,0,7.5,0.7,10.1,3.1l-4.1,4.1		c-1.5-1.4-3.8-1.8-6.1-1.8c-2.6,0-3.7,1.2-3.7,2.5c0,1,0.4,2.1,2.7,2.3l4.2,0.4c5.2,0.5,7.9,3.3,7.9,7.8		C225.7,33.9,220.8,36.7,214.5,36.7z"/>	<path fill="#B6008D" d="M230.7,5.5V0.1h6.7v5.4H230.7z M230.8,36.4V10h6.6v26.4H230.8z"/>	<path fill="#B6008D" d="M252.5,36.4c-5.4,0-7.6-3.8-7.6-7.5V15.8h-2.8v-5h2.8V2.9h6.6v7.8h4.7v5h-4.7v12.7c0,1.5,0.7,2.4,2.3,2.4		h2.4v5.6H252.5z"/>	<path fill="#B6008D" d="M261.4,5.5V0.1h6.7v5.4H261.4z M261.5,36.4V10h6.6v26.4H261.5z"/>	<path fill="#B6008D" d="M287.1,36.4h-5.2L272.2,10h6.9l5.4,16.3l5.3-16.3h6.9L287.1,36.4z"/>	<path fill="#B6008D" d="M305.1,25.2c0,3.4,2.1,5.9,5.8,5.9c2.9,0,4.3-0.8,6-2.5l4,3.9c-2.7,2.7-5.3,4.2-10,4.2		c-6.2,0-12.2-2.8-12.2-13.5c0-8.6,4.7-13.5,11.5-13.5c7.3,0,11.5,5.4,11.5,12.6v2.9H305.1z M314.5,17.9c-0.7-1.6-2.2-2.7-4.4-2.7		s-3.7,1.2-4.4,2.7c-0.4,1-0.6,1.7-0.6,2.8h10C315.1,19.6,314.9,18.8,314.5,17.9z"/>	<path fill="#B6008D" d="M2.8,78.6v-25h4.9v20.7H19v4.4H2.8z"/>	<path fill="#B6008D" d="M35.4,76.6c-1.1,1.2-3,2.3-5.7,2.3c-2.7,0-4.5-1.1-5.7-2.3c-1.7-1.7-2.1-3.8-2.1-7.1c0-3.3,0.4-5.4,2.1-7.1		c1.1-1.2,3-2.3,5.7-2.3c2.7,0,4.6,1.1,5.7,2.3c1.7,1.7,2.1,3.8,2.1,7.1C37.5,72.8,37.1,74.8,35.4,76.6z M31.8,65		c-0.5-0.5-1.2-0.8-2.1-0.8c-0.9,0-1.6,0.3-2.1,0.8c-0.9,0.9-1.1,2.5-1.1,4.4s0.1,3.5,1.1,4.5c0.5,0.5,1.2,0.8,2.1,0.8		c0.9,0,1.6-0.3,2.1-0.8c0.9-0.9,1.1-2.6,1.1-4.5S32.8,65.9,31.8,65z"/>	<path fill="#B6008D" d="M60,78.6h-3.8l-3.8-11.5l-3.8,11.5h-3.8l-5.6-18.3h4.9l3,11.3l3.7-11.3h3.3l3.8,11.3l3-11.3h4.8L60,78.6z"		/>	<path fill="#B6008D" d="M71.7,70.9c0,2.4,1.4,4.1,4,4.1c2,0,3-0.6,4.2-1.7l2.8,2.7c-1.9,1.9-3.7,2.9-7,2.9c-4.3,0-8.5-2-8.5-9.4		c0-6,3.2-9.4,8-9.4c5.1,0,8,3.7,8,8.8v2H71.7z M78.3,65.8c-0.5-1.1-1.5-1.9-3.1-1.9c-1.5,0-2.6,0.8-3.1,1.9c-0.3,0.7-0.4,1.2-0.4,2		h7C78.7,66.9,78.6,66.4,78.3,65.8z"/>	<path fill="#B6008D" d="M93.6,78.8c-2.9,0-5.5-0.3-7.8-2.6l3-3c1.5,1.5,3.5,1.7,4.9,1.7c1.6,0,3.2-0.5,3.2-1.9		c0-0.9-0.5-1.5-1.9-1.7L92.1,71c-3.3-0.3-5.3-1.8-5.3-5.1c0-3.8,3.3-5.8,7.1-5.8c2.8,0,5.2,0.5,7,2.1L98,65.1		c-1.1-0.9-2.7-1.2-4.3-1.2c-1.8,0-2.6,0.8-2.6,1.8c0,0.7,0.3,1.4,1.9,1.6l2.9,0.3c3.6,0.4,5.5,2.3,5.5,5.4		C101.4,76.9,97.9,78.8,93.6,78.8z"/>	<path fill="#B6008D" d="M111.2,78.6c-3.7,0-5.3-2.6-5.3-5.2v-9.1h-1.9v-3.5h1.9v-5.4h4.6v5.4h3.2v3.5h-3.2v8.8		c0,1.1,0.5,1.7,1.6,1.7h1.7v3.9H111.2z"/>	<path fill="#B6008D" d="M147.7,78.6h-4.1L139,63.4l-4.6,15.2h-4.1l-6.7-25h5.1l3.9,15.8l4.6-15.8h3.7l4.6,15.8l3.9-15.8h5.1		L147.7,78.6z"/>	<path fill="#B6008D" d="M166.1,78.6V77c-1.2,1.2-2.4,1.8-4.5,1.8c-2.1,0-3.6-0.5-4.7-1.6c-1-1-1.5-2.5-1.5-4.1c0-2.9,2-5.3,6.3-5.3		h4.3v-0.9c0-2-1-2.9-3.4-2.9c-1.8,0-2.6,0.4-3.5,1.5l-2.9-2.8c1.8-2,3.6-2.5,6.6-2.5c5.1,0,7.8,2.2,7.8,6.5v12.1H166.1z M166,70.9		h-3.6c-1.7,0-2.6,0.8-2.6,2.1c0,1.3,0.8,2.1,2.6,2.1c1.3,0,2.1-0.1,2.9-0.9c0.5-0.5,0.7-1.2,0.7-2.3V70.9z"/>	<path fill="#B6008D" d="M185.2,65.3c-0.7-0.7-1.3-1.1-2.4-1.1c-1.4,0-3,1.1-3,3.4v11h-4.6V60.3h4.5V62c0.9-1.1,2.6-2,4.6-2		c1.8,0,3.1,0.5,4.3,1.7L185.2,65.3z"/>	<path fill="#B6008D" d="M197.5,64.3v14.3h-4.6V64.3H191v-3.5h1.9v-2.3c0-2.6,1.6-5.2,5.3-5.2h2.6v3.9H199c-1.1,0-1.6,0.6-1.6,1.7v2		h3.4v3.5H197.5z"/>	<path fill="#B6008D" d="M213.9,78.6V77c-1.2,1.2-2.4,1.8-4.5,1.8c-2.1,0-3.6-0.5-4.7-1.6c-1-1-1.5-2.5-1.5-4.1c0-2.9,2-5.3,6.3-5.3		h4.3v-0.9c0-2-1-2.9-3.4-2.9c-1.8,0-2.6,0.4-3.5,1.5l-2.9-2.8c1.8-2,3.6-2.5,6.6-2.5c5.1,0,7.8,2.2,7.8,6.5v12.1H213.9z		 M213.8,70.9h-3.6c-1.7,0-2.6,0.8-2.6,2.1c0,1.3,0.8,2.1,2.6,2.1c1.3,0,2.1-0.1,2.9-0.9c0.5-0.5,0.7-1.2,0.7-2.3V70.9z"/>	<path fill="#B6008D" d="M233,65.3c-0.7-0.7-1.3-1.1-2.4-1.1c-1.4,0-3,1.1-3,3.4v11h-4.6V60.3h4.5V62c0.9-1.1,2.6-2,4.6-2		c1.8,0,3.1,0.5,4.3,1.7L233,65.3z"/>	<path fill="#B6008D" d="M239.4,57.1v-3.7h4.7v3.7H239.4z M239.4,78.6V60.3h4.6v18.3H239.4z"/>	<path fill="#B6008D" d="M259.4,78.6V67.5c0-2.5-1.6-3.3-3-3.3c-1.4,0-3.1,0.8-3.1,3.3v11.1h-4.6V60.3h4.5V62		c1.2-1.3,2.9-1.9,4.6-1.9c1.8,0,3.3,0.6,4.3,1.6c1.5,1.5,1.9,3.2,1.9,5.2v11.7H259.4z"/>	<path fill="#B6008D" d="M287.2,78.6v-1.7c-1.3,1.4-2.6,1.9-4.5,1.9c-1.8,0-3.5-0.6-4.5-1.7c-1.8-1.8-1.9-5-1.9-7.7s0-5.9,1.9-7.7		c1-1,2.7-1.7,4.5-1.7c1.9,0,3.3,0.5,4.5,1.8v-8.3h4.6v25H287.2z M284,64.2c-2.7,0-3.1,2.3-3.1,5.2s0.4,5.3,3.1,5.3s3.1-2.3,3.1-5.3		S286.7,64.2,284,64.2z"/>	<path fill="#B6008D" d="M309.3,76.6c-1.1,1.2-3,2.3-5.7,2.3c-2.7,0-4.5-1.1-5.7-2.3c-1.7-1.7-2.1-3.8-2.1-7.1		c0-3.3,0.4-5.4,2.1-7.1c1.1-1.2,3-2.3,5.7-2.3c2.7,0,4.6,1.1,5.7,2.3c1.7,1.7,2.1,3.8,2.1,7.1C311.4,72.8,311,74.8,309.3,76.6z		 M305.7,65c-0.5-0.5-1.2-0.8-2.1-0.8c-0.9,0-1.6,0.3-2.1,0.8c-0.9,0.9-1.1,2.5-1.1,4.4s0.1,3.5,1.1,4.5c0.5,0.5,1.2,0.8,2.1,0.8		c0.9,0,1.6-0.3,2.1-0.8c0.9-0.9,1.1-2.6,1.1-4.5S306.7,65.9,305.7,65z"/>	<path fill="#B6008D" d="M321.6,78.8c-2.9,0-5.5-0.3-7.8-2.6l3-3c1.5,1.5,3.5,1.7,4.9,1.7c1.6,0,3.2-0.5,3.2-1.9		c0-0.9-0.5-1.5-1.9-1.7l-2.9-0.3c-3.3-0.3-5.3-1.8-5.3-5.1c0-3.8,3.3-5.8,7.1-5.8c2.8,0,5.2,0.5,7,2.1l-2.8,2.8		c-1.1-0.9-2.7-1.2-4.3-1.2c-1.8,0-2.6,0.8-2.6,1.8c0,0.7,0.3,1.4,1.9,1.6l2.9,0.3c3.6,0.4,5.5,2.3,5.5,5.4		C329.4,76.9,325.9,78.8,321.6,78.8z"/>	<path fill="#B6008D" d="M343,78.6V77c-1.2,1.2-2.4,1.8-4.5,1.8c-2.1,0-3.6-0.5-4.7-1.6c-1-1-1.5-2.5-1.5-4.1c0-2.9,2-5.3,6.3-5.3		h4.3v-0.9c0-2-1-2.9-3.4-2.9c-1.8,0-2.6,0.4-3.5,1.5l-2.9-2.8c1.8-2,3.6-2.5,6.6-2.5c5.1,0,7.8,2.2,7.8,6.5v12.1H343z M342.9,70.9		h-3.6c-1.7,0-2.6,0.8-2.6,2.1c0,1.3,0.8,2.1,2.6,2.1c1.3,0,2.1-0.1,2.9-0.9c0.5-0.5,0.7-1.2,0.7-2.3V70.9z"/>	<path fill="#B6008D" d="M358.6,85.5c-2.8,0-4.7-0.6-6.6-2.4l2.8-2.9c1,1,2,1.4,3.6,1.4c2.7,0,3.7-1.9,3.7-3.8V76		c-1.2,1.3-2.6,1.8-4.4,1.8c-1.8,0-3.3-0.6-4.4-1.6c-1.7-1.7-1.9-4.1-1.9-7.3c0-3.2,0.1-5.5,1.9-7.2c1-1,2.6-1.6,4.4-1.6		c1.9,0,3.2,0.5,4.5,1.9v-1.7h4.4v17.7C366.6,82.3,363.5,85.5,358.6,85.5z M359.1,64.2c-2.7,0-3,2.3-3,4.7c0,2.4,0.3,4.8,3,4.8		s3-2.4,3-4.8C362.1,66.5,361.8,64.2,359.1,64.2z"/>	<path fill="#B6008D" d="M375.1,70.9c0,2.4,1.4,4.1,4,4.1c2,0,3-0.6,4.2-1.7l2.8,2.7c-1.9,1.9-3.7,2.9-7,2.9c-4.3,0-8.5-2-8.5-9.4		c0-6,3.2-9.4,8-9.4c5.1,0,8,3.7,8,8.8v2H375.1z M381.7,65.8c-0.5-1.1-1.5-1.9-3.1-1.9c-1.5,0-2.6,0.8-3.1,1.9		c-0.3,0.7-0.4,1.2-0.4,2h7C382.1,66.9,382,66.4,381.7,65.8z"/></g></svg>