<!-- Generator: Adobe Illustrator 17.1.0, SVG Export Plug-In  --><svg version="1.1"	 xmlns="http://www.w3.org/2000/svg" xmlns:xlink="http://www.w3.org/1999/xlink" xmlns:a="http://ns.adobe.com/AdobeSVGViewerExtensions/3.0/"	 x="0px" y="0px" width="1263.6px" height="516.4px" viewBox="0 0 1263.6 516.4" enable-background="new 0 0 1263.6 516.4"	 xml:space="preserve"><defs></defs><g>			<path fill="none" stroke="#007ABF" stroke-width="3.2093" stroke-linecap="round" stroke-linejoin="round" stroke-miterlimit="10" d="		M1212.4,191.3c12.3,0,22.3-14.3,22.3-26.6c0-12.3-10-22.3-22.3-22.3c-12.3,0-22.3,10-22.3,22.3		C1190.1,177.1,1200.1,191.3,1212.4,191.3"/>	<g>		<path fill="#007ABF" d="M1212.5,196.3c0.7,0,1.4,0,2.1,0l0.2,0l0.1,0c0.7,0,1.4,0.1,2.1,0.1l0.3,0c3.6,0.3,7.6,0.8,11.7,1.6			c0.1,0,0.3,0,0.3,0.1c0.6,0.1,1.1,0.2,1.7,0.4l0.2,0.1l0.1,0c0,0,0.1,0,0.1,0c7.7,1.7,14.2,3.8,17.4,4.9l0.1,0c0,0,0.1,0,0.1,0			c0.1,0.1,0.3,0.2,0.5,0.3c0.1,0,0.2,0.1,0.2,0.1c0.6,0.2,1,0.5,1.2,0.7c0.1,0.1,0.2,0.1,0.2,0.2c0,0.1,0.1,0.1,0.1,0.2l0.2,0.2			c0.1,0.1,0.1,0.2,0.2,0.3c0.3,0.3,0.6,0.7,0.7,1c0,0.1,0.1,0.3,0.1,0.5c0,0.2,0.1,0.3,0.1,0.5c0.1,0.4,0.2,0.7,0.3,0.9			c0,0,0,0,0,0l4.1,36.7l2.9,25.8l0.1,0.9c0.3,3.1-1.9,5.8-4.9,6.2c-0.2,0-0.4,0-0.7,0c-2.8,0-5.2-2.1-5.6-5l-0.4-3.7			c0-0.3-0.1-0.6-0.2-0.9l-5.9-53.3c-0.1-1.3-1.1-2.4-2.3-2.7l-0.5-0.1c-0.6-0.2-1.2-0.4-2-0.5c-0.2-0.1-0.5-0.1-0.7-0.1			c-0.7,0-1.4,0.2-2,0.7c-0.8,0.6-1.2,1.5-1.2,2.5v60.1c0,0.1,0,0.2,0,0.3l1.6,20.2c0,0.2,0,0.4,0.1,0.6l5.3,66.5			c0.3,4-2.6,7.6-6.6,8h0h-0.7h-0.1c-3.8,0-7-3-7.3-6.8l-6.4-78.8c-0.1-1-0.6-1.9-1.5-2.5c-0.5-0.3-1.1-0.5-1.7-0.5			c-0.4,0-0.8,0.1-1.2,0.2c-1,0.4-1.9,0.6-2.8,0.6c-0.1,0-0.1,0-0.1,0c0,0,0,0,0,0c0,0-0.1,0-0.1,0c-0.9,0-1.9-0.2-2.8-0.6			c-0.4-0.2-0.8-0.2-1.2-0.2c-0.6,0-1.2,0.2-1.7,0.5c-0.9,0.5-1.4,1.5-1.5,2.5l-6.4,78.8c-0.3,3.8-3.5,6.7-7.4,6.7h-0.1h-0.7			c-4-0.4-7-3.9-6.6-8l5.3-66.5c0-0.2,0.1-0.4,0.1-0.6l1.6-20.2c0-0.1,0-0.2,0-0.3V215c0-1-0.4-1.9-1.2-2.5c-0.6-0.5-1.3-0.7-2-0.7			c-0.2,0-0.5,0-0.7,0.1c-0.7,0.2-1.4,0.4-2,0.5l-0.5,0.1c-1.2,0.4-2.2,1.4-2.3,2.7l-5.9,53.3c-0.1,0.3-0.2,0.6-0.2,0.9l-0.4,3.7			c-0.3,2.8-2.7,5-5.6,5c-0.3,0-0.5,0-0.7,0c-3.1-0.4-5.3-3.2-4.9-6.2l0.1-0.9l2.9-25.8l4.1-36.7c0,0,0,0,0,0			c0.1-0.2,0.2-0.5,0.3-0.9c0-0.2,0.1-0.3,0.1-0.5c0-0.2,0.1-0.4,0.2-0.5c0.1-0.3,0.5-0.6,0.7-0.9c0.1-0.1,0.1-0.2,0.2-0.3l0.2-0.2			c0-0.1,0.1-0.1,0.1-0.2c0.1-0.1,0.2-0.1,0.2-0.2c0.2-0.2,0.6-0.5,1.2-0.7c0.1,0,0.2-0.1,0.2-0.1c0.2-0.1,0.4-0.2,0.5-0.3			c0,0,0.1,0,0.1,0l0.1,0c3.2-1.1,9.7-3.2,17.4-4.8c0,0,0.1,0,0.1,0l0.1,0l0.2-0.1c0.6-0.1,1.1-0.2,1.7-0.3c0.1,0,0.3,0,0.3-0.1			c4.2-0.8,8.2-1.4,11.8-1.6l0.2,0c0.7-0.1,1.5-0.1,2.2-0.1l0.2,0l0.2,0c0.8,0,1.5,0,2.1,0C1212.4,196.3,1212.4,196.3,1212.5,196.3			C1212.4,196.3,1212.4,196.3,1212.5,196.3C1212.4,196.3,1212.5,196.3,1212.5,196.3 M1212.5,193.1			C1212.5,193.1,1212.4,193.1,1212.5,193.1c-0.1,0-0.1,0-0.1,0c-0.8,0-1.5,0-2.3,0c-0.1,0-0.2,0-0.4,0c-0.8,0-1.5,0.1-2.3,0.1			c-0.1,0-0.2,0-0.3,0c-4.1,0.3-8.3,0.9-12.2,1.7c-0.1,0-0.2,0-0.3,0.1c-0.6,0.1-1.2,0.2-1.7,0.4c-0.2,0-0.3,0.1-0.5,0.1l0,0			c-8.6,1.9-15.7,4.2-17.8,4.9c-0.1,0-0.3,0.1-0.4,0.1c-0.1,0-0.2,0.1-0.3,0.1c-0.2,0.1-0.3,0.2-0.4,0.3c-0.9,0.3-1.7,0.8-2.3,1.4			c-0.3,0.3-0.6,0.6-0.8,0.9c-0.5,0.5-0.9,1-1.2,1.6c-0.3,0.6-0.4,1.2-0.6,1.7c-0.1,0.4-0.4,0.8-0.4,1.3l-4.1,36.8l-2.9,25.8			l-0.1,0.9c-0.5,4.8,3,9.2,7.8,9.7c0.3,0,0.7,0,1,0c4.4,0,8.2-3.3,8.8-7.8l0.4-3.7l0.1,0.6l6.1-54.8c0.7-0.2,1.5-0.4,2.3-0.6v60.1			l-1.6,20.2c0,0,0,0-0.1,0l-5.4,67c-0.5,5.8,3.9,10.9,9.7,11.4h0h0.1h0h0.7h0h0.1h0c5.5,0,10.1-4.2,10.5-9.7l6.4-78.8			c1.3,0.5,2.6,0.8,4.1,0.8c0,0,0,0,0.1,0c0,0,0,0,0.1,0c1.5,0,2.8-0.3,4.1-0.8l6.4,78.8c0.4,5.5,5,9.7,10.5,9.7h0h0.1h0h0.7h0h0.1			h0c5.8-0.5,10.2-5.6,9.7-11.4l-5.4-67c0,0,0,0-0.1,0l-1.6-20.2V215c0.9,0.2,1.6,0.4,2.3,0.6l6.1,54.8l0.1-0.6l0.4,3.7			c0.5,4.5,4.3,7.8,8.8,7.8c0.3,0,0.7,0,1,0c4.8-0.6,8.3-4.9,7.8-9.7l-0.1-0.9l-2.9-25.8l-4.1-36.8c0-0.5-0.3-0.9-0.4-1.3			c-0.2-0.6-0.3-1.2-0.6-1.7c-0.3-0.6-0.7-1.1-1.2-1.6c-0.3-0.3-0.5-0.7-0.8-0.9c-0.7-0.7-1.5-1.1-2.3-1.4c-0.2-0.1-0.3-0.2-0.4-0.3			c0,0-0.2,0-0.3-0.1c-0.1,0-0.3-0.1-0.4-0.1c-2.1-0.7-9.1-3.1-17.8-4.9l0,0c-0.2,0-0.3-0.1-0.5-0.1c-0.6-0.1-1.2-0.2-1.7-0.4			c-0.1,0-0.2,0-0.3-0.1c-3.9-0.8-8.1-1.4-12.2-1.7c-0.1,0-0.2,0-0.3,0c-0.8-0.1-1.5-0.1-2.3-0.1c-0.1,0-0.2,0-0.4,0			C1214,193.1,1213.2,193.1,1212.5,193.1L1212.5,193.1z"/>	</g></g><g>			<path fill="none" stroke="#007ABF" stroke-width="3.2093" stroke-linecap="round" stroke-linejoin="round" stroke-miterlimit="10" d="		M609.4,50.5c12.3,0,22.3-14.3,22.3-26.6c0-12.3-10-22.3-22.3-22.3c-12.3,0-22.3,10-22.3,22.3C587.1,36.2,597.1,50.5,609.4,50.5"/>	<g>		<path fill="#007ABF" d="M609.5,55.5c0.7,0,1.4,0,2.1,0l0.2,0l0.1,0c0.7,0,1.4,0.1,2.1,0.1l0.3,0c3.6,0.3,7.6,0.8,11.7,1.6			c0.1,0,0.3,0,0.3,0.1c0.6,0.1,1.1,0.2,1.7,0.4l0.2,0.1l0.1,0c0,0,0.1,0,0.1,0c7.7,1.7,14.2,3.8,17.4,4.9l0.1,0c0,0,0.1,0,0.1,0			c0.1,0.1,0.3,0.2,0.5,0.3c0.1,0,0.2,0.1,0.2,0.1c0.6,0.2,1,0.5,1.2,0.7c0.1,0.1,0.1,0.1,0.2,0.2c0,0.1,0.1,0.1,0.1,0.2l0.2,0.2			c0.1,0.1,0.1,0.2,0.2,0.3c0.3,0.3,0.6,0.7,0.7,1c0,0.1,0.1,0.3,0.1,0.5c0,0.2,0.1,0.3,0.1,0.5c0.1,0.4,0.2,0.7,0.3,0.9			c0,0,0,0,0,0l4.1,36.7l2.9,25.8l0.1,0.9c0.3,3.1-1.9,5.8-4.9,6.2c-0.2,0-0.4,0-0.7,0c-2.8,0-5.2-2.1-5.6-5l-0.4-3.7			c0-0.3-0.1-0.6-0.2-0.9l-5.9-53.3c-0.1-1.3-1.1-2.4-2.3-2.7l-0.5-0.1c-0.6-0.2-1.2-0.4-2-0.5c-0.2-0.1-0.5-0.1-0.7-0.1			c-0.7,0-1.4,0.2-2,0.7c-0.8,0.6-1.2,1.5-1.2,2.5v60.1c0,0.1,0,0.2,0,0.3l1.6,20.2c0,0.2,0,0.4,0.1,0.6l5.3,66.5			c0.3,4-2.6,7.6-6.6,8h0h-0.7h-0.1c-3.8,0-7-3-7.3-6.8l-6.4-78.8c-0.1-1-0.6-1.9-1.5-2.5c-0.5-0.3-1.1-0.5-1.7-0.5			c-0.4,0-0.8,0.1-1.2,0.2c-1,0.4-1.9,0.6-2.8,0.6c-0.1,0-0.1,0-0.1,0c0,0,0,0,0,0c0,0-0.1,0-0.1,0c-0.9,0-1.9-0.2-2.8-0.6			c-0.4-0.2-0.8-0.2-1.2-0.2c-0.6,0-1.2,0.2-1.7,0.5c-0.9,0.5-1.4,1.5-1.5,2.5l-6.4,78.8c-0.3,3.8-3.5,6.7-7.4,6.7h-0.1h-0.7			c-4-0.4-7-3.9-6.6-8l5.3-66.5c0-0.2,0.1-0.4,0.1-0.6l1.6-20.2c0-0.1,0-0.2,0-0.3V74.1c0-1-0.4-1.9-1.2-2.5c-0.6-0.5-1.3-0.7-2-0.7			c-0.2,0-0.5,0-0.7,0.1c-0.7,0.2-1.4,0.4-2,0.5l-0.5,0.1c-1.2,0.4-2.2,1.4-2.3,2.7l-5.9,53.3c-0.1,0.3-0.2,0.6-0.2,0.9l-0.4,3.7			c-0.3,2.8-2.7,5-5.6,5c-0.3,0-0.5,0-0.7,0c-3.1-0.4-5.3-3.2-4.9-6.2l0.1-0.9l2.9-25.8l4.1-36.7c0,0,0,0,0,0			c0.1-0.2,0.2-0.5,0.3-0.9c0-0.2,0.1-0.3,0.1-0.5c0-0.2,0.1-0.4,0.2-0.5c0.1-0.3,0.5-0.6,0.7-0.9c0.1-0.1,0.1-0.2,0.2-0.3l0.2-0.2			c0-0.1,0.1-0.1,0.1-0.2c0.1-0.1,0.2-0.1,0.2-0.2c0.2-0.2,0.6-0.5,1.2-0.7c0.1,0,0.2-0.1,0.2-0.1c0.2-0.1,0.4-0.2,0.5-0.3			c0,0,0.1,0,0.1,0l0.1,0c3.2-1.1,9.7-3.2,17.4-4.8c0,0,0.1,0,0.1,0l0.1,0l0.2,0c0.6-0.1,1.1-0.2,1.7-0.3c0.1,0,0.2,0,0.3-0.1			c4.2-0.8,8.2-1.4,11.8-1.6l0.2,0c0.7-0.1,1.4-0.1,2.2-0.1l0.1,0l0.2,0c0.8,0,1.5,0,2.1,0C609.3,55.5,609.4,55.5,609.5,55.5			C609.4,55.5,609.4,55.5,609.5,55.5C609.4,55.5,609.5,55.5,609.5,55.5 M609.5,52.3C609.5,52.3,609.4,52.3,609.5,52.3			c-0.1,0-0.1,0-0.1,0c-0.8,0-1.5,0-2.3,0c-0.1,0-0.2,0-0.4,0c-0.8,0-1.5,0.1-2.3,0.1c-0.1,0-0.2,0-0.3,0c-4.1,0.3-8.3,0.9-12.2,1.7			c-0.1,0-0.2,0-0.3,0.1c-0.6,0.1-1.2,0.2-1.7,0.4c-0.2,0-0.3,0.1-0.5,0.1l0,0c-8.6,1.9-15.7,4.2-17.8,5c-0.1,0-0.3,0.1-0.4,0.1			c-0.1,0-0.2,0.1-0.3,0.1c-0.2,0.1-0.3,0.2-0.4,0.3c-0.9,0.3-1.7,0.8-2.3,1.4c-0.3,0.3-0.6,0.6-0.8,0.9c-0.5,0.5-0.9,1-1.2,1.6			c-0.3,0.6-0.4,1.2-0.6,1.7c-0.1,0.4-0.4,0.8-0.4,1.3l-4.1,36.8l-2.9,25.8l-0.1,0.9c-0.5,4.8,3,9.2,7.8,9.7c0.3,0,0.7,0,1,0			c4.4,0,8.2-3.3,8.8-7.8l0.4-3.7l0.1,0.6l6.1-54.8c0.7-0.2,1.5-0.4,2.3-0.6v60.1l-1.6,20.2c0,0,0,0-0.1,0l-5.4,67			c-0.5,5.8,3.9,10.9,9.7,11.4h0h0.1h0h0.7h0h0.1h0c5.5,0,10.1-4.2,10.5-9.7l6.4-78.8c1.3,0.5,2.6,0.8,4.1,0.8c0,0,0,0,0.1,0			c0,0,0,0,0.1,0c1.5,0,2.8-0.3,4.1-0.8l6.4,78.8c0.4,5.5,5,9.7,10.5,9.7h0h0.1h0h0.7h0h0.1h0c5.8-0.5,10.2-5.6,9.7-11.4l-5.4-67			c0,0,0,0-0.1,0l-1.6-20.2V74.1c0.9,0.2,1.6,0.4,2.3,0.6l6.1,54.8l0.1-0.6l0.4,3.7c0.5,4.5,4.3,7.8,8.8,7.8c0.3,0,0.7,0,1,0			c4.8-0.6,8.3-4.9,7.8-9.7l-0.1-0.9l-2.9-25.8l-4.1-36.8c0-0.5-0.3-0.9-0.4-1.3c-0.2-0.6-0.3-1.2-0.6-1.7c-0.3-0.6-0.7-1.1-1.2-1.6			c-0.3-0.3-0.5-0.7-0.8-0.9c-0.7-0.7-1.5-1.1-2.3-1.4c-0.2-0.1-0.3-0.2-0.4-0.3c0,0-0.2,0-0.3-0.1c-0.1,0-0.3-0.1-0.4-0.1			c-2.1-0.7-9.1-3.1-17.8-5l0,0c-0.2,0-0.3-0.1-0.5-0.1c-0.6-0.1-1.2-0.2-1.7-0.4c-0.1,0-0.2,0-0.3-0.1c-3.9-0.8-8.1-1.4-12.2-1.7			c-0.1,0-0.2,0-0.3,0c-0.8-0.1-1.5-0.1-2.3-0.1c-0.1,0-0.2,0-0.4,0C611,52.3,610.2,52.3,609.5,52.3L609.5,52.3z"/>	</g></g><g>			<path fill="none" stroke="#007ABF" stroke-width="3.2093" stroke-linecap="round" stroke-linejoin="round" stroke-miterlimit="10" d="		M609.4,334c12.3,0,22.3-14.3,22.3-26.6c0-12.3-10-22.3-22.3-22.3c-12.3,0-22.3,10-22.3,22.3C587.1,319.7,597.1,334,609.4,334"/>	<g>		<path fill="#007ABF" d="M609.5,339c0.7,0,1.4,0,2.1,0l0.2,0l0.1,0c0.7,0,1.4,0.1,2.1,0.1l0.3,0c3.6,0.3,7.6,0.8,11.7,1.6			c0.1,0,0.3,0,0.3,0.1c0.6,0.1,1.1,0.2,1.7,0.4l0.3,0.1l0.1,0c0,0,0.1,0,0.1,0c7.7,1.7,14.2,3.8,17.4,4.9l0.1,0c0,0,0.1,0,0.1,0			c0.1,0.1,0.3,0.2,0.5,0.3c0.1,0,0.2,0.1,0.2,0.1c0.6,0.2,1,0.5,1.2,0.7c0.1,0.1,0.2,0.1,0.2,0.2c0,0.1,0.1,0.1,0.1,0.2l0.2,0.2			c0.1,0.1,0.1,0.2,0.2,0.3c0.3,0.3,0.6,0.7,0.7,1c0,0.1,0.1,0.3,0.1,0.5c0,0.2,0.1,0.3,0.1,0.5c0.1,0.4,0.2,0.7,0.3,0.9			c0,0,0,0,0,0l4.1,36.7l2.9,25.8l0.1,0.9c0.3,3.1-1.9,5.8-4.9,6.2c-0.2,0-0.4,0-0.7,0c-2.8,0-5.2-2.1-5.6-5l-0.4-3.7			c0-0.3-0.1-0.6-0.2-0.9l-5.9-53.3c-0.1-1.3-1.1-2.4-2.3-2.7l-0.5-0.1c-0.6-0.2-1.2-0.4-2-0.5c-0.2-0.1-0.5-0.1-0.7-0.1			c-0.7,0-1.4,0.2-2,0.7c-0.8,0.6-1.2,1.5-1.2,2.5v60.1c0,0.1,0,0.2,0,0.3l1.6,20.2c0,0.2,0,0.4,0.1,0.6l5.3,66.5			c0.3,4-2.6,7.6-6.6,8h0h-0.7h-0.1c-3.8,0-7-3-7.3-6.8l-6.4-78.8c-0.1-1-0.6-1.9-1.5-2.5c-0.5-0.3-1.1-0.5-1.7-0.5			c-0.4,0-0.8,0.1-1.2,0.2c-1,0.4-1.9,0.6-2.8,0.6c-0.1,0-0.1,0-0.1,0c0,0,0,0,0,0c0,0-0.1,0-0.1,0c-0.9,0-1.9-0.2-2.8-0.6			c-0.4-0.2-0.8-0.2-1.2-0.2c-0.6,0-1.2,0.2-1.7,0.5c-0.9,0.5-1.4,1.5-1.5,2.5l-6.4,78.8c-0.3,3.8-3.5,6.7-7.4,6.7h-0.1h-0.7			c-4-0.4-7-3.9-6.6-8l5.3-66.5c0-0.2,0.1-0.4,0.1-0.6l1.6-20.2c0-0.1,0-0.2,0-0.3v-60.1c0-1-0.4-1.9-1.2-2.5			c-0.6-0.5-1.3-0.7-2-0.7c-0.2,0-0.5,0-0.7,0.1c-0.7,0.2-1.4,0.4-2,0.5l-0.5,0.1c-1.2,0.4-2.2,1.4-2.3,2.7l-5.9,53.3			c-0.1,0.3-0.2,0.6-0.2,0.9l-0.4,3.7c-0.3,2.8-2.7,5-5.6,5c-0.3,0-0.5,0-0.7,0c-3.1-0.4-5.3-3.2-4.9-6.2l0.1-0.9l2.9-25.8l4.1-36.7			c0,0,0,0,0,0c0.1-0.2,0.2-0.5,0.3-0.9c0-0.2,0.1-0.3,0.1-0.5c0-0.2,0.1-0.4,0.2-0.5c0.1-0.3,0.5-0.6,0.7-0.9			c0.1-0.1,0.1-0.2,0.2-0.3l0.2-0.2c0-0.1,0.1-0.1,0.1-0.2c0.1-0.1,0.2-0.1,0.2-0.2c0.2-0.2,0.6-0.5,1.2-0.7c0.1,0,0.2-0.1,0.2-0.1			c0.2-0.1,0.4-0.2,0.5-0.3c0,0,0.1,0,0.1,0l0.1,0c3.2-1.1,9.7-3.2,17.4-4.8c0,0,0.1,0,0.1,0l0.1,0l0.2-0.1c0.6-0.1,1.1-0.2,1.7-0.3			c0.1,0,0.3,0,0.3-0.1c4.2-0.8,8.2-1.4,11.8-1.6l0.2,0c0.7-0.1,1.5-0.1,2.2-0.1l0.2,0l0.2,0c0.8,0,1.5,0,2.1,0			C609.3,339,609.4,339,609.5,339C609.4,339,609.4,339,609.5,339C609.4,339,609.5,339,609.5,339 M609.5,335.8			C609.5,335.8,609.4,335.8,609.5,335.8c-0.1,0-0.1,0-0.1,0c-0.8,0-1.5,0-2.3,0c-0.1,0-0.2,0-0.4,0c-0.8,0-1.5,0.1-2.3,0.1			c-0.1,0-0.2,0-0.3,0c-4.1,0.3-8.3,0.9-12.2,1.7c-0.1,0-0.2,0-0.3,0.1c-0.6,0.1-1.2,0.2-1.7,0.4c-0.2,0-0.3,0.1-0.5,0.1l0,0			c-8.6,1.9-15.7,4.2-17.8,4.9c-0.1,0-0.3,0.1-0.4,0.1c-0.1,0-0.2,0.1-0.3,0.1c-0.2,0.1-0.3,0.2-0.4,0.3c-0.9,0.3-1.7,0.8-2.3,1.4			c-0.3,0.3-0.6,0.6-0.8,0.9c-0.5,0.5-0.9,1-1.2,1.6c-0.3,0.6-0.4,1.2-0.6,1.7c-0.1,0.4-0.4,0.8-0.4,1.3l-4.1,36.8l-2.9,25.8			l-0.1,0.9c-0.5,4.8,3,9.2,7.8,9.7c0.3,0,0.7,0,1,0c4.4,0,8.2-3.3,8.8-7.8l0.4-3.7l0.1,0.6l6.1-54.8c0.7-0.2,1.5-0.4,2.3-0.6v60.1			l-1.6,20.2c0,0,0,0-0.1,0l-5.4,67c-0.5,5.8,3.9,10.9,9.7,11.4h0h0.1h0h0.7h0h0.1h0c5.5,0,10.1-4.2,10.5-9.7l6.4-78.8			c1.3,0.5,2.6,0.8,4.1,0.8c0,0,0,0,0.1,0c0,0,0,0,0.1,0c1.5,0,2.8-0.3,4.1-0.8l6.4,78.8c0.4,5.5,5,9.7,10.5,9.7h0h0.1h0h0.7h0h0.1			h0c5.8-0.5,10.2-5.6,9.7-11.4l-5.4-67c0,0,0,0-0.1,0l-1.6-20.2v-60.1c0.9,0.2,1.6,0.4,2.3,0.6l6.1,54.8l0.1-0.6l0.4,3.7			c0.5,4.5,4.3,7.8,8.8,7.8c0.3,0,0.7,0,1,0c4.8-0.6,8.3-4.9,7.8-9.7l-0.1-0.9l-2.9-25.8l-4.1-36.8c0-0.5-0.3-0.9-0.4-1.3			c-0.2-0.6-0.3-1.2-0.6-1.7c-0.3-0.6-0.7-1.1-1.2-1.6c-0.3-0.3-0.5-0.7-0.8-0.9c-0.7-0.7-1.5-1.1-2.3-1.4c-0.2-0.1-0.3-0.2-0.4-0.3			c0,0-0.2,0-0.3-0.1c-0.1,0-0.3-0.1-0.4-0.1c-2.1-0.7-9.1-3.1-17.8-4.9l0,0c-0.2,0-0.3-0.1-0.5-0.1c-0.6-0.1-1.2-0.2-1.7-0.4			c-0.1,0-0.2,0-0.3-0.1c-3.9-0.8-8.1-1.4-12.2-1.7c-0.1,0-0.2,0-0.3,0c-0.8-0.1-1.5-0.1-2.3-0.1c-0.1,0-0.2,0-0.4,0			C611,335.8,610.2,335.8,609.5,335.8L609.5,335.8z"/>	</g></g><g>	<path fill="#B6008D" d="M106.5,204.6h-4.9l-11.2-33.8h6.8l6.8,22l6.8-22h6.9L106.5,204.6z"/>	<path fill="#B6008D" d="M141.8,204.6l-8.7-15.4l-4.4,5.2v10.2h-6.6v-33.8h6.6v14.7l11.9-14.7h8l-11.2,13.4l12,20.4H141.8z"/>	<path fill="#B6008D" d="M172.7,201.2c-2.4,2.4-5.3,3.7-9.1,3.7c-3.8,0-6.8-1.3-9.2-3.7c-3.4-3.4-3.3-7.6-3.3-13.5		c0-5.8-0.1-10.1,3.3-13.5c2.4-2.4,5.3-3.7,9.2-3.7c3.8,0,6.7,1.3,9.1,3.7c3.4,3.4,3.4,7.6,3.4,13.5		C176.1,193.6,176.1,197.8,172.7,201.2z M167.8,178.2c-0.9-1.1-2.4-1.8-4.2-1.8c-1.8,0-3.3,0.7-4.3,1.8c-1.3,1.4-1.6,3-1.6,9.5		c0,6.5,0.3,8.1,1.6,9.5c0.9,1.1,2.5,1.8,4.3,1.8c1.8,0,3.3-0.7,4.2-1.8c1.3-1.4,1.7-3,1.7-9.5C169.5,181.2,169.1,179.6,167.8,178.2		z"/>	<path fill="#B6008D" d="M200.2,204.6l-6.6-13.5h-4.7v13.5h-6.6v-33.8h13.3c6.9,0,11,4.7,11,10.4c0,4.7-2.9,7.7-6.2,8.9l7.6,14.6		H200.2z M195.1,176.7h-6.2v8.9h6.2c2.9,0,4.8-1.9,4.8-4.5C199.9,178.6,198,176.7,195.1,176.7z"/>	<path fill="#B6008D" d="M224,204.9c-3.7,0-6.7-1.3-9.1-3.7c-3.4-3.4-3.3-7.6-3.3-13.5c0-5.8-0.1-10.1,3.3-13.5		c2.4-2.4,5.4-3.7,9.1-3.7c6.3,0,11.3,3.6,12.4,10.7h-6.7c-0.7-2.7-2.4-4.8-5.7-4.8c-1.8,0-3.3,0.7-4.2,1.8c-1.3,1.4-1.7,3-1.7,9.5		c0,6.5,0.4,8.1,1.7,9.5c1,1.1,2.4,1.8,4.2,1.8c3.3,0,5-2.1,5.7-4.8h6.7C235.3,201.3,230.3,204.9,224,204.9z"/>	<path fill="#B6008D" d="M249,204.6v-27.2l-6.9,6v-6.6l6.9-6h6.2v33.8H249z"/></g><g>	<path fill="#B6008D" d="M18.3,257.9c-2.3,2.3-4.9,3.2-8,3.2c-3.1,0-5.6-1.1-7.6-3.1c-2.8-2.8-2.8-6.4-2.8-11.2		c0-4.9-0.1-8.4,2.8-11.2c2-2,4.4-3.1,7.6-3.1c6.5,0,9.9,4.3,10.6,9h-5.5c-0.6-2.7-2.3-4.1-5.1-4.1c-1.5,0-2.7,0.6-3.5,1.5		c-1.1,1.2-1.3,2.5-1.3,7.9c0,5.4,0.3,6.8,1.3,8c0.8,0.9,2,1.5,3.5,1.5c1.7,0,3-0.6,3.9-1.6c0.9-1,1.3-2.3,1.3-3.8v-1.1h-5.2v-4.6		H21v4.1C21,253.3,20.3,255.8,18.3,257.9z"/>	<path fill="#B6008D" d="M26.2,260.8v-28.2h18.6v4.9H31.7v6.6h11.1v4.9H31.7v6.8h13.1v4.9H26.2z"/>	<path fill="#B6008D" d="M66.4,260.8l-11.2-17.3v17.3h-5.5v-28.2h4.9l11.2,17.3v-17.3h5.5v28.2H66.4z"/>	<path fill="#B6008D" d="M77.4,260.8v-28.2H96v4.9H82.9v6.6H94v4.9H82.9v6.8H96v4.9H77.4z"/>	<path fill="#B6008D" d="M110.5,260.8v-28.2h5.5v28.2H110.5z"/>	<path fill="#B6008D" d="M138.7,260.8l-11.2-17.3v17.3h-5.5v-28.2h4.9l11.2,17.3v-17.3h5.5v28.2H138.7z"/>	<path fill="#B6008D" d="M164.8,260.8V249h-9.5v11.8h-5.5v-28.2h5.5v11.5h9.5v-11.5h5.5v28.2H164.8z"/>	<path fill="#B6008D" d="M176.3,260.8v-28.2h18.6v4.9h-13.1v6.6H193v4.9h-11.1v6.8h13.1v4.9H176.3z"/>	<path fill="#B6008D" d="M214.8,260.8l-5.5-11.2h-4v11.2h-5.5v-28.2h11c5.7,0,9.1,3.9,9.1,8.6c0,4-2.4,6.4-5.1,7.4l6.3,12.2H214.8z		 M210.6,237.6h-5.2v7.4h5.2c2.4,0,4-1.5,4-3.7C214.6,239.1,213,237.6,210.6,237.6z"/>	<path fill="#B6008D" d="M225.5,260.8v-28.2h5.5v28.2H225.5z"/>	<path fill="#B6008D" d="M248,237.6v23.3h-5.5v-23.3h-7.4v-4.9h20.2v4.9H248z"/>	<path fill="#B6008D" d="M273.5,260.8l-1.7-5h-10l-1.7,5h-5.7l10.3-28.2h4.3l10.3,28.2H273.5z M266.9,241l-3.6,10.3h7L266.9,241z"/>	<path fill="#B6008D" d="M299.6,260.8l-11.2-17.3v17.3H283v-28.2h4.9l11.2,17.3v-17.3h5.5v28.2H299.6z"/>	<path fill="#B6008D" d="M320.2,261.1c-3.1,0-5.6-1.1-7.6-3.1c-2.8-2.8-2.8-6.4-2.8-11.2c0-4.9-0.1-8.4,2.8-11.2		c2-2,4.5-3.1,7.6-3.1c5.3,0,9.4,3,10.4,8.9H325c-0.6-2.3-2-4-4.7-4c-1.5,0-2.7,0.6-3.5,1.5c-1.1,1.2-1.4,2.5-1.4,8		c0,5.4,0.3,6.8,1.4,8c0.8,0.9,2,1.5,3.5,1.5c2.8,0,4.2-1.7,4.7-4h5.6C329.5,258.1,325.4,261.1,320.2,261.1z"/>	<path fill="#B6008D" d="M334.9,260.8v-28.2h18.6v4.9h-13.1v6.6h11.1v4.9h-11.1v6.8h13.1v4.9H334.9z"/></g><path fill="#B6008D" d="M917.7,403.3H776v-7h138.2V122H776v-7h141.7c1.9,0,3.5,1.6,3.5,3.5v281.3	C921.2,401.7,919.6,403.3,917.7,403.3z"/><rect x="920.9" y="255.6" fill="#B6008D" width="127.7" height="7"/><path fill="#B6008D" d="M177.1,324.5c-45.8,0-87.6-11.5-111.8-30.7l6.2-7.8c22.2,17.6,62.6,28.5,105.6,28.5	c43,0,83.4-10.9,105.6-28.5l6.2,7.8C264.7,313.1,222.9,324.5,177.1,324.5z"/><circle fill="#B6008D" cx="68.4" cy="289.9" r="12.4"/><path fill="#B6008D" d="M279.9,316.6c-0.4,0-0.9-0.1-1.3-0.2c-2.7-0.7-4.2-3.5-3.5-6.1l4.6-17l-17-4.6c-2.7-0.7-4.2-3.5-3.5-6.1	c0.7-2.7,3.5-4.2,6.1-3.5l21.8,5.9c2.7,0.7,4.2,3.5,3.5,6.1l-5.9,21.8C284.1,315.2,282.1,316.6,279.9,316.6z"/></svg>