<!-- Generator: Adobe Illustrator 17.1.0, SVG Export Plug-In  --><svg version="1.1"	 xmlns="http://www.w3.org/2000/svg" xmlns:xlink="http://www.w3.org/1999/xlink" xmlns:a="http://ns.adobe.com/AdobeSVGViewerExtensions/3.0/"	 x="0px" y="0px" width="357.8px" height="226.8px" viewBox="0 0 357.8 226.8" enable-background="new 0 0 357.8 226.8"	 xml:space="preserve"><defs></defs><path fill="#007ABF" d="M71.4,103.2l-35.7-9.9c-1,3.3-1.9,6.6-2.8,10l35.7,9.9C69.4,109.8,70.3,106.4,71.4,103.2z"/><path fill="#007ABF" d="M71.4,103.2l-35.7-9.9c-1,3.3-1.9,6.6-2.8,10l35.7,9.9C69.4,109.8,70.3,106.4,71.4,103.2z"/><path fill="#007ABF" d="M307,86.9C286.2,35.1,235.5,0,178.6,0c-30.7,0-59.8,9.9-84.2,28.6c-19.7,15.1-35,35.5-44.2,58.4l10.7,3	C80.3,42.8,126.7,11,178.6,11c51.9,0,98.4,31.8,117.7,78.9L307,86.9z"/><path fill="#007ABF" d="M288.5,113.1l35.7-9.9c-0.8-3.4-1.7-6.7-2.8-10l-35.7,9.9C286.8,106.4,287.8,109.8,288.5,113.1z"/><path fill="#007ABF" d="M262.2,178.2c0.1-1.5,1.5-3.9,5.2-9c0.5-0.7,0.9-1.3,1.2-1.7c1-1.5,1.1-2.6,1.2-3.8c0.1-0.9,0.2-1.9,0.7-2.9	c0.8-1.6,2.9-2.1,5.2-2.7c1.4-0.4,3-0.8,4.2-1.4c1.4-0.7,2.1-1.9,2.4-2.8c-0.1,0-0.2,0-0.3,0c-0.4,0-0.8,0.1-1.2,0.1	c-1.3,0-2.4-0.2-3.3-0.6l-0.7-0.3l-0.3-0.7c-0.2-0.4-0.4-1.2-0.2-2.4c0.2-1,1-3,3.7-4.6c0.9-0.6,1.9-0.9,3-1c0.2,0,0.4,0,0.6,0	c2,0,3.6,0.9,4.5,1.5c0.8-0.7,2.1-1.9,3.9-3.7c1.7-1.6,6.3-5.5,14-6.2c0.8-0.1,1.7-0.1,2.5-0.1c1.3,0,2.7,0.1,4,0.3	c3.6,0.5,7.1,1.7,10.2,2.8c2.9,1,5.6,1.9,7.4,1.9c0.1,0,0.3,0,0.4,0c0.1,0,0.2,0,0.3,0c0.4-0.1,0.6-0.1,0.8-0.2	c-0.3-0.3-0.9-0.6-1.6-0.8c-0.7-0.2-2.1-0.7-4-1.4c-3.7-1.3-8.6-3-11-3.7c-3.2-0.9-7.6-3.7-9.2-6.7c-0.8-1.6-0.7-2.9-0.4-3.7	c0.4-1.1,1.4-2.4,3.9-2.7c0.3,0,0.6,0,0.9,0c2.2,0,4.9,0.7,7.3,1.3c0.5,0.1,1,0.2,1.4,0.4c2.8,0.7,7.3,4,12.5,8	c2.3,1.8,4.8,3.6,5.6,4c2.3,0.9,5.9,1.9,8.9,2.7l0.7,0.2c3.5,1,7.2,5.9,7.7,7.3l0.1,0.2l0,0.1c0.1,0.3,0.7,1,1.1,1.4	c1.1,1.3,1.7,2.2,1.9,2.8l0.3,0.9l-0.5,0.9c-0.7,1.3-3.1,2.5-4.5,2.6c-0.5,0-1.3,0.2-2.2,0.3c-1.5,0.2-3.4,0.6-5.5,0.8	c-0.7,0.1-1.3,0.1-1.9,0.1c-0.2,0-0.4,0-0.5,0c-2.2,0-3.4-0.9-4.1-1.4c-0.1,0-0.1-0.1-0.2-0.2c0.1,0.7,1,3.2,8,10.2	c3.1,3.2,6.6,8.5,7.2,10.9l1.1,5l-4.4-2.7c-1.6-1-4.3-3.7-7.6-7.1c-2.4-2.5-4.9-5-7-6.9c-5.2-4.5-16.2-8.1-24.1-9.8	c-1.1-0.2-2.2-0.3-3.4-0.3c-0.6,0-1.3,0-1.9,0.1c-4.1,0.4-8.1,2-10.3,3.3c-3.3,2.1-9.1,5.1-13.9,6.5c-3.4,1-5.7,5-7.4,7.9	c-0.4,0.8-0.9,1.5-1.3,2.1c-1.8,2.8-5.9,6.9-8.7,7.2l-0.1,0l-2.6,0.3L262.2,178.2z"/><path fill="#007ABF" d="M85.8,149.7c-0.7-0.3-1.6-0.4-2.5-0.4c-1.6,0-2.9,0.4-3.3,0.7c-0.2,0.1-0.3,0.3-0.5,0.4	c-0.3,0.1-0.7,0.2-1,0.3c-0.1,0-0.2,0-0.3,0.1c-0.6-1.3-1.4-2.8-2.2-4.1c0,0,0,0,0,0c-0.1-0.2-0.3-0.4-0.5-0.6c-0.7-1-1.4-2-2.2-2.6	c-4.3-4.8-12.9-11.7-24.8-12.2c-2.1-0.1-4.3-0.1-6.3-0.1c-12.7,0-22.3,1.9-29.4,5.8c-0.2,0.1-0.5,0.3-0.7,0.4	c-1.4,0.7-3,1.6-4.8,2.8c-1.4,1-1.9,5.5-0.9,7.4l-0.2,1.1c-2.2,0.2-4.6,0.6-6.3,1.1c1.8,0.5,4.5,0.9,7,1.2l1.3,0.1v1.3	c0,0.5-0.1,5.3-2.9,7.8c-1,0.9-2,1.5-2.7,2c-0.4,0.2-0.8,0.5-1.1,0.7c0.8,1.1,4.5,3.5,6.7,3.5c0.2,0,0.4,0,0.5-0.1c0,0,0.1,0,0.1,0	c-0.1-0.2-0.3-0.6-0.4-0.9c-0.5-1.1-1.2-2.7-0.1-4c1.4-1.6,5-4.4,5.2-4.5l1-0.7l0.9,0.8c6.5,5.8,6.2,6.7,6.1,7.5	c-0.1,0.4-0.3,0.8-0.6,1.1c0.9,0.1,2.3,0.3,3.8,0.3c1.5,0,2.5-0.1,3.1-0.2c-0.2-0.2-0.4-0.3-0.6-0.5c-0.6-0.4-1.2-0.9-1.6-1.5	c-0.8-1.3-1-3.4-1.1-3.6l-0.2-1.8l1.8,0.2c0.1,0,7.4,0.9,11.9,1.5c4.4,0.6,14.6,1.1,14.7,1.1l0,0c-0.1,1.5-0.8,2.9-1.8,4	c-0.2,0.2-0.4,0.4-0.6,0.7c-0.6,0.4-1,0.8-1.3,1.1c0.7,1.2,3.6,3.9,4.9,4.4c0.1-0.4,0.2-1.1,0.2-1.6c0.1-1.1,0.2-2.4,0.9-3.4	c1.2-1.6,6.4-5.6,7.4-6.4l1.4-1l0.8,1.5c2.4,4.5,5.1,8.7,6.1,9.2c0,0,0.1,0,0.2,0c2.1,0,6.2-2,7.3-3.3c0,0-0.1,0-0.1,0	c-0.2,0-0.4,0-0.6,0c-0.2,0-0.5,0-0.7,0c-0.7,0-2.5,0-3.6-1.2c-1.8-2-1.9-6.7-1.9-7.7v-1.6l1.6,0.1c1.6,0.1,6,0.4,7,0.4	c0.6,0,1.2,0.1,2,0.3c0.9,0.2,2.1,0.5,3.1,0.5c0.5,0,1-0.1,1.3-0.2l0.5-0.3c1.4-0.7,2.5-1.2,2.8-1.8	C89.9,153.5,87.3,150.3,85.8,149.7z"/><g>	<path fill="#007ABF" d="M137.4,199h-2.7l-3-9.9l-3,9.9H126l-4.4-16.4h3.3l2.5,10.3l3-10.3h2.4l3,10.3l2.6-10.3h3.3L137.4,199z"/>	<path fill="#007ABF" d="M152.1,199l-1-2.9h-5.8l-1,2.9H141l6-16.4h2.5l6,16.4H152.1z M148.3,187.5l-2.1,6h4.1L148.3,187.5z"/>	<path fill="#007ABF" d="M166.4,199l-3.2-6.5h-2.3v6.5h-3.2v-16.4h6.4c3.3,0,5.3,2.3,5.3,5c0,2.3-1.4,3.7-3,4.3l3.7,7.1H166.4z		 M163.9,185.5h-3v4.3h3c1.4,0,2.3-0.9,2.3-2.2S165.3,185.5,163.9,185.5z"/>	<path fill="#007ABF" d="M175.9,185.5v4h6.5v2.9h-6.5v6.6h-3.2v-16.4h10.8v2.9H175.9z"/>	<path fill="#007ABF" d="M194.5,199l-1-2.9h-5.8l-1,2.9h-3.3l6-16.4h2.5l6,16.4H194.5z M190.7,187.5l-2.1,6h4.1L190.7,187.5z"/>	<path fill="#007ABF" d="M208.8,199l-3.2-6.5h-2.3v6.5h-3.2v-16.4h6.4c3.3,0,5.3,2.3,5.3,5c0,2.3-1.4,3.7-3,4.3l3.7,7.1H208.8z		 M206.3,185.5h-3v4.3h3c1.4,0,2.3-0.9,2.3-2.2S207.7,185.5,206.3,185.5z"/>	<path fill="#007ABF" d="M215.1,199v-16.4h3.2V199H215.1z"/>	<path fill="#007ABF" d="M231.5,199l-6.5-10v10h-3.2v-16.4h2.9l6.5,10v-10h3.2V199H231.5z"/>	<path fill="#007ABF" d="M118.5,220.5h-3.2v6.2h-3.2v-16.4h6.3c3.4,0,5.4,2.3,5.4,5.1S121.9,220.5,118.5,220.5z M118.4,213.1h-3v4.5		h3c1.4,0,2.4-0.9,2.4-2.2S119.8,213.1,118.4,213.1z"/>	<path fill="#007ABF" d="M135.2,226.6l-3.2-6.5h-2.3v6.5h-3.2v-16.4h6.4c3.3,0,5.3,2.3,5.3,5c0,2.3-1.4,3.7-3,4.3l3.7,7.1H135.2z		 M132.7,213.1h-3v4.3h3c1.4,0,2.3-0.9,2.3-2.2S134.1,213.1,132.7,213.1z"/>	<path fill="#007ABF" d="M151.3,225c-1.1,1.1-2.6,1.8-4.4,1.8s-3.3-0.6-4.4-1.8c-1.7-1.7-1.6-3.7-1.6-6.5c0-2.8,0-4.9,1.6-6.5		c1.1-1.1,2.6-1.8,4.4-1.8s3.3,0.6,4.4,1.8c1.7,1.7,1.6,3.7,1.6,6.5C152.9,221.3,152.9,223.3,151.3,225z M148.9,213.8		c-0.5-0.5-1.2-0.9-2-0.9s-1.6,0.3-2.1,0.9c-0.6,0.7-0.8,1.4-0.8,4.6s0.2,3.9,0.8,4.6c0.5,0.5,1.2,0.9,2.1,0.9s1.6-0.3,2-0.9		c0.6-0.7,0.8-1.4,0.8-4.6S149.5,214.5,148.9,213.8z"/>	<path fill="#007ABF" d="M161.6,226.8c-1.8,0-3.3-0.6-4.4-1.8c-1.7-1.7-1.6-3.7-1.6-6.5c0-2.8,0-4.9,1.6-6.5		c1.1-1.1,2.6-1.8,4.4-1.8c3.1,0,5.4,1.7,6,5.2h-3.2c-0.3-1.3-1.2-2.3-2.8-2.3c-0.9,0-1.6,0.3-2,0.9c-0.6,0.7-0.8,1.5-0.8,4.6		s0.2,3.9,0.8,4.6c0.5,0.5,1.2,0.9,2,0.9c1.6,0,2.4-1,2.8-2.3h3.2C167,225,164.6,226.8,161.6,226.8z"/>	<path fill="#007ABF" d="M170.2,226.6v-16.4H181v2.9h-7.6v3.8h6.5v2.9h-6.5v4h7.6v2.9H170.2z"/>	<path fill="#007ABF" d="M189,226.8c-2.5,0-4.4-0.5-6-2.2l2.1-2.1c1,1,2.4,1.4,4,1.4c1.9,0,2.9-0.7,2.9-2c0-0.6-0.2-1.1-0.5-1.4		c-0.3-0.3-0.7-0.5-1.4-0.6l-2-0.3c-1.4-0.2-2.4-0.6-3.2-1.4c-0.8-0.8-1.2-1.8-1.2-3.2c0-2.9,2.2-5,5.7-5c2.3,0,3.9,0.6,5.3,1.9		l-2,2c-1-1-2.3-1.1-3.4-1.1c-1.7,0-2.5,0.9-2.5,2.1c0,0.4,0.1,0.9,0.5,1.2c0.3,0.3,0.9,0.6,1.5,0.6l1.9,0.3		c1.5,0.2,2.4,0.6,3.1,1.3c0.9,0.8,1.3,2,1.3,3.5C195.1,225,192.4,226.8,189,226.8z"/>	<path fill="#007ABF" d="M202.8,226.8c-2.5,0-4.4-0.5-6-2.2l2.1-2.1c1,1,2.4,1.4,4,1.4c1.9,0,2.9-0.7,2.9-2c0-0.6-0.2-1.1-0.5-1.4		c-0.3-0.3-0.7-0.5-1.4-0.6l-2-0.3c-1.4-0.2-2.4-0.6-3.2-1.4c-0.8-0.8-1.2-1.8-1.2-3.2c0-2.9,2.2-5,5.7-5c2.3,0,3.9,0.6,5.3,1.9		l-2,2c-1-1-2.3-1.1-3.4-1.1c-1.7,0-2.5,0.9-2.5,2.1c0,0.4,0.1,0.9,0.5,1.2c0.3,0.3,0.9,0.6,1.5,0.6l1.9,0.3		c1.5,0.2,2.4,0.6,3.1,1.3c0.9,0.8,1.3,2,1.3,3.5C208.8,225,206.2,226.8,202.8,226.8z"/>	<path fill="#007ABF" d="M211.6,226.6v-16.4h3.2v16.4H211.6z"/>	<path fill="#007ABF" d="M228,226.6l-6.5-10v10h-3.2v-16.4h2.9l6.5,10v-10h3.2v16.4H228z"/>	<path fill="#007ABF" d="M244.6,224.9c-1.3,1.4-2.9,1.9-4.6,1.9c-1.8,0-3.3-0.6-4.4-1.8c-1.7-1.7-1.6-3.7-1.6-6.5		c0-2.8,0-4.9,1.6-6.5c1.1-1.1,2.6-1.8,4.4-1.8c3.8,0,5.7,2.5,6.2,5.2h-3.2c-0.4-1.5-1.3-2.4-2.9-2.4c-0.9,0-1.6,0.3-2,0.9		c-0.6,0.7-0.8,1.4-0.8,4.6s0.2,3.9,0.8,4.6c0.5,0.5,1.2,0.9,2,0.9c1,0,1.7-0.3,2.3-0.9c0.5-0.6,0.7-1.3,0.7-2.2v-0.6h-3v-2.7h6.2		v2.4C246.2,222.3,245.8,223.7,244.6,224.9z"/></g></svg>