<!-- Generator: Adobe Illustrator 17.1.0, SVG Export Plug-In  --><svg version="1.1"	 xmlns="http://www.w3.org/2000/svg" xmlns:xlink="http://www.w3.org/1999/xlink" xmlns:a="http://ns.adobe.com/AdobeSVGViewerExtensions/3.0/"	 x="0px" y="0px" width="127px" height="127.5px" viewBox="0 0 127 127.5" enable-background="new 0 0 127 127.5"	 xml:space="preserve"><defs></defs><g>	<g>		<path fill="#B6008D" d="M127,58.2C124.2,25.6,96.8,0,63.5,0C30.1,0,2.8,25.6,0,58.2H127z"/>		<path fill="#B6008D" d="M0,69.2c2.8,32.6,30.1,58.2,63.5,58.2c33.4,0,60.7-25.6,63.5-58.2H0z"/>	</g>	<path fill="#FFFFFF" d="M45.4,41.3l-3,1.7l-9.9-9.3L35.6,47l-3,1.7L17,33.1l3.8-2.2l9.6,10L27,27.3l2.7-1.6l10.1,9.7L36,22.1		l3.8-2.2L45.4,41.3z"/>	<path fill="#FFFFFF" d="M62.6,18.8V24h8.4v3.7h-8.4v8.7h-4.2V15.1h14.1v3.7H62.6z"/>	<path fill="#FFFFFF" d="M91.8,47.2L91,31.6L84.5,43l-3.6-2.1l10.7-18.5l3.2,1.9l0.8,15.6l6.5-11.3l3.6,2.1L95,49.1L91.8,47.2z"/></g></svg>